<svg width="72" height="72" viewBox="0 0 72 72" fill="none" xmlns="http://www.w3.org/2000/svg">
<g clip-path="url(#clip0_171_375)">
<path d="M19.4993 22.5001C20.1724 22.5071 20.8403 22.6184 21.4793 22.8301C22.655 23.2411 23.6736 24.0077 24.3939 25.0237C25.1143 26.0397 25.5006 27.2547 25.4993 28.5001V39.7501C25.4993 39.949 25.5783 40.1398 25.719 40.2804C25.8596 40.4211 26.0504 40.5001 26.2493 40.5001H27.3593C28.7219 40.4692 30.0646 40.8305 31.2276 41.541C32.3906 42.2516 33.3249 43.2815 33.9192 44.508C34.5135 45.7345 34.7428 47.106 34.5797 48.4591C34.4166 49.8122 33.868 51.0899 32.9993 52.1401L29.9993 55.9501C29.8686 56.0937 29.7962 56.2809 29.7962 56.4751C29.7962 56.6693 29.8686 56.8565 29.9993 57.0001L33.9593 61.0801C34.2392 61.3704 34.5747 61.6014 34.9458 61.7591C35.3169 61.9169 35.7161 61.9982 36.1193 61.9982C36.5226 61.9982 36.9217 61.9169 37.2928 61.7591C37.6639 61.6014 37.9995 61.3704 38.2793 61.0801L66.5693 31.9501C69.0431 29.5191 70.7879 26.4449 71.6067 23.0746C72.4254 19.7043 72.2856 16.1722 71.2028 12.8772C70.1201 9.58218 68.1377 6.65556 65.4794 4.42781C62.8211 2.20006 59.5929 0.759948 56.1593 0.270106C53.2154 -0.24184 50.1916 -0.0404615 47.3416 0.857355C44.4915 1.75517 41.8983 3.32325 39.7793 5.4301L36.5093 8.4301C36.3706 8.55873 36.1885 8.6302 35.9993 8.6302C35.8102 8.6302 35.628 8.55873 35.4893 8.4301L32.2493 5.4301C30.1226 3.31622 27.5192 1.74413 24.6583 0.84617C21.7973 -0.0517921 18.7625 -0.249356 15.8093 0.270106C12.4712 0.787934 9.33672 2.20362 6.74124 4.36569C4.14575 6.52776 2.18696 9.35483 1.07446 12.5444C-0.038036 15.734 -0.262378 19.166 0.425445 22.4733C1.11327 25.7805 2.68737 28.8386 4.97931 31.3201L6.86931 33.2701C6.942 33.3463 7.03116 33.4048 7.12996 33.4412C7.22876 33.4776 7.33458 33.4909 7.43931 33.4801C7.65717 33.4676 7.8616 33.3707 8.00931 33.2101L14.8193 24.7501C15.3811 24.0485 16.0933 23.482 16.9033 23.0926C17.7133 22.7031 18.6005 22.5007 19.4993 22.5001Z" fill="black"/>
<path d="M8.24966 53.9999C8.44857 53.9999 8.63934 54.0789 8.77999 54.2196C8.92064 54.3602 8.99966 54.551 8.99966 54.7499V70.4999C8.99979 70.8082 9.0949 71.1089 9.27204 71.3612C9.44918 71.6135 9.69975 71.8051 9.98966 71.9099C10.2847 72.0154 10.6054 72.0258 10.9068 71.9398C11.2081 71.8537 11.4749 71.6754 11.6697 71.4299L29.3697 49.3199C29.6998 48.9394 29.9127 48.4715 29.9827 47.9726C30.0528 47.4738 29.977 46.9653 29.7645 46.5086C29.552 46.0519 29.2119 45.6664 28.7851 45.3987C28.3584 45.131 27.8634 44.9925 27.3597 44.9999H21.7497C21.5508 44.9999 21.36 44.9209 21.2193 44.7802C21.0787 44.6396 20.9997 44.4488 20.9997 44.2499V28.4999C20.9979 28.19 20.9001 27.8883 20.7199 27.6361C20.5397 27.384 20.2858 27.194 19.9931 27.092C19.7004 26.9901 19.3834 26.9813 19.0855 27.0669C18.7876 27.1524 18.5236 27.3282 18.3297 27.5699L0.629657 49.6799C0.299564 50.0604 0.0866409 50.5283 0.0165795 51.0272C-0.053482 51.526 0.0223123 52.0345 0.234817 52.4912C0.447321 52.9479 0.787455 53.3334 1.21418 53.6011C1.6409 53.8688 2.13597 54.0073 2.63966 53.9999H8.24966Z" fill="black"/>
</g>
<defs>
<clipPath id="clip0_171_375">
<rect width="72" height="72" fill="white"/>
</clipPath>
</defs>
</svg>
