<svg width="72" height="72" viewBox="0 0 72 72" fill="none" xmlns="http://www.w3.org/2000/svg">
<g clip-path="url(#clip0_171_384)">
<path d="M31.5 27C31.5 25.8065 31.0259 24.6619 30.182 23.818C29.3381 22.9741 28.1935 22.5 27 22.5C25.8065 22.5 24.6619 22.9741 23.818 23.818C22.9741 24.6619 22.5 25.8065 22.5 27V38.19C22.4995 38.3364 22.5418 38.4797 22.6218 38.6023C22.7018 38.7249 22.8158 38.8214 22.95 38.88C23.0841 38.9409 23.2337 38.9591 23.3786 38.9323C23.5234 38.9055 23.6565 38.8349 23.76 38.73L31.26 31.38C31.3345 31.3109 31.3942 31.2275 31.4354 31.1346C31.4767 31.0418 31.4987 30.9416 31.5 30.84V27Z" fill="black"/>
<path d="M27 18C31.1421 18 34.5 14.6421 34.5 10.5C34.5 6.35786 31.1421 3 27 3C22.8579 3 19.5 6.35786 19.5 10.5C19.5 14.6421 22.8579 18 27 18Z" fill="black"/>
<path d="M72 30C72 27.6131 71.0518 25.3239 69.364 23.636C67.6761 21.9482 65.3869 21 63 21H51.96C50.7426 21.0006 49.538 21.2481 48.419 21.7277C47.3 22.2073 46.29 22.9088 45.45 23.79L18.99 49.71C18.1868 50.5005 17.1162 50.9608 15.99 51H9C6.61305 51 4.32387 51.9482 2.63604 53.636C0.948211 55.3239 0 57.6131 0 60C0 62.387 0.948211 64.6761 2.63604 66.364C4.32387 68.0518 6.61305 69 9 69H21.54C22.7646 68.9996 23.9763 68.7493 25.1008 68.2644C26.2253 67.7796 27.2391 67.0703 28.08 66.18L54.51 40.29C55.3132 39.4995 56.3838 39.0392 57.51 39H63C65.3869 39 67.6761 38.0518 69.364 36.364C71.0518 34.6761 72 32.3869 72 30Z" fill="black"/>
<path d="M71.9999 48C71.9921 47.4057 71.7526 46.8379 71.3323 46.4176C70.912 45.9973 70.3442 45.7578 69.7499 45.75H59.2499C58.8052 45.7504 58.3705 45.8826 58.0009 46.1298C57.6312 46.3771 57.3432 46.7283 57.173 47.1392C57.0029 47.5501 56.9583 48.0022 57.045 48.4384C57.1316 48.8746 57.3456 49.2753 57.6599 49.59L60.2699 52.2C60.4006 52.3436 60.473 52.5308 60.473 52.725C60.473 52.9192 60.4006 53.1064 60.2699 53.25L49.6199 63.87C49.055 64.4508 48.7439 65.2323 48.7552 66.0424C48.7664 66.8526 49.0991 67.6251 49.6799 68.19C50.2607 68.7549 51.0421 69.066 51.8523 69.0547C52.6625 69.0435 53.435 68.7108 53.9999 68.13L64.6199 57.48C64.7635 57.3493 64.9507 57.2769 65.1449 57.2769C65.3391 57.2769 65.5263 57.3493 65.6699 57.48L68.2799 60.09C68.5982 60.4016 69.0008 60.613 69.438 60.6983C69.8752 60.7837 70.3278 60.739 70.7399 60.57C71.1279 60.3842 71.4535 60.0896 71.6772 59.7221C71.9009 59.3546 72.013 58.93 71.9999 58.5V48Z" fill="black"/>
</g>
<defs>
<clipPath id="clip0_171_384">
<rect width="72" height="72" fill="white"/>
</clipPath>
</defs>
</svg>
