<svg
  version="1.1"
  id="Layer_1"
  xmlns="http://www.w3.org/2000/svg"
  xmlns:xlink="http://www.w3.org/1999/xlink"
  viewBox="0 0 64 64"
  xml:space="preserve"
  width="64px"
  height="64px"
>
  <style type="text/css">
    .st0 {
      fill: #FFFFFF;
    }
    .st1 {
      fill: #FFFFFF;
    }
    .st2 {
      fill: #FFFFFF;
    }
  </style>
  <g id="Trophy">
    <path
      class="st0"
      d="M48,8H16c-1.1,0-2,0.9-2,2v14c0,7.2,4.7,13.3,11.3,15.3C25.1,42,24,44.4,24,47
      c0,3.3,2.7,6,6,6h4c3.3,0,6-2.7,6-6c0-2.6-1.1-5-3.3-6.7C45.3,37.3,50,31.2,50,24V10C50,8.9,49.1,8,48,8z M48,24
      c0,6.1-4.9,11-11,11s-11-4.9-11-11V12h22V24z"
    />
  </g>
  <g id="Star">
    <polygon
      class="st1"
      points="32,44 37.3,48 35.5,41.2 40,36.8 33.1,36 32,30 30.9,36 24,36.8 28.5,41.2 
      26.7,48"
    />
  </g>
  <g id="Base">
    <rect x="20" y="50" class="st2" width="24" height="4" />
  </g>
</svg>
