<svg
  version="1.1"
  id="Layer_1"
  xmlns="http://www.w3.org/2000/svg"
  xmlns:xlink="http://www.w3.org/1999/xlink"
  viewBox="0 0 64 64"
  xml:space="preserve"
  width="64px"
  height="64px"
>
  <style type="text/css">
    .st0 {
      fill: #5F5F5F;
    }
    .st1 {
      fill: #FFFFFF;
    }
    .st2 {
      fill: #AAAAAA;
    }
  </style>
  <g id="Progress_Bar">
    <rect x="8" y="48" class="st0" width="48" height="8" />
    <rect x="8" y="48" class="st1" width="24" height="8" />
  </g>
  <g id="Runner">
    <circle class="st0" cx="32" cy="16" r="6" />
    <path
      class="st2"
      d="M38.5,22.5c-1-0.5-2.5,1-3.5,2c-1,1-1,2.5,0,3.5c1,1,2.5,1,3.5,0c1-1,2.5-2.5,2-3.5
      C40.5,23,39.5,22.5,38.5,22.5z"
    />
    <path
      class="st2"
      d="M32,22c-2,0-4-1.5-5-3.5c-1-2,0-5,2-6c2-1,5,0,6,2c1,2,0,5-2,6C33,21.5,32.5,22,32,22z"
    />
    <path
      class="st2"
      d="M30,26c-0.5-1.5-3-3-4.5-2.5c-1.5,0.5-2.5,3-1,4.5c1.5,1.5,3,2,4.5,1
      C29.5,28.5,30,27.5,30,26z"
    />
    <path
      class="st2"
      d="M34,30c-0.5-1-3-1-4,0c-1,1-1.5,3,0,4c1,1,3,1,4,0C34.5,32.5,34.5,31,34,30z"
    />
  </g>
</svg>
