<svg width="27" height="42" viewBox="0 0 27 42" fill="none" xmlns="http://www.w3.org/2000/svg">
<path fill-rule="evenodd" clip-rule="evenodd" d="M3.16464 0.11656C2.96552 0.435148 3.2642 0.733825 3.66243 0.614354C3.86155 0.554619 4.08058 0.574528 4.14031 0.674087C4.20005 0.773646 3.98102 0.913036 3.66243 0.992683C3.22437 1.07233 3.06508 1.21171 3.06508 1.51038C3.06508 1.78915 2.98543 1.88871 2.82613 1.78915C2.62702 1.66968 2.62702 1.68958 2.80623 1.92853C2.94561 2.08782 2.96552 2.32677 2.88587 2.48606C2.78631 2.62545 2.7664 2.92411 2.80623 3.12323C2.86596 3.34226 2.80623 3.50156 2.68676 3.50156C2.54737 3.50156 2.50755 3.60112 2.56728 3.70068C2.64693 3.82015 2.7664 3.85997 2.86596 3.80024C3.24428 3.5613 3.24428 4.07901 2.86596 4.55689C2.50755 5.01486 2.48764 5.09451 2.7664 5.35336C3.04517 5.65204 2.98543 6.38876 2.68676 6.20956C2.60711 6.14982 2.54737 6.2892 2.54737 6.50823C2.54737 6.70735 2.64693 6.88656 2.74649 6.88656C2.86596 6.88656 2.84605 6.98611 2.72658 7.10558C2.54737 7.28479 2.6071 7.42417 2.92569 7.70294C3.16463 7.90205 3.26419 8.06135 3.12481 8.08127C2.98543 8.08127 2.9257 8.2804 3.00534 8.6189C3.06508 8.93749 3.12481 9.2959 3.12481 9.41537C3.12481 9.55475 3.24428 9.67421 3.38367 9.67421C3.50314 9.67421 3.72216 9.95297 3.84164 10.2716C3.94119 10.6101 4.1204 10.8689 4.20005 10.849C4.57837 10.7893 4.65802 10.8888 4.4589 11.2671C4.2797 11.5857 4.29961 11.6654 4.59829 11.6853C4.7974 11.6853 4.67793 11.7848 4.33943 11.8844C3.70225 12.0636 3.24428 12.6809 3.64252 12.8203C3.76199 12.8601 3.86155 13.0194 3.86155 13.1787C3.86155 13.338 4.02084 13.4574 4.21996 13.4574C4.49872 13.4574 4.51864 13.4176 4.25978 13.2583C4.00093 13.099 4.02084 13.0592 4.31952 13.0592C4.49872 13.0592 4.65802 12.9796 4.65802 12.88C4.65802 12.6211 5.59387 12.8999 6.45008 13.4176L7.12708 13.8358L6.41025 13.7163C5.9921 13.6566 5.51422 13.6765 5.3151 13.7561C5.11599 13.8557 4.83722 13.8955 4.71775 13.8756C4.41907 13.8358 4.37925 14.1743 4.65802 14.3535C4.77749 14.4331 4.81731 14.5526 4.75758 14.6521C4.69784 14.7318 4.7974 14.8712 4.97661 14.9309C5.1359 14.9907 5.23546 15.13 5.17573 15.2296C5.11599 15.3292 5.19564 15.5084 5.35493 15.6477C5.59387 15.8469 5.65361 15.8469 5.65361 15.6079C5.65361 15.4486 5.55405 15.2296 5.41466 15.0902C5.27528 14.9508 5.25537 14.8513 5.35493 14.8513C5.4744 14.8513 5.43458 14.7716 5.27528 14.6721C4.7974 14.3535 5.17572 13.8358 5.85272 13.8955C6.37043 13.9353 6.43017 13.9751 6.17131 14.1743C5.89255 14.3535 5.89255 14.4331 6.11157 14.6322C6.27087 14.7517 6.43017 14.8314 6.46999 14.7915C6.50981 14.7716 6.37043 14.9309 6.17131 15.13C5.91246 15.4088 5.85272 15.5482 6.03193 15.6079C6.19122 15.6677 6.1514 15.7871 5.91246 15.9663C5.63369 16.1853 5.61378 16.2451 5.85272 16.2252C6.01202 16.2053 6.29078 16.2053 6.45008 16.2252C6.68902 16.2451 6.66911 16.3048 6.39034 16.4641C6.17131 16.6035 6.07175 16.8026 6.1514 17.0416C6.23105 17.2805 6.13149 17.4796 5.91246 17.619C5.71334 17.7385 5.63369 17.838 5.73325 17.838C5.83281 17.838 5.75316 18.0372 5.53413 18.2761C5.28192 18.5549 5.30183 18.6611 5.59387 18.5947C5.85273 18.515 6.11158 18.5748 6.19123 18.6942C6.25096 18.8336 6.25096 18.8734 6.1514 18.7938C5.97219 18.6345 5.25537 18.9531 5.25537 19.192C5.25537 19.2916 5.61378 19.3712 6.05184 19.3912C6.64919 19.431 6.84831 19.3712 6.84831 19.1323C6.84831 18.973 6.96778 18.8336 7.12708 18.8336C7.28637 18.8336 7.54522 18.7739 7.72443 18.7142C7.90363 18.6544 8.04302 18.6942 8.04302 18.8137C8.04302 18.9332 7.88373 19.0327 7.68461 19.0327C7.5054 19.0327 7.22664 19.2318 7.08726 19.4509C6.86823 19.7894 6.68902 19.8491 6.1514 19.7695C5.61378 19.6898 5.43457 19.7496 5.21555 20.0682C5.01643 20.3668 4.73767 20.4863 4.29961 20.4664C3.9412 20.4664 3.66243 20.546 3.66243 20.6456C3.66243 20.7451 3.76199 20.8248 3.88146 20.8248C4.04076 20.8248 4.06067 20.9044 3.88146 21.0837C3.76199 21.243 3.74208 21.4421 3.82172 21.5217C3.90137 21.6213 3.86155 21.6213 3.74208 21.5615C3.50314 21.4222 2.46772 21.8204 2.46772 22.0394C2.46772 22.358 3.04517 22.358 3.16464 22.0593C3.2642 21.8005 3.32393 21.7806 3.4434 21.9996C3.56287 22.1788 3.72217 22.1987 3.88146 22.0992C4.33943 21.8204 4.65802 21.8403 4.65802 22.1589C4.65802 22.358 4.47882 22.4377 4.00093 22.3978C3.64252 22.358 3.26419 22.3978 3.12481 22.4775C3.00534 22.5571 2.68675 22.5372 2.4279 22.4376C2.16905 22.3381 1.79072 22.3381 1.5717 22.4576C1.33275 22.5638 1.34603 22.5903 1.61152 22.5372C1.87037 22.4974 2.12923 22.5372 2.18896 22.6368C2.2487 22.7363 2.22878 22.816 2.12922 22.7961C1.67125 22.7164 1.0739 22.8359 1.15355 22.9952C1.23319 23.0947 1.15355 23.2341 1.03408 23.2939C0.894693 23.3536 1.01416 23.3536 1.33275 23.2939C1.65134 23.2142 1.87037 23.254 1.87037 23.3934C1.87037 23.5129 1.77081 23.6124 1.63143 23.6124C1.51196 23.6124 1.5717 23.7916 1.77081 24.0107C1.96993 24.2297 2.18896 24.3691 2.22878 24.3094C2.28852 24.2496 2.52746 24.3293 2.74649 24.4687C3.34384 24.847 4.02084 25.0063 4.10049 24.7673C4.14032 24.6479 4.29961 24.7076 4.43899 24.8868C4.67793 25.1656 4.67793 25.2054 4.39917 25.0859C4.20005 25.0262 4.06067 25.1058 4.00093 25.3448C3.92129 25.6634 3.90137 25.6634 3.88146 25.3448C3.88146 25.1656 3.76199 25.0063 3.64252 25.0063C3.50314 25.0063 3.48322 25.1457 3.56287 25.3448C3.80181 25.962 3.76199 26.0616 3.30402 26.3204C2.98543 26.4797 2.90578 26.5992 3.06508 26.6988C3.20446 26.7784 3.36375 26.7386 3.4434 26.6191C3.54296 26.4797 3.74208 26.4399 3.98102 26.5395C4.39917 26.7187 4.6182 27.2364 4.20005 27.0771C4.04076 27.0174 3.94119 27.1567 3.92128 27.4156C3.90137 27.6545 3.7819 27.9134 3.66243 27.993C3.38367 28.1722 3.92129 28.6302 4.29961 28.5705C4.67793 28.4908 5.45449 28.7895 5.45449 29.0085C5.45449 29.2873 4.89696 29.2276 4.7974 28.9289C4.73767 28.7895 4.67793 28.8293 4.67793 29.0285C4.65802 29.2276 4.77749 29.3869 4.91687 29.3869C5.07616 29.3869 5.05625 29.4665 4.85714 29.586C4.69784 29.6855 4.61819 29.7851 4.71775 29.805C4.7974 29.8249 4.91687 29.8448 5.01643 29.8647C5.09607 29.8847 5.29519 29.9643 5.45449 30.0838C5.71334 30.2431 5.71334 30.2231 5.45449 29.8846C5.17572 29.5461 5.19563 29.5262 5.51422 29.6457C5.69343 29.7055 6.07175 29.6855 6.35052 29.586C6.62928 29.4864 6.88814 29.4864 6.94787 29.586C7.00761 29.6656 6.88813 29.805 6.70893 29.8647C6.50981 29.9046 6.62929 29.9245 6.9877 29.8846C7.3262 29.8448 7.72443 29.7652 7.86381 29.6656C8.04302 29.5661 8.06293 29.6258 7.98329 29.8448C7.92355 30.024 8.00319 30.2032 8.20231 30.2829C8.48107 30.3824 8.48108 30.4223 8.24214 30.5816C7.76425 30.8802 8.36161 30.8205 9.13817 30.5019C9.59614 30.3028 9.8749 30.2829 9.95455 30.4023C10.0143 30.5218 10.2532 30.5816 10.4523 30.5218C10.6515 30.4621 10.8705 30.482 10.9302 30.5816C11.0696 30.8205 12.324 31.0794 13.6183 31.1391C14.0763 31.1789 14.2356 31.2387 14.0564 31.3581C13.8573 31.4776 13.9568 31.5572 14.375 31.6369C14.813 31.7165 15.0719 31.9754 15.3905 32.5727C15.6294 33.0307 15.709 33.3294 15.5896 33.2497C15.4104 33.1502 15.3905 33.2298 15.4502 33.5285C15.5099 33.7675 15.4701 33.9865 15.3307 34.0462C15.2113 34.086 15.4104 34.1458 15.7887 34.1458C16.4259 34.1657 16.4458 34.1856 16.1073 34.4245C15.8683 34.6237 15.8285 34.7431 15.9679 34.8427C16.1073 34.9223 16.3064 34.9223 16.406 34.8626C16.5254 34.8029 16.6051 34.8228 16.6051 34.9223C16.6051 35.0418 16.4856 35.1613 16.3263 35.221C15.9679 35.3604 15.9878 36.356 16.3462 36.4954C16.5055 36.5551 16.5852 36.7144 16.5453 36.8339C16.4856 36.9533 16.6847 37.0529 17.0033 37.0529C17.3219 37.0529 17.5608 36.9732 17.5409 36.8538C17.521 36.7542 17.6206 36.6546 17.76 36.6746C18.5166 36.7343 18.6162 36.7741 18.4768 36.9732C18.417 37.0927 18.4768 37.2719 18.6162 37.3715C18.8352 37.5108 18.8153 37.5507 18.5564 37.5507C18.3573 37.5507 18.198 37.6502 18.198 37.7697C18.198 37.8892 18.3175 37.9489 18.4768 37.8892C18.8949 37.7299 19.2135 38.148 18.9746 38.5861C18.7555 39.0042 18.8551 39.0242 19.4525 38.7255L19.8905 38.5264L19.4724 38.8848C18.9547 39.3428 19.0542 39.7211 19.6715 39.6016C19.9303 39.5419 20.2091 39.6215 20.2888 39.7609C20.3883 39.9003 20.3684 39.96 20.2688 39.8804C20.1494 39.8206 19.9702 39.9401 19.8308 40.1392C19.6317 40.4578 19.6516 40.5574 19.9503 40.7167C20.4082 40.9556 20.8861 40.6768 20.7268 40.2587C20.6273 40.0197 20.7268 39.8803 21.0454 39.7609C21.2843 39.6613 21.5432 39.6215 21.6427 39.6812C21.9414 39.8605 22.3994 39.1436 22.479 38.4069C22.499 37.9887 22.5587 37.6104 22.5786 37.5507C22.7379 37.2122 22.6383 36.8339 22.3795 36.7343C22.1405 36.6148 22.1605 36.575 22.479 36.4356C23.0366 36.1967 23.0963 35.3604 22.5786 35.3604C22.0609 35.3604 22.0609 35.0418 22.5786 34.9024C22.8972 34.8228 22.937 34.7033 22.7976 34.2453C22.718 33.9267 22.6782 33.3294 22.6981 32.9113C22.7379 32.4135 22.6383 32.0351 22.4193 31.8161C22.2202 31.617 22.1007 31.2586 22.1405 30.9201C22.1804 30.6214 22.1206 30.3824 22.0211 30.3824C21.9016 30.3824 21.7622 30.2431 21.7025 30.0639C21.6228 29.8249 21.6627 29.7652 21.8817 29.8647C22.041 29.9245 22.1804 29.8846 22.1804 29.805C22.1804 29.7054 22.0808 29.586 21.9414 29.5462C21.7423 29.4665 21.7423 29.1678 21.9215 28.1722C22.0609 27.3359 22.0609 26.8183 21.9215 26.639C21.7821 26.4598 21.8618 26.4001 22.26 26.4001C22.5786 26.4001 22.7777 26.3005 22.7777 26.1014C22.7777 25.9421 22.8972 25.8027 23.0366 25.8027C23.2158 25.8027 23.2158 25.7629 23.0167 25.6235C22.7976 25.5041 22.8175 25.4045 23.0764 25.1257C23.3552 24.8669 23.3552 24.8071 23.1162 24.8071C22.9569 24.8071 22.7578 24.6479 22.6782 24.4487C22.5786 24.17 22.5985 24.1501 22.7976 24.3492C23.1959 24.7474 23.5742 24.6479 23.5742 24.1899C23.5742 23.9509 23.7335 23.6324 23.9326 23.4731C24.1118 23.3138 24.1516 23.2341 24.0322 23.3138C23.8928 23.3735 23.7733 23.3337 23.7733 23.2142C23.7733 22.8757 24.3906 22.0195 24.5698 22.1191C24.6494 22.1788 24.7092 21.9996 24.6893 21.7208C24.6893 21.4221 24.5698 21.2629 24.4304 21.3027C24.291 21.3624 24.2313 21.2828 24.3109 21.1036C24.3707 20.9443 24.5698 20.8646 24.749 20.9244C25.0278 21.004 25.0875 20.9044 25.0676 20.3867C25.0477 20.0084 25.187 19.5903 25.4061 19.3513C25.6052 19.1323 25.6848 18.9133 25.5654 18.8336C25.4658 18.7739 25.5853 18.5947 25.8242 18.4553C26.103 18.2827 26.1494 18.3093 25.9636 18.5349C25.7048 18.8336 25.7048 18.8734 25.9437 18.8137C26.5012 18.6146 26.3818 18.2562 25.6649 17.9177L24.9282 17.5792L25.4857 17.2805C26.5211 16.7429 26.7999 15.8469 25.9636 15.8469C25.7446 15.8469 25.5255 15.7473 25.4658 15.6477C25.4061 15.5283 25.426 15.4486 25.5455 15.4486C25.6649 15.4486 25.7048 15.3092 25.645 15.1499C25.5455 14.911 25.426 14.911 25.1074 15.0703C24.6893 15.2893 24.6893 15.2694 25.0078 14.9508C25.2667 14.6521 25.4061 14.6322 25.6251 14.8314C25.864 15.0106 25.9437 14.9907 26.0433 14.7318C26.2225 14.2937 26.2025 14.2539 25.8441 14.2539C25.6848 14.2539 25.5853 14.1743 25.645 14.0747C25.7048 13.9951 25.5255 13.9353 25.2667 13.9751C24.9879 13.9951 24.8087 13.9552 24.8685 13.8557C24.9282 13.776 24.8286 13.6366 24.6494 13.5769C24.4901 13.5172 24.4105 13.3778 24.4702 13.2583C24.5499 13.1389 24.6893 13.099 24.7888 13.1588C24.8884 13.2185 24.9083 13.1189 24.8286 12.9397C24.749 12.7008 24.7689 12.6411 24.9282 12.7406C25.0875 12.8203 25.1273 12.7805 25.0477 12.6013C24.9282 12.2827 23.9724 12.0039 23.9724 12.2826C23.9724 12.5415 22.8175 12.5017 22.6583 12.2428C22.5985 12.1234 22.26 11.8446 21.9016 11.6256C21.4635 11.3468 21.4038 11.2671 21.7423 11.3667C22.0211 11.4464 22.1804 11.4065 22.1804 11.2671C22.1804 11.0282 21.3242 11.1079 20.2888 11.4065L19.8905 11.526L20.2888 11.6853C20.6073 11.8048 20.5675 11.8446 20.0299 11.8446C19.6516 11.8645 19.4126 11.9441 19.4923 12.0636C19.6914 12.3623 18.8551 13.1389 18.2378 13.1986C17.7799 13.2583 17.76 13.2384 18.0586 13.0592C18.2378 12.9397 18.4967 12.8999 18.5963 12.9596C18.7157 13.0194 18.7356 12.9397 18.6759 12.7804C18.4967 12.3225 18.3374 12.3822 17.74 13.0592C17.1825 13.6765 16.9834 13.7561 16.7245 13.5172C16.6648 13.4375 16.4259 13.3778 16.2068 13.3579C15.9281 13.338 15.8086 13.4574 15.8086 13.7362C15.8086 13.9951 15.7489 14.0548 15.6493 13.9353C15.2909 13.3977 13.459 13.2185 12.9015 13.6765C12.6625 13.8756 12.6426 13.8557 12.7223 13.6167C12.8218 13.3778 12.7223 13.338 12.344 13.3977C11.9855 13.4774 11.8063 13.3778 11.6271 13.0791C11.4878 12.7804 11.2886 12.6809 11.0298 12.7605C10.8307 12.8203 10.532 12.7406 10.3528 12.5614C9.93464 12.1433 9.95455 12.0835 10.4324 12.203C10.6515 12.2628 10.8307 12.203 10.8307 12.0835C10.8307 11.9641 10.7311 11.8645 10.6116 11.8645C10.5121 11.8645 10.4723 11.7649 10.532 11.6654C10.6116 11.5459 10.313 11.4663 9.79525 11.4663C9.1979 11.4663 9.01869 11.4065 9.23772 11.2671C9.47667 11.1079 9.47666 11.068 9.1979 10.9685C8.99878 10.8888 8.75984 10.8888 8.64037 10.9685C8.5209 11.0282 8.44125 10.9087 8.44125 10.6499C8.44125 10.2915 8.48108 10.2716 8.73993 10.4707C9.01869 10.6897 9.11825 10.6101 9.05852 10.2118C9.05852 10.1322 9.15808 10.0724 9.27755 10.0724C9.41693 10.0724 9.37711 9.97289 9.17799 9.85342C8.89923 9.69412 8.72002 9.71403 8.42134 9.99279C8.22222 10.172 8.04302 10.2915 8.02311 10.2517C8.02311 10.2118 7.98328 10.0127 7.94346 9.8136C7.90364 9.6344 7.96337 9.51491 8.06293 9.59455C8.48108 9.85341 8.46116 9.03703 8.04302 8.55915C7.78417 8.3003 7.6846 8.08127 7.80407 8.08127C7.94346 8.08127 8.04302 8.20075 8.04302 8.32022C8.04302 8.47952 8.14258 8.43969 8.24214 8.24057C8.38152 8.04145 8.38152 7.74276 8.24214 7.40426C8.10275 7.00603 8.12267 6.9264 8.34169 7.02596C8.75984 7.16534 8.73993 6.30912 8.30187 5.69185C8.04302 5.33344 8.04302 5.25381 8.26205 5.33346C8.46117 5.4131 8.54081 5.29362 8.54081 4.97504C8.54081 4.69627 8.48108 4.5768 8.36161 4.69627C8.24214 4.81574 8.00319 4.89538 7.82399 4.89538C7.58505 4.89538 7.5054 4.77592 7.58505 4.47724C7.68461 4.15865 7.80408 4.09892 8.22222 4.17857C8.50099 4.2383 8.62046 4.2383 8.48108 4.17857C8.36161 4.11883 8.28196 3.97945 8.36161 3.87989C8.42134 3.78033 8.40143 3.70068 8.30187 3.68077C7.22663 3.58121 6.64919 3.16307 7.10716 2.84449C7.26646 2.74493 7.20672 2.7051 6.94787 2.74493C6.72884 2.78475 6.43017 2.94403 6.27087 3.10332C6.13149 3.26262 6.1514 3.16307 6.33061 2.84449C6.543 2.48607 6.46999 2.30022 6.11157 2.28695L5.55405 2.26704L6.05184 2.10774L6.54964 1.94846L6.01202 1.92853C5.69343 1.90861 5.39475 1.88872 5.3151 1.8489C5.21555 1.82899 5.1359 2.00819 5.09608 2.26704C5.03634 2.62545 5.1359 2.76483 5.49432 2.86439L5.95228 2.98386L5.45449 3.10332C4.95669 3.2228 4.59828 4.09891 5.03634 4.09891C5.33502 4.09891 5.31511 4.47723 4.97661 4.81573C4.6182 5.17414 4.47881 4.85557 4.61819 3.93963C4.67793 3.46175 4.63811 3.30244 4.39917 3.30244C4.21996 3.30244 4.04076 3.22279 3.98102 3.12323C3.92128 3.02367 4.02084 2.96395 4.21996 2.98386C4.77749 3.02368 4.63811 2.24712 4.06067 2.08783C3.7288 2.00818 3.75535 1.94181 4.14031 1.88871C4.95669 1.76924 5.03634 1.07233 4.29961 0.554621C3.42349 -0.0427315 3.30402 -0.102469 3.16464 0.11656ZM3.66243 2.70509C3.66243 2.80465 3.46331 2.90421 3.22437 2.8843C2.78631 2.8843 2.78631 2.86438 3.16464 2.70509C3.38367 2.60553 3.58278 2.52588 3.6226 2.52588C3.64252 2.50597 3.66243 2.58562 3.66243 2.70509ZM4.4589 2.70509C4.4589 2.80465 4.41908 2.90421 4.37926 2.90421C4.31952 2.90421 4.21996 2.80465 4.16022 2.70509C4.10049 2.58562 4.14031 2.50597 4.23987 2.50597C4.35934 2.50597 4.4589 2.58562 4.4589 2.70509ZM5.57396 6.32904C5.77308 6.5879 5.8129 6.66754 5.65361 6.52816C5.27528 6.20957 5.03634 6.22948 5.17573 6.56798C5.25537 6.78701 5.17572 6.82683 4.83722 6.74719C4.57837 6.66754 4.47881 6.5879 4.61819 6.52816C4.81731 6.46843 4.81731 6.38877 4.63811 6.16974C4.4589 5.95071 4.47882 5.89097 4.7974 5.89097C5.01643 5.89097 5.35493 6.0901 5.57396 6.32904ZM5.35493 7.26489C5.55405 7.60339 5.11599 7.68303 4.85714 7.38435C4.65802 7.14541 4.65802 7.08568 4.91687 7.08568C5.09607 7.08568 5.27528 7.16533 5.35493 7.26489ZM5.2952 9.91316C5.1359 10.0725 4.95669 10.0725 4.61819 9.91316C4.18013 9.71404 4.20005 9.69411 4.85714 9.69411C5.37484 9.6742 5.4744 9.73396 5.2952 9.91316ZM6.17131 10.2118C6.03193 10.3512 5.65361 10.0725 5.65361 9.83351C5.65361 9.71404 5.77308 9.71403 5.95228 9.87332C6.13149 10.0127 6.21114 10.172 6.17131 10.2118ZM5.41466 12.3026C5.63369 12.5813 5.61378 12.6212 5.27528 12.5216C5.03634 12.4619 4.85714 12.3424 4.85714 12.2826C4.85714 12.1233 5.09608 11.8247 5.1359 11.9043C5.15581 11.9442 5.27528 12.1234 5.41466 12.3026ZM9.03861 12.0636C8.87931 12.1632 8.60055 12.2428 8.44125 12.2428C8.24214 12.2428 8.28196 12.1831 8.54081 12.0636C9.07843 11.8247 9.39702 11.8247 9.03861 12.0636ZM20.3883 12.9596C20.3883 13.1787 19.8109 13.1787 19.7312 12.9796C19.6516 12.7804 19.7511 12.7406 20.01 12.8004C20.2091 12.8601 20.3883 12.9397 20.3883 12.9596ZM20.8065 13.119C20.6073 13.2982 20.5874 13.2782 20.7069 12.9995C20.7666 12.8004 20.8861 12.7008 20.9458 12.7605C21.0056 12.8203 20.9458 12.9796 20.8065 13.119ZM23.9724 13.338C24.1317 13.3977 24.0521 13.4176 23.7932 13.3778C23.5145 13.3181 23.176 13.3778 23.0366 13.4973C22.8574 13.6367 22.7777 13.6367 22.7777 13.4973C22.7777 13.2185 23.4348 12.8402 23.5742 13.0393C23.6339 13.1389 23.8131 13.2583 23.9724 13.338ZM22.5786 13.3778C22.5786 13.5371 22.2003 13.6367 22.1007 13.4973C22.041 13.3977 22.1206 13.3181 22.2799 13.3181C22.4392 13.3181 22.5786 13.3579 22.5786 13.3778ZM19.5918 14.5526C19.7113 14.4929 19.791 14.5327 19.791 14.6322C19.791 15.0305 18.8949 14.8513 18.6162 14.4132C18.3374 13.9752 18.3374 13.9752 18.875 14.3137C19.1737 14.5128 19.4923 14.6123 19.5918 14.5526ZM24.3906 14.7119C24.1915 14.8911 24.1715 14.8712 24.291 14.5924C24.3508 14.3933 24.4702 14.2937 24.53 14.3535C24.5897 14.4132 24.53 14.5725 24.3906 14.7119ZM17.76 15.0106C17.8595 15.3491 17.5808 15.2893 17.0033 14.8513L16.5055 14.4729L17.083 14.6123C17.4015 14.7119 17.7002 14.8712 17.76 15.0106ZM13.0608 14.8911C12.8816 15.0703 12.7621 15.0703 12.5829 14.8911C12.4037 14.7119 12.4435 14.6521 12.8218 14.6521C13.2002 14.6521 13.24 14.7119 13.0608 14.8911ZM14.4148 14.8513C14.4148 14.9508 14.3152 15.0504 14.1958 15.0504C14.0962 15.0504 14.0564 14.9508 14.1161 14.8513C14.1758 14.7318 14.2754 14.6521 14.3351 14.6521C14.375 14.6521 14.4148 14.7318 14.4148 14.8513ZM15.9679 14.9309C15.8285 15.0902 15.6692 15.1699 15.6294 15.1499C15.5298 15.0305 15.8285 14.6521 16.0276 14.6521C16.1272 14.6521 16.1073 14.7716 15.9679 14.9309ZM21.802 15.6676C22.3596 16.1853 22.3795 16.2451 21.9414 15.9862C21.5432 15.7473 21.3839 15.7274 21.3242 15.9066C21.2843 16.046 21.1649 16.0659 21.0653 15.9663C20.9658 15.8668 20.9857 15.7473 21.145 15.7075C21.3441 15.6278 21.3441 15.5482 21.1649 15.3292C20.7666 14.8513 21.1051 15.0305 21.802 15.6676ZM14.813 15.5482C14.6736 15.7075 14.4745 15.8469 14.3551 15.8469C14.2356 15.8469 14.3152 15.7075 14.5343 15.5482C15.032 15.1699 15.1316 15.1699 14.813 15.5482ZM10.4324 15.8469C10.4324 15.9464 10.3926 16.046 10.3528 16.046C10.293 16.046 10.1935 15.9464 10.1338 15.8469C10.074 15.7274 10.1138 15.6477 10.2134 15.6477C10.3329 15.6477 10.4324 15.7274 10.4324 15.8469ZM13.6183 15.8269C13.6183 15.9464 13.459 16.0261 13.2798 16.0261C13.0807 16.0062 12.7024 16.0659 12.4236 16.1256C12.0055 16.2252 12.0254 16.2053 12.5232 15.9663C13.2201 15.6079 13.6183 15.5681 13.6183 15.8269ZM16.9635 16.1455C16.9038 16.2053 16.7843 16.1057 16.7245 15.9066C16.6051 15.6278 16.625 15.6079 16.8241 15.7871C16.9635 15.9265 17.0232 16.0858 16.9635 16.1455ZM15.3705 16.0062C15.5498 16.1256 15.4701 16.2451 15.0918 16.4243C14.6338 16.6234 14.5741 16.6234 14.7732 16.3845C14.9126 16.2252 14.9524 16.046 14.8728 15.9862C14.6935 15.7871 15.052 15.827 15.3705 16.0062ZM18.9746 16.3646C19.0144 16.4044 18.7755 16.4442 18.437 16.4442C18.0786 16.4442 17.7998 16.3646 17.7998 16.265C17.7998 16.0858 18.7755 16.1654 18.9746 16.3646ZM16.6847 16.4243C16.7445 16.5039 16.5653 16.5438 16.3064 16.484C16.0276 16.4442 15.8086 16.3646 15.8086 16.3247C15.8086 16.1654 16.5852 16.2451 16.6847 16.4243ZM13.917 16.8424C13.8573 16.942 13.698 17.0416 13.5984 17.0416C13.4789 17.0416 13.459 16.942 13.5188 16.8424C13.5785 16.723 13.7378 16.6433 13.8373 16.6433C13.9568 16.6433 13.9767 16.723 13.917 16.8424ZM12.0851 17.1212C12.1448 17.2805 12.0652 17.4597 11.9059 17.5194C11.4479 17.6987 11.2289 17.6588 11.2289 17.4398C11.2289 17.3402 11.3683 17.3004 11.5276 17.3601C11.7466 17.4597 11.7864 17.4 11.7068 17.161C11.647 16.9818 11.667 16.8424 11.7864 16.8424C11.886 16.8424 12.0254 16.9619 12.0851 17.1212ZM16.7445 17.5593C16.7246 17.5792 16.386 17.5394 16.0077 17.4398C15.3506 17.3004 15.3506 17.2805 15.8683 17.2606C16.2467 17.2407 16.386 17.161 16.3064 16.9818C16.2268 16.8624 16.3263 16.9221 16.4856 17.1212C16.6648 17.3402 16.7843 17.5393 16.7445 17.5593ZM7.5054 17.4796C7.8439 17.8181 7.76425 18.0371 7.30628 18.0371C7.14699 18.0371 7.08725 17.9376 7.14699 17.8181C7.22664 17.6987 7.10717 17.5593 6.86823 17.4995C6.6492 17.4398 6.4899 17.3203 6.54964 17.2407C6.68902 17.0017 7.14699 17.1212 7.5054 17.4796ZM17.1626 17.5394C17.1029 17.5991 16.9834 17.4995 16.9237 17.3004C16.8042 17.0217 16.8241 17.0017 17.0232 17.181C17.1626 17.3203 17.2223 17.4796 17.1626 17.5394ZM15.052 17.6787C14.9524 18.0969 15.2113 18.1566 15.5697 17.7982C15.7489 17.619 15.8683 17.619 16.0476 17.7982C16.1869 17.9376 16.2467 18.0371 16.2068 18.0571C15.0719 18.2163 14.8329 18.1964 14.7334 17.9376C14.594 17.5792 14.0763 17.5394 13.9767 17.8779C13.917 18.0571 13.8573 18.0571 13.7378 17.8779C13.5785 17.619 14.1559 17.3203 14.7931 17.3203C15.032 17.3203 15.1316 17.4398 15.052 17.6787ZM12.9214 17.6389C12.9811 17.7385 12.8617 17.838 12.6227 17.838C12.3838 17.838 12.2643 17.7385 12.324 17.6389C12.3838 17.5194 12.5232 17.4398 12.6227 17.4398C12.7223 17.4398 12.8617 17.5194 12.9214 17.6389ZM18.0985 17.7982C18.0387 17.858 17.8794 17.7982 17.74 17.6588C17.5608 17.4597 17.5808 17.4398 17.8595 17.5593C18.0586 17.619 18.1582 17.7385 18.0985 17.7982ZM16.9038 18.0371C16.844 18.1367 16.6847 18.2363 16.5852 18.2363C16.4657 18.2363 16.4458 18.1367 16.5055 18.0371C16.5653 17.9177 16.7245 17.838 16.8241 17.838C16.9436 17.838 16.9635 17.9177 16.9038 18.0371ZM25.1074 18.1566C25.0477 18.2163 24.8685 18.2363 24.7291 18.1765C24.5698 18.1168 24.6295 18.0571 24.8485 18.0571C25.0676 18.0371 25.187 18.0969 25.1074 18.1566ZM13.6183 18.5349C13.7776 18.7141 13.7975 18.8336 13.6581 18.8336C13.5387 18.8336 13.3794 18.7341 13.3196 18.6146C13.2201 18.4951 13.1006 18.5349 12.9413 18.754C12.8019 18.9332 12.5829 19.0327 12.4634 18.9531C12.0851 18.7341 12.1847 18.4752 12.6825 18.3757C12.9214 18.3358 13.1803 18.2761 13.24 18.2562C13.3196 18.2562 13.4789 18.3756 13.6183 18.5349ZM21.1848 18.3956C21.1848 18.4951 21.0454 18.5748 20.8861 18.5748C20.7268 18.5748 20.6472 18.4951 20.7069 18.3956C20.7666 18.3159 20.8861 18.2363 21.0056 18.2363C21.1051 18.2363 21.1848 18.3159 21.1848 18.3956ZM16.5453 18.8535C16.3661 18.973 16.2666 19.1522 16.3263 19.2717C16.406 19.4111 16.3661 19.431 16.2268 19.3513C16.1073 19.2717 15.948 19.3314 15.9082 19.4907C15.8285 19.65 15.5099 19.7496 15.1117 19.7496C14.355 19.7296 14.2555 19.6102 14.7135 19.2319C14.8728 19.0925 14.9524 18.8933 14.8728 18.754C14.813 18.6345 14.8728 18.6544 15.032 18.7938C15.271 19.0128 15.271 19.0726 15.0121 19.2518C14.7931 19.3911 14.8728 19.4111 15.3108 19.3712C15.709 19.3115 15.9082 19.1721 15.8883 18.973C15.8683 18.7938 15.9679 18.7141 16.1073 18.754C16.2467 18.8137 16.4259 18.754 16.5055 18.6345C16.5852 18.515 16.7046 18.4752 16.7644 18.5349C16.844 18.6146 16.7445 18.754 16.5453 18.8535ZM20.0896 18.6345C20.1494 18.7341 20.1095 18.8336 20.01 18.8336C19.8905 18.8336 19.791 18.7341 19.791 18.6345C19.791 18.515 19.8308 18.4354 19.8706 18.4354C19.9303 18.4354 20.0299 18.515 20.0896 18.6345ZM11.3285 19.2319C11.3882 19.3314 11.3484 19.431 11.2488 19.431C11.1293 19.431 11.0298 19.3314 11.0298 19.2319C11.0298 19.1124 11.0696 19.0327 11.1094 19.0327C11.1692 19.0327 11.2687 19.1124 11.3285 19.2319ZM8.06293 19.65C7.8439 19.8491 7.64478 20.0283 7.64478 20.0881C7.64478 20.2274 8.20231 20.1478 8.36161 19.9885C8.42134 19.9089 8.60055 19.9089 8.75984 19.9686C8.91914 20.0283 9.17799 19.9686 9.33728 19.8292C9.49658 19.7097 9.71561 19.65 9.83508 19.7296C9.93464 19.7894 10.1736 19.7097 10.3528 19.5305C10.6116 19.2717 10.7311 19.2717 10.97 19.4708C11.1493 19.6102 11.5276 19.7097 11.8063 19.6898C12.0851 19.65 12.2046 19.6898 12.0851 19.7496C11.9457 19.8093 11.8263 20.0084 11.8263 20.1876C11.8263 20.4664 11.8661 20.4664 12.0055 20.2473C12.105 20.0881 12.3838 20.0084 12.6825 20.0682C13.001 20.1279 13.24 20.0482 13.3794 19.8292C13.4789 19.65 13.7179 19.4907 13.8971 19.4907C14.1161 19.4907 14.1559 19.5703 13.9966 19.7496C13.8573 19.9088 13.8772 20.0283 14.0564 20.0881C14.2356 20.1677 14.1958 20.2075 13.9767 20.2075C13.7975 20.2274 13.5984 20.108 13.5387 19.9686C13.4789 19.8491 13.459 19.9487 13.4789 20.2274C13.5188 20.785 14.0564 20.9044 14.7135 20.5261C15.2909 20.1677 16.8042 20.4066 16.8042 20.8447C16.8042 20.9642 16.9038 20.9841 17.0033 20.9244C17.1228 20.8646 17.2024 20.8845 17.2024 21.004C17.2024 21.1235 16.9834 21.2628 16.7046 21.3425C16.4259 21.4022 16.2068 21.5416 16.2068 21.6213C16.2068 21.8602 17.2024 22.4376 17.4015 22.3182C17.5011 22.2584 17.6405 22.3182 17.7002 22.4376C17.7799 22.5372 17.979 22.5969 18.1383 22.5372C18.2976 22.4576 18.3573 22.5173 18.2976 22.6368C18.2179 22.7562 18.0188 22.7961 17.8595 22.7363C17.6803 22.6567 17.4016 22.7164 17.2423 22.8558C16.9834 23.0748 16.9635 23.0748 17.1029 22.8359C17.2223 22.6168 17.1825 22.577 16.9436 22.6766C16.7046 22.7562 16.6051 22.6965 16.5852 22.4576C16.5653 22.139 16.5453 22.139 16.4657 22.4775C16.4259 22.6567 16.2865 22.7761 16.1869 22.7164C16.0874 22.6368 16.0077 22.816 16.0077 23.0947C16.0077 23.4532 16.0874 23.5726 16.3064 23.493C16.4657 23.4133 16.6051 23.4731 16.6051 23.5925C16.6051 23.712 16.386 23.8116 16.1073 23.8116C15.8285 23.8116 15.6095 23.8912 15.6095 23.9908C15.6095 24.1102 15.4104 24.1501 15.1714 24.0903C14.9126 24.0505 14.2754 23.9709 13.7378 23.9111C13.1803 23.8514 12.6825 23.712 12.6028 23.5925C12.5431 23.4731 12.2643 23.3934 12.0055 23.4133C11.3882 23.4731 10.6315 23.2142 10.6315 22.9753C10.6315 22.8757 10.5519 22.8359 10.4523 22.9155C10.1338 23.0947 9.23772 22.577 9.23772 22.1987C9.23772 21.9996 9.31737 21.8005 9.41693 21.7407C9.51649 21.681 9.63596 21.3624 9.67579 21.0438C9.75543 20.5261 9.7156 20.4863 9.41693 20.6257C9.17799 20.7651 9.03861 20.7252 8.95896 20.5062C8.87931 20.2872 8.6802 20.2274 8.26205 20.327C7.80408 20.4266 7.62487 20.3668 7.48549 20.0881C7.22664 19.5704 7.38593 19.3115 7.96337 19.3115H8.48108L8.06293 19.65ZM13.1603 19.3712C12.9811 19.4111 12.8617 19.5305 12.9015 19.6102C12.9612 19.6898 12.8816 19.7695 12.7422 19.7695C12.2444 19.7695 12.5033 19.3115 13.001 19.2916C13.2997 19.2916 13.3595 19.3115 13.1603 19.3712ZM16.9635 19.7296C16.8042 20.0881 16.6648 20.1677 16.5254 20.0283C16.386 19.8889 16.4458 19.7296 16.7245 19.5305C17.0564 19.2783 17.1361 19.3447 16.9635 19.7296ZM22.2799 19.7894C22.2202 19.8491 22.0609 19.7894 21.9215 19.65C21.7423 19.4509 21.7622 19.431 22.041 19.5504C22.2401 19.6102 22.3397 19.7297 22.2799 19.7894ZM23.0565 19.9288C23.1162 20.0881 23.0764 20.2274 22.9768 20.2274C22.8574 20.2274 22.7777 20.0881 22.7777 19.9288C22.7777 19.7695 22.8175 19.6301 22.8574 19.6301C22.8972 19.6301 22.9768 19.7695 23.0565 19.9288ZM6.84831 20.4067C6.84831 20.5062 7.04743 20.6456 7.30628 20.6854C7.58505 20.7452 7.54522 20.7651 7.14699 20.7451C6.80849 20.7451 6.56955 20.8248 6.58946 20.9642C6.60937 21.0837 6.4899 21.3027 6.29079 21.4421C6.11158 21.5814 6.01202 21.6213 6.09167 21.5416C6.17131 21.4421 6.09167 21.243 5.89255 21.0837C5.59387 20.8248 5.59387 20.8049 5.89255 20.8845C6.09167 20.9642 6.25096 20.8646 6.31069 20.6058C6.41025 20.2274 6.84831 20.0682 6.84831 20.4067ZM19.1936 20.9841C19.1936 21.0837 19.0542 21.1633 18.8949 21.1633C18.7356 21.1633 18.5963 21.0837 18.5963 20.9841C18.5963 20.9044 18.7356 20.8248 18.8949 20.8248C19.0542 20.8248 19.1936 20.9044 19.1936 20.9841ZM21.2843 21.0239C21.3441 21.1235 21.3043 21.223 21.2047 21.223C21.0852 21.223 20.9857 21.1235 20.9857 21.0239C20.9857 20.9044 21.0255 20.8248 21.0653 20.8248C21.125 20.8248 21.2246 20.9044 21.2843 21.0239ZM23.9127 21.1036C23.833 21.3226 23.0167 21.4222 22.5985 21.2629C22.3596 21.1633 22.3795 21.1235 22.6383 21.0438C23.156 20.8646 23.9724 20.9044 23.9127 21.1036ZM20.0697 21.4221C19.8706 21.5018 19.6118 21.5217 19.5122 21.462C19.2533 21.3226 19.8308 21.0438 20.1494 21.1832C20.4082 21.2629 20.3883 21.3226 20.0697 21.4221ZM7.5054 21.5018C7.58505 21.7009 7.5054 21.7407 7.22663 21.681C7.02752 21.6213 6.90805 21.5018 6.96778 21.4022C7.12708 21.1434 7.38593 21.1832 7.5054 21.5018ZM8.73993 21.6213C8.68019 21.7208 8.50099 21.8204 8.38152 21.8204C8.24214 21.8204 8.26205 21.7407 8.44125 21.6213C8.81958 21.3823 8.89922 21.3823 8.73993 21.6213ZM5.55405 21.8204C5.91246 21.9797 5.89255 21.9996 5.41466 21.9996C5.09607 22.0195 4.85714 21.9199 4.85714 21.8204C4.85714 21.5814 5.01643 21.5814 5.55405 21.8204ZM19.791 22.2784C19.791 22.3779 19.8905 22.3779 19.9901 22.3182C20.1095 22.2584 20.1892 22.2983 20.1892 22.4177C20.1892 22.577 20.01 22.6169 19.7511 22.5571C19.4923 22.4974 18.9547 22.3779 18.5365 22.3182C18.1383 22.2385 17.74 22.0992 17.6803 21.9996C17.5409 21.7806 17.6604 21.7806 18.2777 22.0195C18.6759 22.1589 18.7954 22.139 18.7954 21.9398C18.7954 21.7208 18.8949 21.7009 19.2932 21.8801C19.5719 22.0195 19.791 22.1987 19.791 22.2784ZM21.583 21.8403C21.583 21.9398 21.5034 21.9797 21.3839 21.9199C21.2843 21.8602 21.1848 21.9 21.1848 22.0394C21.1848 22.1788 21.125 22.2385 21.0653 22.1589C20.906 22.0195 21.145 21.6213 21.4038 21.6213C21.5034 21.6213 21.583 21.7208 21.583 21.8403ZM5.75317 22.4177C5.8129 22.5173 5.73325 22.6169 5.55405 22.6169C5.37484 22.6169 5.29519 22.5173 5.35493 22.4177C5.41467 22.2983 5.51422 22.2186 5.55405 22.2186C5.59387 22.2186 5.69343 22.2983 5.75317 22.4177ZM21.2843 22.816C21.3441 22.9155 21.2644 23.0151 21.0852 23.0151C20.906 23.0151 20.8264 22.9155 20.8861 22.816C20.9458 22.6965 21.0454 22.6169 21.0852 22.6169C21.125 22.6169 21.2246 22.6965 21.2843 22.816ZM19.2932 23.0151C19.3728 23.1346 19.1737 23.2142 18.8551 23.2142C18.417 23.2142 18.3573 23.1744 18.5963 23.0151C18.9746 22.7761 19.1339 22.7761 19.2932 23.0151ZM10.0342 23.2142C10.0342 23.3138 9.95455 23.4133 9.83508 23.4133C9.73552 23.4133 9.63596 23.3138 9.63596 23.2142C9.63596 23.0947 9.73552 23.0151 9.83508 23.0151C9.95455 23.0151 10.0342 23.0947 10.0342 23.2142ZM21.2843 23.4133C21.3441 23.5129 21.2246 23.6124 21.0056 23.6124C20.7666 23.6124 20.5874 23.5129 20.5874 23.4133C20.5874 23.2939 20.7069 23.2142 20.8662 23.2142C21.0255 23.2142 21.2246 23.2939 21.2843 23.4133ZM18.9348 23.9111C18.9348 24.0704 18.7555 24.2098 18.5564 24.2098C18.3573 24.2098 18.198 24.1301 18.198 24.0306C18.198 23.9509 17.9591 23.8912 17.6803 23.931C17.0232 23.9908 17.3219 23.6722 17.9989 23.5726C18.656 23.4731 18.9348 23.5726 18.9348 23.9111ZM9.23772 23.6921C9.23772 23.7518 9.15808 23.8514 9.03861 23.9111C8.93905 23.9709 8.83949 23.931 8.83949 23.8315C8.83949 23.712 8.93905 23.6124 9.03861 23.6124C9.15808 23.6124 9.23772 23.6523 9.23772 23.6921ZM6.1514 24.608C6.09167 24.7076 5.95228 24.8071 5.83281 24.8071C5.73325 24.8071 5.65361 24.7076 5.65361 24.608C5.65361 24.4886 5.79299 24.4089 5.9722 24.4089C6.13149 24.4089 6.21114 24.4886 6.1514 24.608ZM17.9392 24.9864C17.9392 25.2054 17.7998 25.3249 17.6604 25.2651C17.4812 25.1855 17.4812 25.1058 17.6604 24.8868C17.8728 24.6611 17.9657 24.6943 17.9392 24.9864ZM22.479 24.8071C22.5388 24.9067 22.499 25.0063 22.3994 25.0063C22.2799 25.0063 22.1804 24.9067 22.1804 24.8071C22.1804 24.6877 22.2202 24.608 22.26 24.608C22.3198 24.608 22.4193 24.6877 22.479 24.8071ZM5.45449 25.0063C5.45449 25.1058 5.41467 25.2054 5.37484 25.2054C5.31511 25.2054 5.21555 25.1058 5.15581 25.0063C5.09608 24.8868 5.1359 24.8071 5.23546 24.8071C5.35493 24.8071 5.45449 24.8868 5.45449 25.0063ZM14.6736 25.0859C14.7533 25.285 14.6935 25.3448 14.5143 25.2651C14.355 25.2054 14.2754 25.0859 14.3351 24.9864C14.4745 24.7474 14.5542 24.7673 14.6736 25.0859ZM12.4833 25.5439C12.344 25.5837 12.0652 25.5837 11.886 25.5439C11.6869 25.4842 11.8063 25.4443 12.1249 25.4443C12.4634 25.4443 12.6028 25.4842 12.4833 25.5439ZM9.3572 25.8426C9.43684 25.982 9.41693 26.0018 9.27755 25.9222C9.13817 25.8426 9.03861 25.8824 9.03861 25.9819C9.03861 26.1014 8.95896 26.201 8.87931 26.201C8.77976 26.201 8.7001 26.0616 8.7001 25.9023C8.7001 25.5439 9.15808 25.5041 9.3572 25.8426ZM8.02311 27.1966C8.30187 27.0572 8.44125 27.0572 8.44125 27.1966C8.44125 27.2961 8.28196 27.3957 8.10275 27.4156C7.8439 27.4156 7.86381 27.4753 8.20231 27.6147C8.46116 27.7143 8.75984 27.7541 8.8594 27.6944C8.95896 27.6147 8.97887 27.7143 8.91913 27.8935C8.83949 28.0926 8.72002 28.1324 8.56073 28.0129C8.44125 27.9134 8.02311 27.8736 7.64478 27.9134C7.1669 27.9731 7.04743 27.9333 7.22663 27.8138C7.48549 27.6545 7.48549 27.5749 7.22663 27.2563C6.96778 26.9377 6.9877 26.9178 7.28637 27.1567C7.54523 27.3559 7.72443 27.3758 8.02311 27.1966ZM10.3329 27.3957C10.3926 27.5151 10.313 27.5351 10.1537 27.4753C9.79525 27.3359 9.73552 27.1966 10.0143 27.1966C10.1338 27.1966 10.2731 27.2762 10.3329 27.3957ZM11.428 27.4952C11.428 27.6545 11.3484 27.7939 11.2488 27.7939C10.99 27.7939 10.8108 27.4753 10.97 27.316C11.1891 27.097 11.428 27.1966 11.428 27.4952ZM12.2245 27.2762C12.2245 27.316 12.0851 27.4156 11.9059 27.4753C11.7466 27.5351 11.667 27.5151 11.7267 27.3957C11.8462 27.1966 12.2245 27.1169 12.2245 27.2762ZM13.8174 27.3957C13.8174 27.4952 13.7776 27.5948 13.7378 27.5948C13.678 27.5948 13.5785 27.4952 13.5188 27.3957C13.459 27.2762 13.4988 27.1966 13.5984 27.1966C13.7179 27.1966 13.8174 27.2762 13.8174 27.3957ZM5.25537 27.774C5.25537 28.0329 4.29961 28.1523 4.20005 27.9134C4.14032 27.7939 4.35934 27.6745 4.67793 27.6545C4.99652 27.6346 5.25537 27.6944 5.25537 27.774ZM8.99878 29.4267C8.83949 29.5262 9.07843 29.5462 9.59613 29.4665C10.2731 29.3669 10.4324 29.3869 10.4324 29.6457C10.4324 29.8647 10.313 29.9046 10.0143 29.8448C9.73552 29.7652 9.51649 29.8448 9.39702 30.0639C9.17799 30.4621 8.75984 30.482 8.91913 30.0838C9.01869 29.8249 8.83949 29.7055 8.42134 29.7453C8.36161 29.7652 8.30187 29.6457 8.30187 29.4864C8.30187 29.3271 8.38152 29.2475 8.48108 29.3072C8.56073 29.3669 8.64037 29.3271 8.64037 29.2076C8.64037 29.0882 8.77975 29.0484 8.95896 29.128C9.21781 29.2276 9.21781 29.2674 8.99878 29.4267ZM12.0254 30.2232C12.0254 30.4024 12.0851 30.4024 12.2643 30.2232C12.5431 29.9444 13.2201 29.9046 13.2201 30.1435C13.2201 30.2431 12.9015 30.4024 12.5232 30.5218C11.9656 30.701 11.8263 30.6811 11.8263 30.482C11.8263 30.3426 11.7068 30.1634 11.5873 30.1236C11.428 30.0639 11.4678 30.0041 11.6869 30.0041C11.8661 29.9842 12.0254 30.0838 12.0254 30.2232ZM18.2976 36.1569C18.3573 36.2564 18.2777 36.356 18.0985 36.356C17.9193 36.356 17.8396 36.2564 17.8993 36.1569C17.9591 36.0374 18.0586 35.9577 18.0985 35.9577C18.1383 35.9577 18.2378 36.0374 18.2976 36.1569ZM19.5918 37.3516C19.5918 37.4511 19.4923 37.5507 19.3728 37.5507C19.2733 37.5507 19.2334 37.4511 19.2932 37.3516C19.3529 37.2321 19.4525 37.1524 19.5122 37.1524C19.552 37.1524 19.5918 37.2321 19.5918 37.3516Z" fill="#171717"/>
<path fill-rule="evenodd" clip-rule="evenodd" d="M12.324 20.4067C12.2842 20.5063 12.4036 20.6257 12.6227 20.6855C12.8417 20.7452 13.0209 20.7253 13.0209 20.6257C13.0209 20.3868 12.4634 20.2076 12.324 20.4067Z" fill="#171717"/>
<path fill-rule="evenodd" clip-rule="evenodd" d="M14.5534 20.9642C14.4738 21.0239 14.4141 21.1832 14.4141 21.3027C14.4141 21.4222 14.5136 21.4023 14.653 21.2629C14.7725 21.1434 14.8322 20.9841 14.7924 20.9244C14.7326 20.8646 14.6132 20.8846 14.5534 20.9642Z" fill="#171717"/>
<path fill-rule="evenodd" clip-rule="evenodd" d="M15.2119 21.0239C15.6101 21.2828 15.869 21.2828 15.7097 21.0239C15.6499 20.9045 15.4309 20.8248 15.2517 20.8248C14.953 20.8248 14.953 20.8647 15.2119 21.0239Z" fill="#171717"/>
<path fill-rule="evenodd" clip-rule="evenodd" d="M6.80903 0.952854C6.72938 1.15197 6.78912 1.33118 6.96832 1.39091C7.38647 1.55021 7.44621 1.55021 7.44621 1.29136C7.44621 1.1918 7.36656 1.13206 7.267 1.2117C7.16744 1.27144 7.04797 1.15197 7.00814 0.97276C6.94841 0.654172 6.9285 0.634265 6.80903 0.952854Z" fill="#171717"/>
<path fill-rule="evenodd" clip-rule="evenodd" d="M5.25526 1.31127C5.37473 1.55021 5.59376 1.62987 5.97208 1.55022C6.29067 1.49049 6.39023 1.41083 6.25085 1.31127C6.05173 1.1918 6.07164 1.13206 6.25085 1.07232C6.39023 1.0325 6.19111 0.992677 5.79288 0.972765C5.1557 0.952854 5.09596 0.99268 5.25526 1.31127Z" fill="#171717"/>
<path fill-rule="evenodd" clip-rule="evenodd" d="M7.64453 2.70508C7.64453 2.80464 7.70426 2.90419 7.80382 2.9241C7.88347 2.9241 8.1025 2.96393 8.30162 3.00376C8.60029 3.06349 8.62021 3.02367 8.42109 2.78473C8.16224 2.46614 7.64453 2.4064 7.64453 2.70508Z" fill="#171717"/>
<path fill-rule="evenodd" clip-rule="evenodd" d="M8.73956 7.8821C8.67982 8.00157 8.75947 8.02149 8.91876 7.96175C9.27718 7.82237 9.33691 7.68298 9.05815 7.68298C8.93868 7.68298 8.7993 7.76263 8.73956 7.8821Z" fill="#171717"/>
<path fill-rule="evenodd" clip-rule="evenodd" d="M8.44141 8.6587C8.44141 8.77817 8.54097 8.91755 8.64052 8.97729C8.75999 9.03702 8.83964 8.95737 8.83964 8.79808C8.83964 8.61887 8.75999 8.47949 8.64052 8.47949C8.54097 8.47949 8.44141 8.55914 8.44141 8.6587Z" fill="#171717"/>
<path fill-rule="evenodd" clip-rule="evenodd" d="M3.18428 11.7251C3.24401 11.9242 3.36348 12.0238 3.42321 11.964C3.48295 11.9043 3.42322 11.745 3.28384 11.6056C3.08472 11.4264 3.06481 11.4463 3.18428 11.7251Z" fill="#171717"/>
<path fill-rule="evenodd" clip-rule="evenodd" d="M22.7787 11.6653C22.6194 11.7649 22.5597 11.9042 22.6194 11.9839C22.8583 12.2029 23.6548 12.2029 23.8141 11.964C24.0331 11.6852 24.0132 11.4662 23.7544 11.4662C23.6548 11.4662 23.615 11.5458 23.6747 11.6653C23.834 11.9242 23.5154 11.9242 23.2566 11.6653C23.157 11.5657 22.9579 11.5458 22.7787 11.6653Z" fill="#171717"/>
<path fill-rule="evenodd" clip-rule="evenodd" d="M25.5654 12.6609C25.5654 12.7605 25.7048 12.86 25.884 12.86C26.0433 12.86 26.123 12.7605 26.0632 12.6609C26.0035 12.5414 25.8641 12.4618 25.7446 12.4618C25.6451 12.4618 25.5654 12.5414 25.5654 12.6609Z" fill="#171717"/>
<path d="M17.202 13.2583C17.312 13.2583 17.4012 13.1692 17.4012 13.0592C17.4012 12.9493 17.312 12.8601 17.202 12.8601C17.0921 12.8601 17.0029 12.9493 17.0029 13.0592C17.0029 13.1692 17.0921 13.2583 17.202 13.2583Z" fill="#171717"/>
<path fill-rule="evenodd" clip-rule="evenodd" d="M25.9639 13.3379C25.9639 13.3777 26.1232 13.537 26.3223 13.6764C26.621 13.9352 26.6409 13.9154 26.382 13.5968C26.1232 13.2782 25.9639 13.1786 25.9639 13.3379Z" fill="#171717"/>
<path fill-rule="evenodd" clip-rule="evenodd" d="M25.7643 17.4397C25.4258 17.6587 25.605 17.8977 26.043 17.7981C26.2222 17.7583 26.282 17.6388 26.2023 17.4995C26.1028 17.3402 25.9435 17.3202 25.7643 17.4397Z" fill="#171717"/>
<path fill-rule="evenodd" clip-rule="evenodd" d="M4.6582 19.8291C4.6582 20.0482 4.75776 20.2274 4.87723 20.2274C4.97679 20.2274 5.01661 20.1278 4.95688 20.0283C4.89714 19.9088 4.93697 19.8291 5.03653 19.8291C5.156 19.8291 5.25556 19.7296 5.25556 19.63C5.25556 19.5106 5.11617 19.4309 4.95688 19.4309C4.79759 19.4309 4.6582 19.6101 4.6582 19.8291Z" fill="#171717"/>
<path fill-rule="evenodd" clip-rule="evenodd" d="M1.69118 25.1855C1.69118 25.2651 1.77083 25.4841 1.87039 25.7032C2.00977 26.0417 2.04959 26.0417 2.04959 25.743C2.0695 25.5638 2.2288 25.4045 2.42791 25.4045C2.60712 25.4045 2.9058 25.3049 3.06509 25.2054C3.28412 25.0461 3.14474 25.0063 2.52747 25.0461C2.04959 25.066 1.67127 25.1257 1.69118 25.1855Z" fill="#171717"/>
<path fill-rule="evenodd" clip-rule="evenodd" d="M3.06543 25.484C3.06543 25.5238 3.20481 25.6632 3.36411 25.8026C3.62296 26.0216 3.64287 26.0017 3.54331 25.7229C3.44375 25.4442 3.06543 25.265 3.06543 25.484Z" fill="#171717"/>
<path fill-rule="evenodd" clip-rule="evenodd" d="M2.26855 26.5195C2.26855 26.6788 2.36811 26.7585 2.46767 26.6987C2.58714 26.6191 2.62697 26.4797 2.56723 26.3801C2.38803 26.1014 2.26855 26.1611 2.26855 26.5195Z" fill="#171717"/>
<path fill-rule="evenodd" clip-rule="evenodd" d="M4.1599 29.3869C4.21964 29.4864 4.3192 29.586 4.37893 29.586C4.41876 29.586 4.45858 29.4864 4.45858 29.3869C4.45858 29.2674 4.35902 29.1877 4.23955 29.1877C4.13999 29.1877 4.10017 29.2674 4.1599 29.3869Z" fill="#171717"/>
<path fill-rule="evenodd" clip-rule="evenodd" d="M16.6055 37.6303C16.6055 37.6701 16.7847 37.7498 17.0037 37.8095C17.2227 37.8693 17.3621 37.8294 17.2825 37.7299C17.1829 37.5507 16.6055 37.471 16.6055 37.6303Z" fill="#171717"/>
<path fill-rule="evenodd" clip-rule="evenodd" d="M20.9857 40.3184C21.3043 40.9157 21.5831 41.0153 21.8818 40.6171C22.1804 40.179 21.9614 39.9401 21.2247 39.9401C20.8463 39.9401 20.8065 39.9998 20.9857 40.3184Z" fill="#171717"/>
<path d="M20.787 41.7321C20.897 41.7321 20.9861 41.6429 20.9861 41.533C20.9861 41.423 20.897 41.3339 20.787 41.3339C20.677 41.3339 20.5879 41.423 20.5879 41.533C20.5879 41.6429 20.677 41.7321 20.787 41.7321Z" fill="#171717"/>
</svg>
