<svg width="45" height="48" viewBox="0 0 45 48" fill="none" xmlns="http://www.w3.org/2000/svg">
<path fill-rule="evenodd" clip-rule="evenodd" d="M9.2642 0.894223C9.2642 0.993781 9.16464 1.03361 9.06508 0.973874C8.94561 0.894227 8.86596 0.914154 8.88587 1.01371C8.94561 1.39204 8.84605 1.47167 8.48764 1.27255C8.16905 1.11326 8.10931 1.13318 8.16905 1.43185C8.18896 1.61106 8.10931 1.90973 7.95002 2.06902C7.67125 2.38761 7.63143 3.30356 7.9102 3.14426C7.98984 3.08453 8.06949 3.14425 8.06949 3.28363C8.06949 3.46284 8.12922 3.46284 8.34825 3.28363C8.54737 3.12434 8.66684 3.10444 8.7664 3.24382C8.82614 3.36329 8.64693 3.56242 8.36817 3.7018C8.00975 3.86109 7.87037 4.06019 7.93011 4.27922C7.98984 4.47834 7.93011 4.67747 7.79073 4.7372C7.63143 4.79694 7.65134 4.87659 7.83055 5.01597C7.98984 5.11553 8.06949 5.49384 8.02967 5.97172C7.98984 6.50934 8.04958 6.72839 8.22878 6.68856C8.34825 6.66865 8.46772 6.74828 8.46772 6.86775C8.46772 7.00713 8.66684 7.04696 8.94561 6.96731C9.22437 6.90757 9.48322 6.9275 9.54296 7.02705C9.70225 7.28591 8.52746 7.42528 8.26861 7.16643C8.12922 7.02704 8.06949 7.04697 8.06949 7.20626C8.06949 7.34565 8.16905 7.4452 8.28852 7.4452C8.40799 7.4452 8.46772 7.6244 8.40799 7.84343C8.32834 8.18193 8.40799 8.24167 8.98543 8.24167C9.36375 8.24167 9.66243 8.32131 9.66243 8.44078C9.66243 8.65981 9.4434 8.69963 8.66684 8.65981C8.30843 8.6399 8.2487 8.67974 8.44781 8.79921C8.60711 8.91868 8.64693 9.09787 8.56728 9.23726C8.46772 9.39655 8.48764 9.4563 8.60711 9.37665C8.70667 9.297 8.98543 9.41646 9.20446 9.63549C9.4434 9.83461 9.66243 9.974 9.72217 9.91426C9.76199 9.85452 9.86155 9.97398 9.9412 10.1532C10.0408 10.412 9.96111 10.4718 9.48322 10.3921C8.94561 10.3125 8.90578 10.3523 9.08499 10.6908C9.20446 10.9099 9.42349 11.0094 9.60269 10.9497C9.76199 10.8899 10.0208 10.8302 10.1602 10.8302C10.2996 10.8302 10.4589 10.6709 10.4987 10.4917C10.5585 10.1731 10.6182 10.193 11.0164 10.5913C11.2554 10.8302 11.4943 11.0094 11.5341 10.9696C11.574 10.9497 11.6934 10.9895 11.7731 11.0692C11.8527 11.1687 11.7731 11.2284 11.6138 11.2284C11.4346 11.2284 11.1757 11.3877 11.0363 11.5669C10.7775 11.8656 10.7974 11.8855 11.2155 11.786C11.4943 11.7063 11.6138 11.7461 11.5142 11.8855C11.4346 12.005 11.5142 12.0448 11.7133 11.9652C12.4501 11.6864 11.9722 12.4232 11.2155 12.7617C10.6978 13.0006 10.4191 12.8015 10.8571 12.5227C10.9766 12.463 11.0563 12.3236 11.0563 12.2041C11.0563 12.1046 10.877 12.1245 10.658 12.2639C10.1602 12.5824 10.1602 12.8015 10.6182 13.14C11.116 13.5183 11.8129 13.4785 11.9125 13.0603C11.9921 12.7417 12.012 12.7417 12.0319 13.0603C12.0518 13.2993 12.1713 13.3789 12.4103 13.2993C12.6226 13.2329 12.616 13.2727 12.3903 13.4187C12.0718 13.6178 12.0718 13.6577 12.3903 13.9763C12.7089 14.2949 12.7089 14.3148 12.3903 14.3745C12.1912 14.4143 11.8925 14.2749 11.6934 14.0758C11.5142 13.8767 11.3748 13.7373 11.3948 13.7971C11.4346 13.8369 11.3549 13.9962 11.2355 14.1555C11.0563 14.3546 11.0762 14.4143 11.335 14.4143C11.5142 14.4143 11.6536 14.5338 11.6536 14.6931C11.6536 14.8524 11.793 15.0316 11.9722 15.0913C12.1713 15.171 12.231 15.3502 12.1514 15.609C12.0718 15.8679 12.1315 16.0471 12.3306 16.1267C12.7488 16.286 12.7288 16.6046 12.3306 16.6046C12.1514 16.6046 11.7532 16.8635 11.4545 17.1621C10.9965 17.6599 10.9567 17.7794 11.1757 18.098C11.3549 18.3369 11.5939 18.4166 11.9523 18.3568C12.231 18.2971 12.4501 18.3369 12.4501 18.4166C12.4501 18.5161 11.9921 18.5958 11.4346 18.5958C10.7974 18.5958 10.4788 18.6754 10.5585 18.7949C10.6381 18.9144 10.877 18.9542 11.116 18.8746C11.3549 18.8148 11.4943 18.8148 11.3948 18.8945C11.2753 19.0338 11.0164 19.0936 10.1801 19.1732C10.1005 19.1931 10.0607 19.4321 10.1204 19.7108C10.2 20.1688 10.1602 20.2086 9.72217 20.129C9.46331 20.0892 9.30402 20.0892 9.36375 20.1489C9.42349 20.2086 9.2642 20.4675 9.04517 20.7064L8.60711 21.1644L9.28411 21.0848C9.90137 21.0051 9.92128 21.025 9.58278 21.2839C9.38367 21.4432 9.12481 21.5228 9.04517 21.4631C8.94561 21.4033 8.86596 21.5029 8.86596 21.702C8.86596 21.921 8.98543 22.0007 9.2642 21.9211C9.76199 21.8016 9.7819 22.0405 9.32393 22.3989C9.12481 22.5383 9.02525 22.5781 9.1049 22.4985C9.18455 22.3989 9.02525 22.1998 8.74649 22.0604C8.30843 21.8215 8.18896 21.8414 7.9102 22.1002C7.61152 22.3989 7.63143 22.4188 8.02967 22.2994C8.26861 22.2197 8.46772 22.2396 8.46772 22.3193C8.46772 22.6379 8.02967 22.9565 7.7509 22.837C7.55178 22.7573 7.51196 22.837 7.59161 23.056C7.69117 23.295 7.59161 23.3746 7.25311 23.3945C6.99425 23.4144 6.69558 23.4144 6.59602 23.3945C6.49646 23.3746 6.53628 23.4941 6.67567 23.6733C6.83496 23.8525 7.11372 23.952 7.31284 23.8923C7.77081 23.7927 7.69117 24.1512 7.21328 24.4498C6.95443 24.6091 6.81505 24.5892 6.67567 24.3702C6.51637 24.1113 6.45664 24.1113 6.23761 24.3503C6.03849 24.5494 6.03849 24.5892 6.23761 24.4897C6.35708 24.41 6.47655 24.3901 6.47655 24.4698C6.47655 24.5295 6.29734 24.649 6.07831 24.7286C5.83937 24.8083 5.75973 24.9676 5.83937 25.1069C5.95884 25.3061 6.11814 25.2861 6.53628 25.0671C6.91461 24.8879 7.11373 24.868 7.19337 25.0074C7.27302 25.1269 7.25311 25.1667 7.13364 25.1069C6.93452 24.9875 6.45664 25.4454 6.07831 26.1423C5.8792 26.5207 5.81946 26.5406 5.56061 26.2618C5.3814 26.1025 5.14246 25.9631 5.02299 25.9631C4.8637 25.9631 4.8637 26.0229 5.02299 26.1822C5.30175 26.4609 4.96325 27.357 4.60484 27.357C4.46546 27.357 4.20661 27.6158 4.0274 27.9543C3.82828 28.2729 3.60926 28.5318 3.52961 28.5318C3.0119 28.4521 2.85261 28.5517 3.09155 28.8503C3.31058 29.1092 3.25084 29.149 2.81279 29.149C2.53402 29.149 2.29508 29.2287 2.29508 29.3481C2.29508 29.4477 2.1557 29.5473 1.9964 29.5473C1.83711 29.5473 1.69773 29.6468 1.69773 29.7663C1.69773 29.8857 1.8172 29.9057 1.93667 29.8061C2.07605 29.7265 2.51411 29.6667 2.89243 29.6468C3.46987 29.6468 3.58934 29.5871 3.54952 29.2486C3.52961 28.9698 3.64908 28.8503 3.94776 28.8304C4.1867 28.8105 4.56502 28.7508 4.78405 28.6911C5.00308 28.6313 5.26193 28.5716 5.34158 28.5716C5.44114 28.5517 5.44114 28.4521 5.36149 28.3127C5.28184 28.1733 5.30175 28.1534 5.44114 28.2331C5.83937 28.472 5.7199 28.691 5.14246 28.8503C4.62475 28.9897 4.62475 29.0096 4.98317 29.149C5.34158 29.3083 5.34158 29.3282 4.88361 29.3481C4.60484 29.388 4.30617 29.388 4.20661 29.368C4.12696 29.3481 3.94776 29.4676 3.80837 29.6269C3.58934 29.9057 2.93226 30.0849 1.91676 30.1247C1.61808 30.1446 1.49861 30.2442 1.55834 30.4035C1.73755 30.8614 1.39905 31.1999 0.980903 30.9809C0.702139 30.8415 0.503021 30.8813 0.244168 31.1402C-0.07442 31.4588 -0.07442 31.4986 0.204345 31.6181C0.38355 31.6778 0.463197 31.8172 0.403462 31.9367C0.323815 32.0561 0.423374 32.0761 0.622492 31.9964C0.861433 31.9168 0.921168 31.9367 0.821609 32.096C0.741962 32.2353 0.781786 32.3349 0.921168 32.3349C1.08046 32.3349 1.04064 32.4544 0.841521 32.6933C0.403462 33.1712 0.403462 33.5495 0.841521 33.3902C1.06055 33.3106 1.12029 33.3305 1.02073 33.4898C0.94108 33.6292 0.980903 33.7287 1.08046 33.7287C1.19993 33.7287 1.29949 33.6292 1.29949 33.5097C1.29949 33.4101 1.37914 33.3504 1.4787 33.4101C1.57826 33.4699 1.75746 33.3902 1.89684 33.2309C2.03623 33.0716 2.25526 32.9322 2.37473 32.9322C2.4942 32.9322 2.45437 33.0318 2.29508 33.1314C2.03623 33.2907 2.05614 33.3703 2.37473 33.669C2.57384 33.8681 2.69331 33.9079 2.61367 33.7686C2.45437 33.5097 2.6734 33.45 2.99199 33.6889C3.25084 33.8681 3.3504 34.3858 3.09155 34.2265C2.99199 34.1668 2.89243 34.2066 2.89243 34.3261C2.89243 34.4455 3.09155 34.6247 3.3504 34.7243C3.76855 34.8836 3.74864 34.9035 3.21102 34.9035C2.73314 34.9234 2.6734 34.9632 2.89243 35.2221C3.03181 35.4013 3.09155 35.5805 3.03181 35.6602C2.95217 35.7199 3.0119 35.919 3.15129 36.0783C3.3504 36.3372 3.33049 36.377 3.09155 36.2376C2.93226 36.158 2.97208 36.2177 3.1712 36.3969C3.37031 36.5562 3.64908 36.7354 3.76855 36.7752C3.88802 36.8151 3.90793 36.9345 3.82828 37.0341C3.74864 37.1336 3.58934 37.0739 3.48978 36.9146C3.19111 36.4367 3.27076 36.9743 3.58934 37.512C3.78846 37.8704 3.86811 37.9102 3.88802 37.6713C3.88802 37.4921 3.96767 37.273 4.08714 37.2133C4.1867 37.1535 4.22652 37.2133 4.16678 37.3726C4.10705 37.5717 4.22652 37.6912 4.56502 37.7509C4.84378 37.8106 5.02299 37.7708 4.96326 37.6912C4.90352 37.5916 4.98317 37.512 5.16237 37.512C5.32167 37.512 5.48096 37.6314 5.5407 37.7509C5.58052 37.8903 5.69999 37.9301 5.79955 37.8505C6.01858 37.6314 5.30175 37.0739 5.02299 37.2531C4.90352 37.3129 4.88361 37.273 4.96326 37.1536C5.18228 36.7951 5.8792 36.8549 5.8792 37.2332C5.8792 37.4323 6.01858 37.512 6.31725 37.4721C6.8947 37.3925 7.01417 36.9146 6.49646 36.7752L6.07831 36.6757L6.49646 36.2973C6.71549 36.0982 7.03408 35.9987 7.19337 36.0584C7.5717 36.1978 7.55178 36.3571 7.15355 36.2774C6.95443 36.2376 6.77523 36.3172 6.75531 36.4168C6.71549 36.5363 6.99425 36.6159 7.39249 36.6358C7.83055 36.6358 7.98984 36.596 7.83055 36.4965C7.65134 36.377 7.71108 36.3172 8.02967 36.3172C8.54737 36.3172 8.64693 35.919 8.12923 35.919C7.79073 35.8991 7.81064 35.8792 8.14914 35.6203C8.54737 35.3217 8.96552 35.4013 8.74649 35.7597C8.66684 35.8792 8.72658 35.9389 8.88587 35.8792C9.04517 35.8195 9.16464 35.6602 9.16464 35.5208C9.16464 35.3615 9.4434 35.2221 9.86155 35.1624C10.2399 35.1226 10.5983 35.0031 10.6182 34.9035C10.658 34.804 10.7775 34.7641 10.8571 34.8239C10.9567 34.8836 11.0762 34.8438 11.1558 34.7243C11.2155 34.6247 11.1359 34.5252 10.9567 34.5252C10.7775 34.5252 10.6978 34.4256 10.7576 34.3062C10.8372 34.1867 11.0363 34.1469 11.1956 34.2265C11.4346 34.3062 11.4545 34.2664 11.2952 34.0672C11.116 33.8482 11.1558 33.8084 11.4545 33.8283C11.8925 33.8482 12.251 34.127 11.8527 34.127C11.7133 34.127 11.6337 34.1867 11.6934 34.2464C11.7731 34.3062 12.0319 34.2464 12.2709 34.107L12.7288 33.8681L12.251 33.669C11.9722 33.5694 11.5341 33.4898 11.2554 33.5097C10.9766 33.5296 10.5186 33.4699 10.2598 33.3504C9.82172 33.1712 9.84164 33.1513 10.6182 33.1513C11.1359 33.1314 11.4346 33.0517 11.3549 32.9322C11.2952 32.8128 11.335 32.7331 11.4346 32.7331C11.554 32.7331 11.6536 32.8327 11.6536 32.9522C11.6536 33.0915 11.8527 33.1314 12.1514 33.0916C12.5098 33.0119 12.5895 33.0517 12.47 33.211C12.3306 33.3703 12.5895 33.43 13.3461 33.4499C14.0364 33.4499 14.2421 33.3305 13.9634 33.0916L13.5452 32.7331L14.1227 32.8327C14.4413 32.8725 14.8793 32.8327 15.0784 32.7132C15.3771 32.5539 15.5563 32.5738 15.855 32.8526C16.074 33.0517 16.2333 33.0916 16.2333 32.9721C16.2333 32.8327 16.1537 32.7331 16.0342 32.7331C15.9346 32.7331 15.8351 32.6734 15.8351 32.5739C15.8351 32.4942 16.2333 32.4345 16.7112 32.4345C17.1891 32.4345 17.5475 32.4942 17.5077 32.5739C17.4479 32.6734 17.5276 32.7331 17.667 32.7132C18.0254 32.6933 18.7621 32.3747 18.5232 32.3349C17.9258 32.2353 17.5873 32.1557 17.4678 32.0561C17.2886 31.8769 17.9457 31.9168 18.4833 32.1159C18.8418 32.2553 18.9612 32.2353 18.9612 32.0362C18.9612 31.8769 18.9015 31.7973 18.8218 31.8371C18.7422 31.8769 18.6825 31.7973 18.6825 31.638C18.6825 31.4787 18.782 31.419 18.8816 31.4787C19.001 31.5584 19.0409 31.4787 18.9612 31.2796C18.8218 30.9013 19.0409 30.8415 19.3395 31.1402C19.4988 31.2995 19.6382 31.2597 19.8373 31.0207C20.0763 30.7021 20.0763 30.6822 19.8174 30.7818C19.5984 30.8614 19.4988 30.7818 19.4988 30.5229C19.4988 30.2043 19.5785 30.2243 20.0564 30.6822C20.355 30.9809 20.5741 31.2597 20.5143 31.3194C20.375 31.4389 21.6294 32.0163 21.9082 31.9566C22.0276 31.9367 22.0077 32.0163 21.8683 32.1557C21.6692 32.3548 21.729 32.4942 22.1272 32.8725C22.406 33.1314 22.5852 33.4699 22.5453 33.6292C22.4856 33.7685 22.5653 34.0075 22.7245 34.127C23.083 34.4455 23.083 34.6845 22.6847 34.7641C22.4259 34.804 22.4458 34.8836 22.7843 35.2619C23.0232 35.5208 23.1228 35.7597 23.0033 35.8195C22.7843 35.9588 22.7245 36.377 22.9635 36.2575C23.0431 36.1978 23.2821 36.2376 23.5011 36.3372C23.8595 36.4765 23.8595 36.4965 23.4015 36.5164L22.9038 36.5363L23.3816 36.9146C23.6405 37.1336 23.7799 37.3128 23.7002 37.3128C23.6206 37.3128 23.6604 37.4522 23.7998 37.6115C23.9392 37.7708 23.9989 38.1093 23.9193 38.408C23.8396 38.7067 23.8794 38.9058 23.9989 38.9058C24.1184 38.9058 24.1582 38.9854 24.0985 39.1049C24.0387 39.2045 24.0785 39.304 24.198 39.304C24.3175 39.304 24.3971 39.5031 24.3573 39.7421C24.3175 40.0209 24.3971 40.1801 24.5564 40.1403C24.6759 40.1204 24.7954 40.2797 24.7954 40.4987C24.7954 40.7377 24.9348 40.8969 25.1538 40.9169C25.4525 40.9169 25.4525 40.9368 25.114 41.0762C24.7555 41.2155 24.7555 41.2355 25.0741 41.3549C25.2733 41.4346 25.3927 41.6138 25.333 41.7731C25.2334 42.0518 25.5321 42.5297 26.3087 43.3262C26.5476 43.5851 26.5874 43.6846 26.4082 43.6846C26.1892 43.6846 26.1892 43.7443 26.3883 43.9833C26.5277 44.1426 26.7666 44.282 26.906 44.282C27.0653 44.282 27.1848 44.3815 27.1848 44.501C27.1848 44.6005 27.2644 44.6603 27.364 44.5806C27.4635 44.5209 27.6228 44.5806 27.7025 44.7001C27.7821 44.8594 27.7622 44.8793 27.6228 44.7997C27.4635 44.7001 27.3839 44.7997 27.3839 45.0585C27.3839 45.3771 27.5034 45.4767 27.8817 45.4767C28.3596 45.4767 28.3795 45.4368 28.1605 45.0187C28.0211 44.7798 27.9613 44.5408 28.0012 44.4811C28.041 44.4412 27.802 44.2023 27.4436 43.9833C27.0852 43.7642 26.8065 43.5253 26.7865 43.4258C26.7865 43.1868 27.3441 43.2665 27.4436 43.5253C27.5233 43.6846 27.5631 43.6647 27.5631 43.4457C27.583 43.2665 27.4635 43.0873 27.3441 43.0275C27.2047 42.9877 27.3242 42.9081 27.6228 42.8483C27.9215 42.7886 28.1405 42.8085 28.1007 42.8682C28.0012 43.0076 28.5189 43.5054 28.718 43.4656C28.7976 43.4656 28.8972 43.5651 28.9569 43.7045C28.9967 43.8638 28.8972 43.9036 28.6582 43.824C28.3596 43.7045 28.3795 43.7642 28.7578 44.0828C29.0366 44.3218 29.176 44.6005 29.0963 44.7997C29.0366 44.9589 29.156 45.2776 29.3751 45.5165C29.5941 45.7554 29.7136 45.9944 29.6737 46.074C29.5145 46.3329 30.5499 46.8904 31.187 46.9103C31.5455 46.9302 31.9039 47.0895 32.0632 47.3285C32.3419 47.7267 32.3618 47.7267 32.7402 47.3683C33.1981 46.97 33.1384 46.6913 32.6008 46.7709C32.4216 46.7908 32.3618 46.7709 32.5012 46.7311C32.9194 46.5917 32.8995 45.7952 32.4813 45.2974C32.2424 45.0386 32.1627 44.8793 32.3021 44.959C32.4216 45.0187 32.5809 44.9988 32.6605 44.8793C32.7202 44.7797 32.6605 44.6802 32.5211 44.6802C32.322 44.6802 32.3419 44.6205 32.561 44.4612C32.78 44.3019 32.7999 44.2222 32.6207 44.1426C32.4813 44.1028 32.3618 43.9235 32.3618 43.7643C32.3618 43.605 32.2225 43.4855 32.0432 43.4855C31.884 43.4855 31.8043 43.3859 31.864 43.2864C31.9238 43.1669 31.8043 42.8483 31.5853 42.5695C31.0676 41.9125 31.0078 41.3151 31.4857 41.7133C31.7446 41.9124 31.8242 41.9125 31.9835 41.6735C32.2623 41.2355 32.2025 41.0961 31.6251 40.8571C31.207 40.6978 31.1472 40.6182 31.3862 40.5585C31.5853 40.5186 31.7645 40.2996 31.8242 40.0806C31.9039 39.762 31.8441 39.7022 31.5654 39.8018C31.0875 39.9611 30.8884 39.3837 31.3264 39.1248C31.6251 38.9456 31.6251 38.9058 31.2667 38.8859C31.0477 38.866 30.7888 38.866 30.6892 38.8859C30.5897 38.9058 30.5698 38.5673 30.6295 38.1093C30.7092 37.492 30.6494 37.2531 30.3906 37.054C29.9127 36.7354 29.6737 35.7 30.0122 35.5009C30.2114 35.3615 30.1715 35.2619 29.833 35.023C29.3153 34.6646 29.2158 34.2265 29.6737 34.3858C29.9127 34.4854 29.9127 34.4057 29.7534 33.9677C29.6339 33.669 29.5543 33.4101 29.5543 33.3703C29.5742 33.3504 29.5742 33.3106 29.5543 33.2708C29.4149 32.7929 29.4547 32.534 29.6937 32.534C29.853 32.534 30.0322 32.3946 30.0919 32.2353C30.1715 32.076 30.291 31.9765 30.3707 32.0362C30.4503 32.076 30.51 31.9367 30.4901 31.6977C30.4901 31.4588 30.3507 31.2398 30.1915 31.18C30.0322 31.1203 29.9724 31.18 30.0521 31.2995C30.1118 31.419 30.0919 31.5583 29.9923 31.6181C29.8928 31.6977 29.833 31.5982 29.853 31.419C29.9127 31.0406 30.3507 30.742 30.6693 30.8614C30.8087 30.9212 30.968 30.8017 31.0477 30.6225C31.2269 30.1446 31.0477 30.045 30.6693 30.4234C30.4901 30.6026 30.2512 30.6822 30.1317 30.6225C30.0322 30.5428 30.2114 30.3636 30.5499 30.2043C30.8884 30.0251 31.1671 29.826 31.1671 29.7265C31.1671 29.6269 31.3065 29.5473 31.4857 29.5473C31.645 29.5473 31.7247 29.4477 31.6649 29.3481C31.6052 29.2287 31.6848 29.149 31.8441 29.149C32.0233 29.149 32.1627 28.9698 32.1627 28.7309C32.1627 28.5118 32.2424 28.3725 32.3419 28.4521C32.5211 28.5517 32.8596 28.2132 32.8596 27.8946C32.8596 27.8149 33.0787 27.6357 33.3375 27.4964C33.6163 27.357 33.8751 27.1379 33.915 26.9786C33.9946 26.7596 33.8552 26.7198 33.3574 26.8393C32.9791 26.899 32.7402 26.899 32.8198 26.8393C32.8995 26.7596 32.8596 26.6003 32.7601 26.4609C32.6207 26.3016 32.6605 26.222 32.8596 26.222C33.0189 26.222 33.0986 26.3016 33.0388 26.4012C32.9194 26.5804 33.457 26.6003 34.0942 26.441C34.353 26.3614 34.4924 26.2419 34.4327 26.1423C34.3729 26.0428 34.4725 25.9631 34.6318 25.9631C35.2291 25.9631 34.9504 25.5848 34.2535 25.4454C33.3574 25.2861 33.5765 24.8879 34.4725 25.0273C34.8707 25.087 35.1495 25.0671 35.1495 24.9476C35.1495 24.8282 35.2291 24.7883 35.3088 24.8481C35.4083 24.9078 35.7269 24.7286 36.0654 24.4698C36.384 24.2109 36.5234 23.9919 36.4039 23.972C35.946 23.972 36.1252 23.5936 36.6429 23.4543C36.9216 23.3945 37.0809 23.2551 37.0212 23.1357C36.9615 23.0361 37.1805 22.6976 37.519 22.3989C37.977 22.0007 38.0765 21.8016 37.8973 21.6224C37.6982 21.4233 37.9371 21.2839 38.9925 21.0648C39.0721 21.0449 39.1717 21.025 39.2314 21.0051C39.2911 21.0051 39.2513 20.806 39.1318 20.587C38.9526 20.2684 38.9725 20.1887 39.2314 20.1688C39.3907 20.1489 39.6296 20.1091 39.7292 20.0892C39.8487 20.0693 40.0279 20.0294 40.1473 20.0095C40.2469 20.0095 40.2867 19.91 40.227 19.7905C40.1672 19.671 40.2469 19.6511 40.4062 19.7108C40.5854 19.7706 40.7447 19.7307 40.7447 19.6113C40.7646 19.4918 40.7845 19.2927 40.8044 19.1533C40.8044 19.0339 40.9637 18.8945 41.123 18.8546C41.3619 18.775 41.3619 18.7949 41.1628 18.9542C40.9438 19.1135 40.9438 19.1533 41.1628 19.233C41.4615 19.3524 41.9593 18.9144 41.7602 18.6953C41.6805 18.6157 41.8398 18.6157 42.1186 18.6754C42.5965 18.8148 42.6164 18.8148 42.2182 18.4962L41.8199 18.1577L42.2182 18.2374C42.4372 18.2573 42.8354 18.1378 43.1142 17.9387C43.5323 17.64 43.5722 17.5604 43.3133 17.4011C43.0545 17.2219 43.0545 17.202 43.3133 17.1821C43.4726 17.1621 43.7514 17.1621 43.9505 17.1821C44.1297 17.202 44.3288 17.1223 44.4085 17.0028C44.4682 16.9033 44.3885 16.7838 44.2292 16.7838C43.6319 16.7241 43.5522 16.7042 43.373 16.525C43.2735 16.4254 43.3133 16.4055 43.4726 16.4851C43.5921 16.5648 43.7315 16.525 43.7315 16.4254C43.7912 15.9077 43.8111 15.8281 43.9704 15.6887C44.3487 15.3103 44.05 15.1909 43.6518 15.5692C43.3929 15.8081 43.1341 16.0073 43.0544 16.0073C42.8155 16.0073 43.1938 15.3103 43.6916 14.8325C44.0235 14.5271 44.0434 14.4077 43.7514 14.4741C43.5124 14.5338 43.3531 14.494 43.4129 14.4143C43.4726 14.3148 43.3929 14.1953 43.2735 14.1555C43.1341 14.0957 43.1739 14.036 43.3929 14.036C43.612 14.0161 43.7115 13.9564 43.6319 13.8767C43.4328 13.6577 42.9151 13.6377 42.9151 13.8369C42.9151 13.9364 42.6761 13.9165 42.3974 13.817C42.1186 13.6975 41.8 13.6776 41.6805 13.7373C41.5412 13.8369 41.5212 13.7771 41.6009 13.6377C41.7004 13.4984 41.8996 13.4386 42.0589 13.4984C42.477 13.6577 42.8354 13.4187 42.4969 13.1997C42.2779 13.0603 42.3177 13.0205 42.6164 13.0205C42.8819 13.0072 42.8885 12.9077 42.6363 12.7218C42.4372 12.5625 42.1584 12.4829 42.039 12.5625C41.9195 12.6223 41.8797 12.6223 41.9593 12.5227C42.039 12.443 42.019 12.224 41.8797 12.0846C41.7005 11.8656 41.7005 11.766 41.9394 11.6267C42.1385 11.4873 42.1584 11.3877 41.9991 11.2284C41.8199 11.0492 41.7005 11.0691 41.5013 11.2882C41.2823 11.5271 41.1429 11.5271 40.6053 11.3081C40.2668 11.1687 39.9283 11.089 39.8686 11.1488C39.8088 11.2085 39.7889 11.109 39.8088 10.8899C39.8487 10.651 40.0079 10.5514 40.3066 10.5913C40.5257 10.6311 40.7248 10.5713 40.7248 10.4519C40.7248 10.1532 40.2867 10.0736 39.55 10.2727C39.1119 10.4121 38.8132 10.3921 38.6739 10.2527C38.3951 9.97399 38.0765 9.97399 38.2557 10.2527C38.3354 10.412 38.196 10.432 37.7579 10.3324C37.1606 10.2129 37.0212 10.3324 37.1207 10.8899C37.1407 10.9895 37.061 11.0094 36.9615 10.9497C36.8619 10.87 36.7225 10.9098 36.6429 11.0293C36.5632 11.1687 36.4039 11.1687 36.1252 11.0293C35.7269 10.8103 35.6672 10.9298 35.7269 11.9253C35.7269 12.2041 35.707 12.2439 35.6075 12.0249C35.3685 11.3877 35.1296 11.2284 34.8508 11.4873C34.572 11.7461 34.6716 12.2838 34.9703 12.1046C35.0698 12.0448 35.0897 11.9054 35.03 11.786C34.9504 11.6466 34.9902 11.6267 35.1296 11.7063C35.4282 11.9054 35.0897 12.3435 34.5322 12.5227C34.3132 12.6023 34.2136 12.7417 34.2933 12.8811C34.3928 13.0603 34.353 13.0603 34.134 12.8811C33.7955 12.6024 33.3176 12.8413 33.3972 13.2196C33.4371 13.3789 33.3773 13.4984 33.2579 13.5183C32.7202 13.5581 31.9636 13.8369 31.9636 13.9962C31.9636 14.0957 31.8043 14.1356 31.6052 14.0957C31.426 14.036 31.0676 14.1754 30.8286 14.3944C30.5897 14.6134 30.0322 14.8524 29.5941 14.932C29.156 15.0117 28.8175 15.1311 28.8773 15.1909C28.9171 15.2705 28.6981 15.2904 28.3596 15.2506C28.0211 15.2108 27.7821 15.2506 27.7821 15.39C27.7821 15.5095 27.6228 15.5294 27.364 15.4497C26.8065 15.2307 25.552 15.39 25.7312 15.6688C25.8109 15.8081 25.7312 15.828 25.4724 15.7285C24.9148 15.5095 23.9989 15.4497 23.9989 15.6489C23.9989 15.7484 23.76 15.6887 23.4613 15.5493C23.1427 15.39 22.7843 15.3104 22.6648 15.3502C22.5254 15.4099 22.406 15.3502 22.406 15.2506C22.406 15.1312 22.0276 14.9918 21.5697 14.9121C21.0918 14.8325 20.4347 14.5935 20.0962 14.3944C19.7577 14.1953 19.2798 14.0161 19.0409 14.0161C18.782 14.0161 18.6227 13.8966 18.6227 13.6577C18.6227 13.4785 18.2046 13.0802 17.7068 12.7617C17.1692 12.4431 16.8307 12.1046 16.8904 11.9652C17.0099 11.6665 16.532 10.7107 16.293 10.7705C16.2134 10.8103 16.1338 10.7107 16.1138 10.5714C16.0541 9.91427 16.0143 9.81469 15.8152 9.95407C15.6559 10.0337 15.636 9.89436 15.7156 9.47621C15.8152 9.07798 15.7554 8.79921 15.5563 8.58018C15.3771 8.40098 15.2377 8.1222 15.2377 7.94299C15.2377 7.76378 15.1382 7.68414 15.0386 7.74387C14.9191 7.82352 14.8793 7.98282 14.959 8.10229C15.0187 8.24168 14.8793 8.12219 14.6603 7.86334C14.4213 7.60449 14.282 7.34563 14.3417 7.26599C14.4014 7.20625 14.5408 7.2859 14.6404 7.4452C14.7997 7.70405 14.8395 7.68414 14.9191 7.4452C15.0585 7.06687 14.9789 6.66865 14.6802 6.09121C14.4612 5.7328 14.4811 5.65314 14.72 5.65314C14.8992 5.65314 14.9789 5.51376 14.939 5.2549C14.8992 5.03587 14.939 4.85667 15.0585 4.85667C15.1581 4.85667 15.2377 4.75711 15.2377 4.65755C15.2377 4.53808 15.0585 4.45843 14.8594 4.45843C14.6404 4.45843 14.4014 4.35888 14.3218 4.23941C14.2222 4.08011 14.1426 4.08011 14.043 4.25931C13.9435 4.41861 13.8638 4.3987 13.7643 4.15976C13.6647 3.88099 13.7443 3.84117 14.2421 3.96064C14.6205 4.04029 14.8395 4.02037 14.8395 3.88099C14.8395 3.76152 14.7399 3.66196 14.6205 3.66196C14.5209 3.66196 14.4811 3.58231 14.5408 3.46284C14.6205 3.34337 14.5209 3.32348 14.3218 3.40312C14.0629 3.50268 14.0231 3.44295 14.1426 3.10445C14.2421 2.76595 14.1824 2.66637 13.8837 2.66637C13.6647 2.66637 13.3859 2.52699 13.2465 2.3677C12.928 1.98937 12.6492 2.16859 12.6691 2.72612C12.6691 3.12435 12.689 3.14425 12.8284 2.78584C12.928 2.50708 13.0275 2.46726 13.1271 2.64647C13.2266 2.78585 13.2266 2.94515 13.1669 3.00489C13.1072 3.06462 13.147 3.24383 13.2665 3.40312C13.4457 3.60224 13.4258 3.66196 13.1669 3.66196C12.9678 3.66196 12.8881 3.5624 12.9479 3.46284C13.0076 3.34337 12.9877 3.26373 12.8881 3.26373C12.6293 3.26373 12.4103 3.84118 12.5695 4.10004C12.6492 4.19959 12.4899 4.17967 12.231 4.04029C11.9722 3.90091 11.6735 3.80135 11.5939 3.82127C11.4943 3.84118 11.4943 3.76153 11.554 3.64206C11.6337 3.52258 11.8527 3.46285 12.0518 3.52259C12.47 3.62215 12.47 3.04471 12.0518 2.90533C11.9125 2.84559 11.8527 2.90532 11.9324 3.0447C12.0319 3.18408 11.8925 3.26373 11.574 3.26373C10.8173 3.26373 10.9368 2.92522 11.7333 2.78584C12.2908 2.68628 12.4501 2.54691 12.5496 2.04911C12.6492 1.63097 12.7687 1.47167 12.9678 1.55132C13.1271 1.61106 13.2465 1.57123 13.2465 1.47167C13.2465 1.3522 12.9678 1.29248 12.6094 1.31239C12.2709 1.3323 11.9523 1.25265 11.9125 1.13318C11.8527 0.993796 11.7133 0.934046 11.554 0.993781C11.4147 1.05352 11.116 1.01369 10.897 0.894223C10.5983 0.734928 10.4589 0.734943 10.3992 0.934061C10.3195 1.11327 10.2598 1.11327 10.0408 0.914154C9.72217 0.615477 9.2642 0.595546 9.2642 0.894223ZM10.0009 1.55132C9.94119 1.71061 10.1005 1.90973 10.3793 2.04911C10.9766 2.30797 11.116 2.32787 10.9567 2.08893C10.897 1.98937 10.9368 1.84999 11.0563 1.77034C11.1757 1.71061 11.2554 1.85 11.2554 2.12877C11.2554 2.527 11.1757 2.58674 10.658 2.50709C10.3394 2.46727 10.1204 2.34779 10.1801 2.24823C10.2399 2.14867 10.1403 2.06902 9.98102 2.06902C9.80181 2.06902 9.66243 1.96946 9.66243 1.8699C9.66243 1.73052 9.54296 1.73052 9.28411 1.8699C8.78631 2.12876 8.66684 2.12876 8.66684 1.85C8.66684 1.75044 8.74649 1.6907 8.84605 1.75044C8.94561 1.81017 9.06508 1.73052 9.14472 1.57123C9.20446 1.41193 9.4434 1.27255 9.68234 1.27255C9.96111 1.27255 10.0607 1.37211 10.0009 1.55132ZM8.4279 2.40754C8.22878 2.44736 8.06949 2.58674 8.06949 2.70621C8.06949 2.82568 8.00975 2.88542 7.95002 2.80577C7.7509 2.60665 8.06949 2.26813 8.4279 2.28805C8.72658 2.30796 8.72658 2.32789 8.4279 2.40754ZM9.98102 3.38319C9.54296 3.60222 9.06508 3.5425 9.06508 3.24382C9.06508 3.14426 9.20446 3.06461 9.36375 3.06461C9.52305 3.06461 9.64252 3.00489 9.64252 2.90533C9.56287 2.48718 9.70225 2.42743 10.0208 2.78584C10.3793 3.14425 10.3793 3.16416 9.98102 3.38319ZM10.658 3.5425C10.658 3.58232 10.4788 3.66197 10.2598 3.72171C10.0408 3.78144 9.86155 3.74161 9.86155 3.64206C9.86155 3.5425 10.0408 3.46284 10.2598 3.46284C10.4788 3.46284 10.658 3.50267 10.658 3.5425ZM10.2 4.47834C10.0806 4.89649 10.1403 5.0558 10.6381 6.01156C10.7775 6.27041 10.8372 6.52927 10.7775 6.58901C10.6381 6.7483 10.2399 6.44961 10.3593 6.25049C10.4191 6.17084 10.3195 6.05137 10.1602 5.97172C10.0009 5.91199 9.7819 6.03147 9.68234 6.21068C9.56287 6.38988 9.46331 6.44962 9.46331 6.31024C9.46331 6.19076 9.66243 5.9319 9.92128 5.7527C10.2996 5.49384 10.3195 5.4142 10.0607 5.2549C9.64252 4.99605 9.60269 4.0602 10.0009 4.0602C10.22 4.0602 10.2797 4.17966 10.2 4.47834ZM9.06508 5.83235C9.06508 5.93191 8.88587 6.05138 8.66684 6.11112C8.22878 6.23059 8.10931 5.95183 8.52746 5.79253C8.90578 5.63324 9.06508 5.63323 9.06508 5.83235ZM11.1956 7.68415C11.1359 7.84345 11.0762 7.78369 11.0762 7.56466C11.0563 7.34563 11.116 7.22618 11.1757 7.30582C11.2355 7.36556 11.2554 7.54477 11.1956 7.68415ZM15.3771 8.75937C15.3174 8.8191 15.1382 8.83903 14.9988 8.7793C14.8395 8.71956 14.8992 8.65981 15.1183 8.65981C15.3373 8.6399 15.4568 8.69963 15.3771 8.75937ZM16.6315 11.5271C16.6315 11.6864 16.5917 11.8258 16.5519 11.8258C16.5121 11.8258 16.4324 11.6864 16.3528 11.5271C16.293 11.3678 16.3329 11.2284 16.4324 11.2284C16.5519 11.2284 16.6315 11.3678 16.6315 11.5271ZM36.603 12.0249C36.6628 12.2638 36.603 12.4231 36.4637 12.4231C36.3442 12.4231 36.2247 12.2439 36.2247 12.0249C36.2247 11.8059 36.2845 11.6267 36.3641 11.6267C36.4437 11.6267 36.5433 11.8059 36.603 12.0249ZM39.7292 12.2041C39.7292 12.5028 38.5743 12.8413 38.415 12.5824C38.3354 12.463 38.3553 12.4032 38.4548 12.4829C38.5544 12.5426 38.8531 12.463 39.1318 12.3037C39.5301 12.0913 39.7292 12.0581 39.7292 12.2041ZM38.1362 12.5227C38.1362 12.682 38.0566 12.8214 37.9371 12.8214C37.8376 12.8214 37.7977 12.682 37.8575 12.5227C37.9371 12.3634 38.0168 12.224 38.0566 12.224C38.0964 12.224 38.1362 12.3634 38.1362 12.5227ZM17.1891 13.2594C17.1493 13.3988 17.2289 13.4984 17.3285 13.4785C17.4479 13.4785 17.6271 13.578 17.7665 13.7174C17.9457 13.9165 17.9258 13.9962 17.6072 14.0758C17.4081 14.1356 17.2687 14.1156 17.3285 14.0161C17.3882 13.9364 17.2289 13.817 16.99 13.7572C16.6315 13.6577 16.6116 13.5979 16.8307 13.3391C17.1293 12.9607 17.2488 12.9409 17.1891 13.2594ZM35.4681 13.2594C35.5477 13.3988 35.5477 13.4586 35.4482 13.3789C35.3685 13.2993 35.1694 13.3192 35.0101 13.4586C34.7911 13.6179 34.7712 13.5979 34.8707 13.3391C35.0101 12.9607 35.269 12.9209 35.4681 13.2594ZM41.2823 13.4984C41.0832 13.6378 40.9836 13.817 41.0434 13.8767C41.1031 13.9364 40.9637 13.9364 40.7248 13.8767C40.2668 13.7572 40.4062 13.5183 41.0235 13.359C41.435 13.2661 41.5212 13.3125 41.2823 13.4984ZM37.738 13.9364C37.738 13.9762 37.5588 14.0161 37.3398 14.0161C37.1207 14.0161 36.9415 13.9364 36.9415 13.8369C36.9415 13.7373 37.1207 13.6975 37.3398 13.7572C37.5588 13.817 37.738 13.8966 37.738 13.9364ZM40.2668 14.713C40.2668 14.8723 40.1872 14.9519 40.0876 14.8922C39.988 14.8325 39.9681 14.6931 40.0279 14.5935C40.2071 14.3347 40.2668 14.3745 40.2668 14.713ZM19.7179 14.8125C19.7975 14.932 19.5984 15.0117 19.2798 14.9918C18.782 14.9918 18.7621 14.9718 19.1205 14.8125C19.3395 14.713 19.5387 14.6333 19.5586 14.6333C19.5785 14.6134 19.6581 14.6931 19.7179 14.8125ZM36.7424 15.0117C36.7424 15.1112 36.5831 15.2108 36.4039 15.2108C36.1052 15.2108 36.0853 15.171 36.3442 15.0117C36.7225 14.7727 36.7424 14.7727 36.7424 15.0117ZM42.5168 15.0117C42.5168 15.1112 42.477 15.2108 42.4372 15.2108C42.3775 15.2108 42.2779 15.1112 42.2182 15.0117C42.1584 14.8922 42.1982 14.8125 42.2978 14.8125C42.4173 14.8125 42.5168 14.8922 42.5168 15.0117ZM41.9991 15.39C42.0589 15.4696 41.9195 15.5294 41.7204 15.5095C41.1827 15.4696 41.0633 15.3104 41.5212 15.2705C41.7403 15.2506 41.9593 15.3103 41.9991 15.39ZM13.6448 15.828C13.6448 15.9276 13.5054 16.0073 13.3461 16.0073C13.1669 16.0073 13.1072 15.8878 13.1669 15.7086C13.2864 15.4099 13.6448 15.4895 13.6448 15.828ZM43.1142 16.3856C43.1142 16.4851 42.9748 16.6245 42.7956 16.6843C42.5168 16.7838 42.4969 16.7639 42.716 16.505C42.9947 16.1665 43.1142 16.1267 43.1142 16.3856ZM23.7002 17.0028C23.6405 17.1024 23.4812 17.202 23.3816 17.202C23.2622 17.202 23.2423 17.1024 23.302 17.0028C23.3617 16.8834 23.521 16.8037 23.6206 16.8037C23.74 16.8037 23.76 16.8834 23.7002 17.0028ZM30.072 17.0028C30.1317 17.1024 30.0521 17.202 29.8928 17.202C29.7335 17.202 29.5344 17.1024 29.4746 17.0028C29.4149 16.8834 29.4945 16.8037 29.6538 16.8037C29.8131 16.8037 30.0122 16.8834 30.072 17.0028ZM28.8972 17.3015C28.6782 17.4608 28.2202 17.6599 27.8419 17.7197C27.4835 17.7794 27.2445 17.9188 27.3042 18.0183C27.364 18.1179 27.1848 18.1975 26.906 18.1975C26.2688 18.1975 26.0498 17.859 26.5874 17.6998C26.8065 17.64 26.9857 17.5006 26.9857 17.4011C26.9857 17.3015 27.2843 17.2418 27.6627 17.2816C28.0211 17.3015 28.499 17.2617 28.6981 17.1821C29.2755 16.963 29.3153 16.9829 28.8972 17.3015ZM21.5099 17.4011C21.5697 17.5205 21.49 17.5405 21.3307 17.4807C20.9723 17.3413 20.9126 17.202 21.1913 17.202C21.3108 17.202 21.4502 17.2816 21.5099 17.4011ZM24.198 17.9586C24.198 18.0383 24.0188 18.1179 23.8197 18.1179C23.6007 18.1179 23.4812 18.0383 23.521 17.9586C23.5808 17.879 23.76 17.7993 23.9193 17.7993C24.0785 17.7993 24.198 17.879 24.198 17.9586ZM29.0963 18.1975C29.2755 18.1975 29.3552 18.2772 29.2954 18.3768C29.2158 18.4763 28.9768 18.4564 28.6981 18.3369C28.3795 18.1777 28.2799 18.0582 28.4392 17.9586C28.5786 17.879 28.718 17.8989 28.7379 17.9984C28.7777 18.1179 28.937 18.1975 29.0963 18.1975ZM13.605 18.2573C13.8439 18.1976 13.9435 18.317 13.9634 18.6754C14.0032 19.0936 13.9435 19.1533 13.6647 19.0139C13.4656 18.8945 13.2266 18.9144 12.9877 19.0936C12.5297 19.4321 12.5496 19.7905 13.0673 19.7905C13.2864 19.7905 13.4058 19.8701 13.3461 19.9896C13.2864 20.0892 13.3461 20.129 13.5054 20.0693C13.6647 20.0095 13.7842 20.0892 13.7842 20.2485C13.7842 20.587 13.0275 20.4476 12.7886 20.0693C12.7089 19.9299 12.5098 19.8502 12.3704 19.91C12.2111 19.9697 11.9921 19.8303 11.8527 19.5914C11.574 19.0737 11.6337 19.0139 12.3306 18.9542C12.689 18.9144 12.8284 18.8148 12.7488 18.6157C12.689 18.4564 12.7488 18.2573 12.8881 18.1776C13.0275 18.0781 13.1669 18.098 13.2067 18.1776C13.2465 18.2772 13.4258 18.317 13.605 18.2573ZM25.094 18.1975C25.1538 18.317 25.0741 18.3369 24.9148 18.2772C24.5564 18.1378 24.4967 17.9984 24.7755 17.9984C24.8949 17.9984 25.0343 18.0781 25.094 18.1975ZM25.8706 18.2374C25.8109 18.317 25.6914 18.3967 25.5719 18.3967C25.4724 18.3967 25.3927 18.317 25.3927 18.2374C25.3927 18.1378 25.5321 18.0582 25.6914 18.0582C25.8507 18.0582 25.9303 18.1378 25.8706 18.2374ZM15.8351 18.6953C15.6957 18.8546 15.4966 18.994 15.3771 18.994C15.2576 18.994 15.3373 18.8546 15.5563 18.6953C16.0541 18.317 16.1537 18.317 15.8351 18.6953ZM26.7865 18.4763C26.7865 18.5361 26.7069 18.6356 26.5874 18.6953C26.4879 18.7551 26.3883 18.7152 26.3883 18.6157C26.3883 18.4962 26.4879 18.3967 26.5874 18.3967C26.7069 18.3967 26.7865 18.4365 26.7865 18.4763ZM17.9457 18.8546C17.9855 18.8945 17.7068 18.9343 17.3285 18.9343C16.9501 18.9343 16.6315 18.8546 16.6315 18.7551C16.6315 18.5759 17.7665 18.6754 17.9457 18.8546ZM20.3351 18.8148C20.4347 18.9741 20.2754 19.0139 19.8174 18.9542C19.3993 18.8945 19.1404 18.9542 19.0807 19.1334C19.021 19.2728 18.8218 19.3923 18.6227 19.3923C18.4236 19.3923 18.1648 19.5316 18.0254 19.6909C17.7267 20.0493 17.3285 20.0892 17.5475 19.7507C17.6271 19.6113 17.6072 19.5914 17.4479 19.671C17.0895 19.91 17.428 20.2286 17.9457 20.129C18.3041 20.0693 18.4236 20.129 18.4236 20.4077C18.4236 20.6268 18.5431 20.7861 18.7024 20.7861C18.8418 20.7861 19.0807 20.9255 19.24 21.1047C19.3993 21.3038 19.698 21.3834 20.0962 21.3237C20.4347 21.2839 20.9524 21.3038 21.271 21.4033C21.5896 21.5029 21.7688 21.483 21.709 21.3635C21.5498 21.1246 21.948 21.1246 22.4259 21.3834C22.9038 21.6423 22.9038 21.8613 22.4657 22.2994C22.1272 22.6379 22.1471 22.6379 22.6449 22.5184C22.9436 22.4388 23.2223 22.4587 23.2821 22.5383C23.3418 22.618 23.7002 22.6578 24.0785 22.618C24.4768 22.5781 24.7555 22.4587 24.6958 22.379C24.6361 22.2994 24.7954 22.1799 25.0144 22.1202C25.2799 22.0538 25.3064 22.1401 25.094 22.379C24.9148 22.5781 24.8153 22.8569 24.8949 22.9565C24.9547 23.0759 24.9148 23.1755 24.8153 23.1755C24.6958 23.1755 24.5963 23.275 24.5963 23.3746C24.5963 23.4941 24.9746 23.5538 25.4724 23.514C26.4281 23.4344 27.0454 23.6335 26.5078 23.8326C26.3286 23.9122 26.0498 23.8923 25.8507 23.8326C25.6317 23.7529 25.5719 23.7729 25.6715 23.9321C25.771 24.0914 25.7113 24.1313 25.5122 24.0516C25.333 23.9919 25.1936 24.0317 25.1936 24.1711C25.1936 24.2905 25.114 24.3304 24.9945 24.2706C24.8949 24.2109 24.7954 24.2906 24.7954 24.4498C24.7954 24.629 24.6958 24.7684 24.5763 24.7684C24.4768 24.7684 24.437 24.868 24.5166 25.0074C24.6162 25.1468 24.5763 25.1667 24.3971 25.0671C24.2578 24.9875 24.0985 25.0074 24.0188 25.1069C23.8595 25.3857 22.406 25.6246 22.406 25.4056C22.406 25.2861 22.5453 25.1467 22.7245 25.087C22.9038 25.0074 23.0033 24.9078 22.9436 24.8282C22.8639 24.7684 22.6847 24.8282 22.5055 24.9675C22.2467 25.1866 22.0675 25.1667 21.4502 24.9078C20.3949 24.4499 20.0962 24.3901 18.5232 24.3503C17.6869 24.3105 16.9501 24.3901 16.6714 24.5295C16.313 24.7286 16.2333 24.7286 16.2731 24.5295C16.3727 24.0715 14.9789 24.3503 14.5408 24.8879C14.3019 25.1467 14.0629 25.3658 13.9634 25.3658C13.8837 25.3658 13.9634 25.2264 14.1227 25.0472C14.5408 24.649 14.3616 24.3702 13.8041 24.5295C13.4855 24.6091 13.4258 24.5693 13.5651 24.3503C13.7443 24.0516 13.7842 23.952 13.824 23.4742C13.824 23.3149 13.9833 23.1755 14.1426 23.1755C14.501 23.1755 14.5408 22.5582 14.2023 22.1799C13.9833 21.941 14.0032 21.941 14.282 22.16C14.5607 22.3591 14.6404 22.3392 14.8196 22.0007C14.9789 21.7219 14.9789 21.5826 14.7798 21.5228C14.6603 21.4631 14.72 21.4033 14.9191 21.4033C15.1382 21.3834 15.2576 21.3237 15.178 21.264C15.1183 21.2042 15.2975 20.7662 15.5762 20.3082C15.8749 19.8701 16.0939 19.3724 16.0939 19.233C16.0939 19.0538 16.2333 19.0139 16.5121 19.0936C17.5674 19.4321 17.8462 19.4321 18.2245 19.0936C18.4236 18.9144 18.6825 18.8148 18.8019 18.8746C18.9015 18.9542 19.0409 18.9343 19.1006 18.8347C19.24 18.5958 20.1758 18.5759 20.3351 18.8148ZM27.9812 19.1931C27.9812 19.2927 27.802 19.3126 27.6029 19.2529C27.364 19.1931 27.2644 19.0338 27.3242 18.8746C27.4038 18.6555 27.5034 18.6356 27.7025 18.8148C27.8618 18.9343 27.9812 19.1135 27.9812 19.1931ZM22.1471 18.9343C21.948 18.994 21.8683 19.1135 21.948 19.2529C22.0276 19.3923 21.948 19.3923 21.7489 19.233C21.5697 19.0737 21.3108 19.0338 21.1913 19.1135C21.032 19.1931 21.0121 19.1732 21.0918 19.0339C21.1714 18.8945 21.5298 18.8148 21.8683 18.8148C22.2268 18.8347 22.3462 18.8746 22.1471 18.9343ZM24.8551 18.9343C24.7157 18.9741 24.4768 18.9741 24.3573 18.9343C24.2179 18.8746 24.3175 18.8347 24.5963 18.8347C24.875 18.8347 24.9746 18.8746 24.8551 18.9343ZM39.5301 19.0737C39.5301 19.1334 39.4504 19.233 39.331 19.2927C39.2314 19.3524 39.1318 19.3126 39.1318 19.213C39.1318 19.0936 39.2314 18.994 39.331 18.994C39.4504 18.994 39.5301 19.0338 39.5301 19.0737ZM13.8439 19.6113C13.8439 19.89 13.5054 19.8104 13.3859 19.5117C13.3063 19.3126 13.366 19.2529 13.5651 19.3325C13.7045 19.3923 13.8439 19.5117 13.8439 19.6113ZM24.1383 19.5117C24.0785 19.5715 23.8993 19.5914 23.76 19.5317C23.6007 19.4719 23.6604 19.4122 23.8794 19.4122C24.0985 19.3922 24.2179 19.452 24.1383 19.5117ZM21.709 19.7905C21.6493 19.89 21.4701 19.9896 21.3506 19.9896C21.2113 19.9896 21.2312 19.91 21.4104 19.7905C21.7887 19.5515 21.8683 19.5515 21.709 19.7905ZM22.6648 19.7308C22.5254 19.7706 22.2865 19.7706 22.167 19.7308C22.0276 19.671 22.1272 19.6312 22.406 19.6312C22.6847 19.6312 22.7843 19.671 22.6648 19.7308ZM11.6536 19.9896C11.8726 20.1091 11.9921 20.3281 11.9324 20.4874C11.8328 20.7263 11.7731 20.7264 11.4943 20.4476C11.2952 20.2684 11.1558 20.2086 11.0961 20.348C11.0563 20.4675 10.897 20.5073 10.7377 20.4476C10.4987 20.3679 10.4987 20.2883 10.7974 20.0693C11.2355 19.7507 11.1956 19.7507 11.6536 19.9896ZM23.8794 20.0294C23.8197 20.1091 23.8595 20.1887 23.979 20.1887C24.0785 20.1887 24.2179 20.1091 24.2976 20.0095C24.3573 19.89 24.7954 19.8303 25.2733 19.8502C25.7511 19.8701 26.1095 19.9697 26.0299 20.0693C25.9702 20.1688 26.0697 20.2086 26.2489 20.129C26.4281 20.0693 26.6272 20.0892 26.687 20.2086C26.7666 20.3281 26.3684 20.3878 25.6516 20.348C25.0144 20.3281 24.3772 20.3679 24.2578 20.4476C24.1383 20.5272 23.9591 20.4874 23.8993 20.3679C23.8197 20.2485 23.5608 20.0892 23.3219 19.9896C22.9436 19.8303 22.9436 19.8104 23.4414 19.8502C23.74 19.8701 23.9193 19.9498 23.8794 20.0294ZM13.4258 20.7662C13.6448 20.9056 13.605 20.9653 13.2665 21.0848C13.0474 21.1445 12.8483 21.3038 12.8483 21.4233C12.8483 21.5427 12.6691 21.5826 12.4501 21.5228C12.231 21.4631 12.012 21.483 11.9523 21.5825C11.8726 21.702 10.1801 22.5781 10.0009 22.5781C9.76199 22.5781 10.0208 21.7817 10.2598 21.7618C10.4191 21.7418 10.6779 21.7219 10.8372 21.702C11.2753 21.6622 11.335 21.1843 10.9169 21.1644C10.6978 21.1644 10.658 21.1047 10.8173 21.0449C10.9567 20.9852 11.1757 21.0449 11.3151 21.1445C11.4744 21.2839 11.6735 21.2839 11.8527 21.1843C12.0319 21.0648 12.251 21.1047 12.4302 21.2441C12.6691 21.4432 12.689 21.4232 12.5695 21.2042C12.47 21.0449 12.5098 20.8657 12.6691 20.7662C13.0076 20.5471 13.0873 20.5471 13.4258 20.7662ZM19.6382 20.9255C19.8971 21.2441 19.8772 21.264 19.5785 21.0051C19.3794 20.8657 19.2201 20.7064 19.2201 20.6666C19.2201 20.5073 19.3794 20.6069 19.6382 20.9255ZM24.0188 21.2839C24.3971 21.4432 24.656 21.5825 24.5963 21.5825C24.0785 21.6622 23.2024 21.702 23.5011 21.6423C23.8396 21.5626 23.8197 21.5029 23.302 21.2839C22.9635 21.1246 22.844 21.0051 23.0232 21.0051C23.2024 20.9852 23.6604 21.1246 24.0188 21.2839ZM12.3903 22.1799C12.4302 22.5781 12.231 22.6976 11.9921 22.4388C11.9125 22.379 11.9523 22.1998 12.0718 22.0405C12.3704 21.702 12.3505 21.702 12.3903 22.1799ZM37.3597 22.1401C37.0809 22.3193 36.6827 22.4786 36.4637 22.4786C36.1849 22.4786 36.0256 22.618 35.9858 22.9166C35.926 23.3746 35.3486 23.9919 35.3486 23.6136C35.3486 23.4941 35.4482 23.3348 35.5477 23.275C35.707 23.1755 35.6871 23.0361 35.5079 22.8171C35.3088 22.5781 35.3088 22.5383 35.5079 22.6578C35.6473 22.7374 35.8066 22.6777 35.8663 22.4985C35.946 22.2994 36.165 22.2197 36.4437 22.2596C36.7026 22.3193 37.0212 22.2197 37.1606 22.0604C37.28 21.9011 37.4991 21.7817 37.6185 21.8016C37.738 21.8016 37.6185 21.9609 37.3597 22.1401ZM25.9901 22.2596C25.9901 22.3193 25.9104 22.4188 25.791 22.4786C25.6914 22.5383 25.5918 22.4985 25.5918 22.3989C25.5918 22.2795 25.6914 22.1799 25.791 22.1799C25.9104 22.1799 25.9901 22.2197 25.9901 22.2596ZM11.1558 22.7773C11.0961 22.8768 10.8571 22.9764 10.658 22.9764C10.0806 22.9764 9.98102 23.3547 10.4788 23.7529L10.9368 24.1114L10.4987 24.2507C9.98102 24.4299 9.6027 24.2308 9.7819 23.9122C9.86155 23.7729 9.68234 23.8923 9.40358 24.1512C9.12481 24.41 8.7664 24.5693 8.60711 24.5096C8.44781 24.4499 8.20887 24.5096 8.0894 24.6291C7.93011 24.7883 7.87037 24.7884 7.87037 24.6091C7.87037 24.3901 8.14914 24.2906 8.54737 24.3503C8.80622 24.41 9.46331 23.7529 9.34384 23.5538C9.28411 23.4543 9.38367 23.4343 9.54296 23.4941C9.92128 23.6335 9.96111 23.3547 9.62261 22.9963C9.40358 22.7972 9.42349 22.7773 9.68234 22.8768C9.88146 22.9565 10.0806 22.9166 10.1602 22.7972C10.22 22.6777 10.4987 22.5781 10.7775 22.5781C11.0563 22.5781 11.2155 22.6578 11.1558 22.7773ZM36.7424 22.8967C36.7424 22.9365 36.603 22.9764 36.4437 22.9764C36.2845 22.9764 36.1451 22.8967 36.1451 22.7773C36.1451 22.6777 36.2845 22.6379 36.4437 22.6976C36.603 22.7772 36.7424 22.8569 36.7424 22.8967ZM11.8129 23.0162C11.7731 23.1357 11.6138 23.275 11.4943 23.295C11.3549 23.3149 11.335 23.295 11.4545 23.2352C11.554 23.1954 11.6138 23.056 11.5341 22.9565C11.4744 22.8569 11.5341 22.7773 11.6536 22.7773C11.793 22.7773 11.8527 22.8768 11.8129 23.0162ZM8.86596 23.733C8.86596 23.8127 8.68675 23.8923 8.46772 23.8923C8.02966 23.8923 7.93011 23.6534 8.32834 23.514C8.60711 23.4144 8.86596 23.5339 8.86596 23.733ZM28.4392 23.7529C28.5388 23.7728 28.5388 23.8724 28.4591 23.9919C28.3596 24.1512 28.2799 24.1512 28.1804 23.972C28.0808 23.7928 28.0012 23.7928 27.9016 23.952C27.7025 24.2706 27.3839 24.2308 27.5034 23.8923C27.5631 23.733 27.7622 23.6335 27.9414 23.6733C28.1206 23.7131 28.3596 23.7529 28.4392 23.7529ZM11.5939 23.8923C11.5341 23.952 11.3549 23.972 11.2155 23.9122C11.0563 23.8525 11.116 23.7927 11.335 23.7927C11.554 23.7728 11.6735 23.8326 11.5939 23.8923ZM30.1118 23.9321C30.2711 24.0317 30.1715 24.1711 29.7733 24.3105C29.3153 24.4897 29.176 24.4697 29.176 24.2905C29.176 23.7927 29.6339 23.6335 30.1118 23.9321ZM10.7377 24.6689C10.658 24.8481 10.7377 24.9675 10.9169 24.9675C11.0961 24.9675 11.2753 25.0472 11.335 25.1268C11.3748 25.2065 11.0961 25.2463 10.6978 25.1866C10.2996 25.1467 10.0806 25.0671 10.22 25.0273C10.3394 24.9676 10.4589 24.8083 10.4589 24.649C10.4589 24.4897 10.5385 24.3702 10.658 24.3702C10.7576 24.3702 10.7974 24.5096 10.7377 24.6689ZM31.3264 24.5096C31.1273 24.5494 30.8087 24.5494 30.6295 24.5096C30.4304 24.4499 30.5897 24.41 30.968 24.41C31.3463 24.41 31.5056 24.4499 31.3264 24.5096ZM16.0342 24.649C16.0342 24.7087 15.9545 24.8083 15.8351 24.868C15.7355 24.9277 15.636 24.8879 15.636 24.7883C15.636 24.6689 15.7355 24.5693 15.8351 24.5693C15.9545 24.5693 16.0342 24.6091 16.0342 24.649ZM25.6914 24.7684C25.6317 24.8879 25.771 24.9675 26.0299 24.9875C26.468 24.9875 26.468 25.0074 26.0896 25.1667C25.4923 25.4255 25.4126 25.4056 25.4923 25.0074C25.5918 24.5494 25.5719 24.5693 25.7113 24.5693C25.771 24.5693 25.7511 24.649 25.6914 24.7684ZM8.52746 24.9476C8.96552 24.6888 9.00534 25.2065 8.54737 25.5848C8.16905 25.8835 7.63143 25.6246 7.55178 25.1069C7.51196 24.8481 7.59161 24.8083 7.85046 24.9476C8.04958 25.0671 8.30843 25.0472 8.52746 24.9476ZM20.8728 25.0472C20.9524 25.2463 20.8927 25.3061 20.6935 25.2264C20.3949 25.1069 20.3152 24.7684 20.594 24.7684C20.6935 24.7684 20.813 24.9078 20.8728 25.0472ZM29.6737 24.9675C29.614 25.0671 29.6538 25.1667 29.7534 25.1667C29.8729 25.1667 29.9724 25.2463 29.9724 25.3658C29.9724 25.7441 29.4547 25.5649 29.4348 25.1667C29.4149 24.9476 29.4945 24.7684 29.5941 24.7684C29.7136 24.7684 29.7335 24.8481 29.6737 24.9675ZM26.9857 25.1667C26.9857 25.2662 26.9458 25.3658 26.906 25.3658C26.8463 25.3658 26.7467 25.2662 26.687 25.1667C26.6272 25.0472 26.6671 24.9675 26.7666 24.9675C26.8861 24.9675 26.9857 25.0472 26.9857 25.1667ZM18.3639 25.2861C18.3041 25.3459 18.1249 25.3658 17.9855 25.3061C17.8263 25.2463 17.886 25.1866 18.105 25.1866C18.324 25.1667 18.4435 25.2264 18.3639 25.2861ZM27.7821 25.4852C27.7821 25.6445 27.4038 25.7441 27.3042 25.6047C27.2445 25.5052 27.3242 25.4255 27.4835 25.4255C27.6427 25.4255 27.7821 25.4653 27.7821 25.4852ZM28.5587 25.4255C28.5189 25.4454 28.3197 25.6047 28.1206 25.7441C27.822 25.983 27.7821 25.983 27.9016 25.6844C27.9613 25.5052 28.1605 25.3658 28.3397 25.3658C28.499 25.3658 28.5985 25.3857 28.5587 25.4255ZM7.47214 26.0627C7.7509 26.222 7.93011 26.3614 7.87037 26.3614C7.81064 26.3813 7.59161 26.441 7.37258 26.4808C7.15355 26.5406 6.79514 26.5804 6.59602 26.5804C6.37699 26.5804 6.09823 26.7198 5.97875 26.899C5.83937 27.0782 5.64025 27.1578 5.52078 27.0782C5.18228 26.8791 5.22211 26.5605 5.56061 26.68C5.73981 26.7397 5.97875 26.5804 6.17787 26.2817C6.57611 25.6844 6.77522 25.6645 7.47214 26.0627ZM22.2068 26.3016C22.2268 26.6401 22.2467 26.6401 22.4657 26.3216C22.7046 26.0229 22.7445 26.0229 23.0033 26.4211C23.2423 26.7994 23.2223 26.8193 22.9635 26.6202C22.7644 26.441 22.6051 26.441 22.4657 26.5804C22.3064 26.7397 22.1869 26.68 22.0276 26.3813C21.8683 26.1025 21.8683 25.9631 22.0077 25.9631C22.1073 25.9631 22.2068 26.1224 22.2068 26.3016ZM23.4015 26.1623C23.4015 26.2618 23.3617 26.3614 23.3219 26.3614C23.2622 26.3614 23.1626 26.2618 23.1029 26.1623C23.0431 26.0428 23.083 25.9631 23.1825 25.9631C23.302 25.9631 23.4015 26.0428 23.4015 26.1623ZM15.7554 26.4012C15.8351 26.5008 15.616 26.5207 15.2775 26.4808C14.939 26.441 14.6005 26.4609 14.5408 26.5207C14.3616 26.6999 13.7842 26.7397 13.5651 26.6003C13.4457 26.5207 13.6647 26.4211 14.043 26.3614C14.9988 26.222 15.5762 26.2419 15.7554 26.4012ZM20.0165 26.5804C20.0165 26.66 19.8772 26.6999 19.7179 26.6401C19.5586 26.5605 19.4192 26.6202 19.4192 26.7397C19.4192 26.8592 19.3196 26.9587 19.2201 26.9587C19.0807 26.9587 19.0807 26.8393 19.2201 26.5605C19.4192 26.2021 20.0165 26.2021 20.0165 26.5804ZM27.4237 26.3016C27.3042 26.3415 27.2246 26.4808 27.3042 26.5804C27.364 26.68 27.3242 26.7596 27.2047 26.7596C26.9458 26.7596 26.7666 26.4609 26.9259 26.2817C26.9857 26.222 27.1848 26.1622 27.364 26.1822C27.583 26.1822 27.6029 26.222 27.4237 26.3016ZM13.0474 26.441C13.0474 26.4808 12.8881 26.6401 12.7089 26.7795C12.3903 27.0384 12.3704 27.0185 12.6293 26.6999C12.8881 26.3813 13.0474 26.2817 13.0474 26.441ZM17.5077 26.5406C17.5873 26.6401 17.4479 26.68 17.2289 26.6202C16.7709 26.5008 16.7112 26.3614 17.1094 26.3614C17.2687 26.3614 17.4479 26.441 17.5077 26.5406ZM29.5742 26.6401C29.5742 26.8592 29.1959 26.9388 29.0764 26.7596C29.0167 26.66 29.0963 26.5605 29.2556 26.5605C29.4348 26.5605 29.5742 26.6003 29.5742 26.6401ZM18.9612 27.2972C18.8218 27.4167 18.0453 27.0981 18.1448 26.9388C18.2046 26.8393 18.4236 26.8791 18.6227 26.9986C18.8418 27.1379 18.9811 27.2574 18.9612 27.2972ZM28.6383 26.899C28.6981 26.9986 28.5189 27.0782 28.26 27.0782C28.0012 27.0981 27.8419 27.0384 27.9016 26.9388C28.0211 26.7198 28.5189 26.6999 28.6383 26.899ZM14.4413 27.4964C14.282 27.5561 14.0828 27.6955 14.0231 27.8149C13.9435 27.9344 13.7443 27.9145 13.5253 27.7552C13.2067 27.576 13.2067 27.5362 13.4855 27.6357C13.6846 27.6955 13.8837 27.6556 13.9435 27.5561C14.0231 27.4366 14.2222 27.357 14.4014 27.3769C14.6802 27.3769 14.6802 27.4167 14.4413 27.4964ZM15.8152 27.7154C15.9944 28.034 15.9346 28.0738 15.4568 27.9941C15.1382 27.9543 14.6802 28.014 14.4213 28.1534C13.9634 28.3725 13.9634 28.3525 14.3218 28.0738C14.5408 27.8946 14.8793 27.7552 15.0983 27.7552C15.2975 27.7552 15.397 27.6556 15.3373 27.5561C15.2775 27.4366 15.2975 27.357 15.4169 27.357C15.5364 27.357 15.7156 27.5163 15.8152 27.7154ZM16.6315 27.7751C16.6315 27.8747 16.5519 27.9543 16.4324 27.9543C16.3329 27.9543 16.2333 27.8149 16.2333 27.6357C16.2333 27.4764 16.3329 27.3968 16.4324 27.4565C16.5519 27.5162 16.6315 27.6556 16.6315 27.7751ZM32.3021 27.8747C32.2225 27.9543 31.7844 28.034 31.3264 28.0738C30.7092 28.1136 30.5897 28.0738 30.8685 27.9543C31.3264 27.7552 32.4813 27.6955 32.3021 27.8747ZM13.6448 28.253C13.6448 28.2928 13.2864 28.3526 12.8682 28.3924C12.3107 28.4322 12.1315 28.3924 12.251 28.2331C12.4103 28.0539 13.6448 28.0738 13.6448 28.253ZM19.2798 28.253C19.2201 28.4322 19.1205 28.5317 19.0807 28.472C19.021 28.4123 19.0409 28.2928 19.1205 28.1733C19.2997 27.8547 19.4192 27.9145 19.2798 28.253ZM20.6338 28.1335C20.3949 28.2928 20.3949 28.3725 20.594 28.6313C20.7334 28.8105 20.9325 28.8902 21.032 28.8304C21.1316 28.7707 21.2113 28.8304 21.2113 28.93C21.2113 29.2486 20.9325 29.1889 20.4546 28.7906C20.136 28.5119 20.0962 28.3526 20.2555 28.1933C20.3949 28.0539 20.594 27.9543 20.7135 27.9543C20.813 27.9543 20.7931 28.034 20.6338 28.1335ZM30.072 28.1534C30.1317 28.2729 30.0521 28.2928 29.8928 28.2331C29.5344 28.0937 29.4746 27.9543 29.7534 27.9543C29.8729 27.9543 30.0122 28.034 30.072 28.1534ZM15.2377 28.6512C15.0187 28.9101 15.0784 28.9499 15.5165 28.9499C15.7953 28.9499 16.0342 29.0096 16.0342 29.0893C16.0342 29.1889 15.636 29.2486 15.1581 29.2486C14.2421 29.2486 14.1227 28.9698 14.8992 28.5915C15.4966 28.3127 15.5165 28.3127 15.2377 28.6512ZM16.4324 28.7309C16.4324 28.8304 16.2532 28.8703 16.0342 28.8105C15.8152 28.7508 15.636 28.6711 15.636 28.6313C15.636 28.5915 15.8152 28.5517 16.0342 28.5517C16.2532 28.5517 16.4324 28.6313 16.4324 28.7309ZM31.864 28.9101C31.8043 28.9698 31.645 28.9101 31.5056 28.7707C31.3264 28.5716 31.3463 28.5517 31.6251 28.6711C31.8242 28.7309 31.9238 28.8503 31.864 28.9101ZM13.6448 28.9698C13.6448 29.0295 13.3859 29.0893 13.0673 29.0694C12.7488 29.0494 12.5297 28.9897 12.5695 28.9101C12.689 28.7309 13.6448 28.7906 13.6448 28.9698ZM18.7223 29.0694C18.3041 29.388 17.0298 29.4477 17.0298 29.1689C17.0298 29.0694 17.209 29.0296 17.428 29.0893C17.647 29.149 17.8263 29.1092 17.8263 29.0295C17.8263 28.93 18.105 28.8304 18.4634 28.8304C19.0409 28.8105 19.0608 28.8304 18.7223 29.0694ZM12.2111 29.2884C12.3306 29.6667 11.7133 29.607 11.574 29.2287C11.4943 29.0096 11.554 28.9499 11.793 28.9897C11.9722 29.0296 12.1514 29.1689 12.2111 29.2884ZM16.7709 29.3481C16.7908 29.5871 16.6913 29.7464 16.5121 29.7464C16.2731 29.7464 16.2731 29.6667 16.4324 29.3481C16.5519 29.1291 16.6714 28.9499 16.6913 28.9499C16.7311 28.9499 16.751 29.1291 16.7709 29.3481ZM20.0763 29.4875C19.9369 29.5274 19.698 29.5274 19.5785 29.4875C19.4391 29.4278 19.5387 29.388 19.8174 29.388C20.0962 29.388 20.1958 29.4278 20.0763 29.4875ZM30.6295 29.6468C30.5698 29.826 30.4702 29.9256 30.4304 29.8658C30.3707 29.8061 30.3906 29.6866 30.4702 29.5672C30.6494 29.2486 30.7689 29.3083 30.6295 29.6468ZM10.2598 30.1446C10.2598 30.2442 10.1801 30.3437 10.0607 30.3437C9.96111 30.3437 9.86155 30.2442 9.86155 30.1446C9.86155 30.0251 9.96111 29.9455 10.0607 29.9455C10.1801 29.9455 10.2598 30.0251 10.2598 30.1446ZM13.4258 30.3437C13.3063 30.4433 13.0474 30.4632 12.8881 30.3836C12.6293 30.3039 12.6492 30.2442 12.9678 30.1446C13.4258 29.9654 13.7842 30.1247 13.4258 30.3437ZM14.4413 30.1446C14.4413 30.2442 14.4014 30.3437 14.3616 30.3437C14.3019 30.3437 14.2023 30.2442 14.1426 30.1446C14.0828 30.0251 14.1227 29.9455 14.2222 29.9455C14.3417 29.9455 14.4413 30.0251 14.4413 30.1446ZM6.27743 30.284C6.27743 30.3836 5.97875 30.4632 5.62034 30.4831C5.10264 30.503 5.06281 30.4831 5.3814 30.3437C5.89911 30.1247 6.27743 30.1048 6.27743 30.284ZM6.97434 30.3437C7.03408 30.4433 7.01417 30.5428 6.8947 30.5428C6.79514 30.5428 6.63584 30.4433 6.57611 30.3437C6.51637 30.2242 6.53628 30.1446 6.65576 30.1446C6.75531 30.1446 6.91461 30.2242 6.97434 30.3437ZM12.3903 30.284C12.3107 30.3437 12.3505 30.5229 12.4899 30.6822C12.6492 30.9013 12.6293 30.9212 12.3704 30.8216C12.1912 30.7619 12.0518 30.6424 12.0518 30.5627C12.0518 30.3835 12.2709 30.1446 12.4103 30.1446C12.47 30.1446 12.4501 30.2044 12.3903 30.284ZM15.5364 30.5827C15.3572 30.7021 15.1581 30.722 15.0983 30.6623C15.0187 30.6026 15.0784 30.5428 15.2178 30.5428C15.3572 30.5428 15.397 30.4632 15.3373 30.3437C15.2576 30.2242 15.3572 30.2044 15.5563 30.284C15.855 30.4035 15.855 30.4234 15.5364 30.5827ZM2.17561 30.6623C2.23534 30.8216 2.21543 30.9013 2.09596 30.8415C1.97649 30.7818 1.89684 30.6424 1.89684 30.5229C1.89684 30.2442 2.03623 30.3039 2.17561 30.6623ZM21.0121 30.5428C20.8528 30.6424 20.6338 30.742 20.5143 30.742C20.4148 30.742 20.4546 30.6424 20.6139 30.5428C20.7732 30.4433 21.0121 30.3437 21.1117 30.3437C21.2312 30.3437 21.1714 30.4433 21.0121 30.5428ZM11.0563 31.3393C11.0563 31.6977 10.6779 31.5583 10.4589 31.1203C10.2399 30.742 10.2598 30.722 10.6381 30.9411C10.877 31.0605 11.0563 31.2397 11.0563 31.3393ZM5.28184 31.4588C5.28184 31.4986 5.10264 31.4588 4.88361 31.3393C4.66458 31.2198 4.48537 31.0805 4.48537 31.0207C4.48537 30.9809 4.66458 31.0207 4.88361 31.1402C5.10264 31.2597 5.28184 31.399 5.28184 31.4588ZM10.2 31.4389C10.2 31.5982 10.1204 31.6778 10.0208 31.6181C9.92128 31.5583 9.90137 31.419 9.96111 31.3194C10.1403 31.0605 10.2 31.1004 10.2 31.4389ZM12.1514 31.3393C12.2111 31.4588 12.1315 31.4787 11.9722 31.419C11.6138 31.2796 11.554 31.1402 11.8328 31.1402C11.9523 31.1402 12.0917 31.2198 12.1514 31.3393ZM6.87478 31.638C6.87478 31.7973 6.77523 31.9367 6.65576 31.9367C6.5562 31.9367 6.49646 31.857 6.5562 31.7575C6.63584 31.6579 6.5562 31.5185 6.43673 31.4787C6.27743 31.419 6.31726 31.3592 6.53628 31.3592C6.71549 31.3393 6.87478 31.4787 6.87478 31.638ZM7.47214 31.638C7.67125 31.8769 7.67125 31.9367 7.43231 31.9367C7.27302 31.9367 7.13364 31.7973 7.13364 31.638C7.13364 31.4787 7.15355 31.3393 7.17346 31.3393C7.21328 31.3393 7.33275 31.4787 7.47214 31.638ZM16.1736 31.5982C16.1736 31.7575 16.074 31.8769 15.9545 31.8968C15.8351 31.8968 15.4966 31.9566 15.1979 31.9964C14.8196 32.0561 14.7001 31.9964 14.7798 31.8172C14.8395 31.6579 14.939 31.5783 15.0187 31.6181C15.0784 31.6579 15.3174 31.6181 15.5364 31.5185C16.0939 31.2995 16.1736 31.2995 16.1736 31.5982ZM17.8263 31.5384C18.0851 31.7176 18.0851 31.7375 17.8263 31.7375C17.667 31.7375 17.3882 31.638 17.2289 31.5384C16.97 31.3592 16.97 31.3393 17.2289 31.3393C17.3882 31.3393 17.667 31.4389 17.8263 31.5384ZM13.3063 32.2752C12.8483 32.3548 12.6492 32.7331 13.0673 32.7331C13.1669 32.7331 13.2266 32.8128 13.147 32.9322C13.0873 33.0318 12.8881 32.9721 12.689 32.773C12.3704 32.4743 12.3704 32.4146 12.6492 32.2951C12.8085 32.2154 13.1271 32.1756 13.3461 32.1756C13.6846 32.1955 13.6647 32.1955 13.3063 32.2752ZM3.54952 32.6535C3.5097 32.7729 3.25084 32.8327 2.97208 32.773C2.31499 32.6535 2.37473 32.4345 3.07164 32.4345C3.43005 32.4145 3.60926 32.5141 3.54952 32.6535ZM9.86155 32.5539C9.86155 32.4145 9.96111 32.3747 10.0806 32.4544C10.2 32.5141 10.22 32.6535 10.1204 32.753C9.90137 32.9721 9.02525 32.7531 9.18455 32.4942C9.24428 32.3946 9.42349 32.4145 9.58278 32.5539C9.80181 32.7331 9.86155 32.7331 9.86155 32.5539ZM8.96552 33.3106C9.06508 33.6292 9.04517 33.7287 8.88587 33.6491C8.7664 33.5694 8.66684 33.3703 8.66684 33.211C8.66684 33.0517 8.56728 32.9322 8.44781 32.9322C8.34825 32.9322 8.30843 32.8327 8.38808 32.7132C8.54737 32.4544 8.7664 32.6734 8.96552 33.3106ZM3.19111 33.2907C3.13137 33.3504 2.97208 33.2907 2.8327 33.1513C2.65349 32.9522 2.6734 32.9322 2.95217 33.0517C3.15129 33.1115 3.25084 33.2309 3.19111 33.2907ZM8.20887 33.8482C8.14914 33.9079 7.96993 33.9279 7.83055 33.8681C7.67126 33.8084 7.73099 33.7486 7.95002 33.7486C8.16905 33.7287 8.28852 33.7885 8.20887 33.8482ZM10.1005 34.3659C9.92128 34.5451 9.80181 34.5451 9.62261 34.3659C9.4434 34.1867 9.48322 34.127 9.86155 34.127C10.2399 34.127 10.2797 34.1867 10.1005 34.3659ZM9.02525 34.6447C9.14472 34.5849 9.34384 34.6845 9.48322 34.8836C9.74208 35.1823 9.72217 35.2022 9.42349 34.9633C9.16464 34.7641 9.08499 34.7641 9.00534 34.9633C8.9257 35.1624 8.84605 35.1624 8.68675 34.9234C8.50755 34.6845 8.46772 34.6845 8.34825 34.9832C8.28852 35.1624 8.12922 35.2619 8.02967 35.2022C7.9102 35.1225 7.7509 35.1823 7.67125 35.3217C7.5717 35.481 7.49205 35.461 7.4124 35.242C7.33275 35.023 7.39249 34.9234 7.65134 34.9234C7.85046 34.9234 8.0894 34.784 8.14914 34.6048C8.2487 34.346 8.32834 34.3261 8.56728 34.5252C8.72658 34.6447 8.9257 34.7044 9.02525 34.6447ZM7.33276 35.6004C7.4124 35.7995 7.33275 35.8394 7.03408 35.7597C6.7354 35.6801 6.69558 35.6203 6.91461 35.5009C7.25311 35.2818 7.21328 35.2818 7.33276 35.6004ZM4.56502 35.7398C4.5252 35.8195 4.64467 35.919 4.82387 35.9788C5.02299 36.0186 4.80396 36.0385 4.34599 36.0385C3.52961 36.0186 3.23093 35.8394 3.70881 35.6801C4.08714 35.5606 4.66458 35.6004 4.56502 35.7398ZM30.7689 40.0009C30.7689 40.1602 30.6892 40.2996 30.6096 40.2996C30.51 40.2996 30.4304 40.1602 30.4304 40.0009C30.4304 39.8416 30.51 39.7022 30.6096 39.7022C30.6892 39.7022 30.7689 39.8416 30.7689 40.0009ZM27.9215 41.9921C27.9215 42.1514 27.7821 42.2908 27.6427 42.2908C27.4835 42.2908 27.4237 42.1912 27.5034 42.0518C27.6029 41.8926 27.5034 41.8726 27.2246 41.9324C26.9857 42.012 26.8264 41.9722 26.906 41.8726C27.0852 41.574 27.9215 41.6735 27.9215 41.9921ZM26.2489 42.0319C26.1095 42.0718 25.8308 42.0718 25.6516 42.0319C25.4525 41.9722 25.5719 41.9324 25.8905 41.9324C26.229 41.9324 26.3684 41.9722 26.2489 42.0319ZM26.5874 42.689C26.5874 42.7886 26.4281 42.8881 26.2489 42.8881C25.9502 42.8881 25.9303 42.8483 26.1892 42.689C26.5675 42.4501 26.5874 42.4501 26.5874 42.689ZM30.1715 44.3616C30.1715 44.4014 30.0122 44.5607 29.833 44.7001C29.5145 44.9589 29.4945 44.9391 29.7534 44.6205C30.0122 44.3019 30.1715 44.2023 30.1715 44.3616Z" fill="#ffffff"/>
</svg>
