<svg width="104" height="11" viewBox="0 0 104 11" fill="none" xmlns="http://www.w3.org/2000/svg">
<path fill-rule="evenodd" clip-rule="evenodd" d="M24.2908 0.528075C24.2908 0.571621 24.1934 0.593402 24.0637 0.571629C23.9339 0.549855 23.7879 0.549854 23.7392 0.578884C23.6743 0.600658 23.431 0.636946 23.2039 0.651462C22.9606 0.665977 22.6686 0.731296 22.5388 0.796616C22.4252 0.861935 22.3603 0.876452 22.4252 0.825648C22.4739 0.782102 22.4577 0.738551 22.3603 0.738551C22.2792 0.738551 22.1819 0.760329 22.1494 0.78936C22.117 0.825648 21.8899 0.927251 21.6303 1.02886C21.3708 1.13047 21.2086 1.16676 21.2735 1.11596C21.4519 0.97806 21.1923 1.01435 20.7543 1.18853C20.5272 1.28288 20.4137 1.30465 20.4786 1.24659C20.6083 1.15224 20.5921 1.15224 20.3001 1.24659C20.1379 1.30465 19.9432 1.38449 19.8783 1.42803C19.8134 1.46432 19.6837 1.50787 19.5863 1.50787C19.2132 1.52964 19.197 1.54416 19.4241 1.60948C19.5863 1.66028 19.6026 1.68205 19.4728 1.68931C19.3592 1.69657 19.197 1.70383 19.0997 1.71109C19.0186 1.71109 18.9537 1.74011 18.9861 1.76189C19.051 1.84172 18.4183 2.11752 18.2723 2.07397C18.1912 2.0522 18.0777 2.08848 18.0128 2.16106C17.9641 2.22638 17.7046 2.37153 17.445 2.4804C17.2017 2.58927 16.9908 2.73442 16.9908 2.79974C16.9908 2.86506 16.9259 2.92312 16.8286 2.92312C16.7475 2.93038 16.6015 2.93764 16.5204 2.9449C16.4392 2.9449 16.3095 2.98118 16.2283 3.01747C16.1472 3.06102 16.1959 3.06102 16.3257 3.02473C16.5041 2.98118 16.5366 2.9957 16.4555 3.09005C16.3906 3.16263 16.3419 3.22794 16.3419 3.24972C16.3419 3.26423 16.2283 3.25698 16.0986 3.2352C15.9526 3.20617 15.8066 3.24246 15.7417 3.32229C15.6768 3.40213 15.4983 3.52551 15.3361 3.59809C15.1901 3.67067 15.0928 3.75776 15.1252 3.78679C15.1739 3.81582 14.9955 3.85937 14.7521 3.88114C14.4115 3.91743 14.233 3.88114 13.9572 3.72873C13.7464 3.61987 13.5841 3.50374 13.5841 3.46019C13.5841 3.3731 12.7892 3.06102 12.5621 3.06102C12.4648 3.06102 12.4486 3.03925 12.4972 3.01022C12.5621 2.98844 12.4324 2.89409 12.2052 2.79974C11.9781 2.70539 11.8646 2.61104 11.9619 2.58927C12.0592 2.56749 12.1241 2.50218 12.1079 2.45863C12.1079 2.39331 12.0755 2.39331 12.0106 2.45863C11.9619 2.52395 11.8484 2.5312 11.6537 2.4804C11.4915 2.44411 11.313 2.42959 11.2806 2.45137C11.2319 2.47314 11.1508 2.40782 11.0859 2.30621C11.0048 2.16106 10.8264 2.103 10.291 2.04494C9.91792 2.00865 9.41504 1.92156 9.1717 1.87075C8.76615 1.7764 8.70126 1.77641 8.55526 1.88527C8.45793 1.96511 8.39304 1.97237 8.39304 1.9143C8.39304 1.84173 8.21459 1.8272 7.6306 1.87075C6.62482 1.93607 6.20304 2.00865 5.76505 2.19009C5.57038 2.26993 5.31082 2.33525 5.19727 2.33525C5.08371 2.33525 4.98638 2.36428 4.98638 2.40782C4.98638 2.44411 4.87283 2.4804 4.72683 2.4804C4.49972 2.4804 4.49972 2.50217 4.66194 2.58927C4.77549 2.64733 4.80794 2.70539 4.72683 2.70539C3.98061 2.74893 3.51016 2.86506 3.6075 2.96667C3.65616 3.04651 3.62372 3.06102 3.44528 3.03198C3.26683 3.00295 3.13705 3.05376 3.03972 3.17714C2.94239 3.27875 2.76394 3.43842 2.61794 3.51826L2.35839 3.67792L2.47194 3.511C2.5855 3.34407 2.5855 3.33682 2.27728 3.47471C2.09883 3.54729 2.03394 3.62712 2.09883 3.64889C2.16372 3.67066 2.13128 3.7505 2.0015 3.82308C1.83928 3.91743 1.82305 4.00452 1.92039 4.09162C2.01772 4.16419 2.0015 4.22951 1.90417 4.25854C1.82306 4.28031 1.74195 4.24403 1.74195 4.17145C1.74195 4.06984 1.7095 4.06258 1.59594 4.14242C1.51483 4.19322 1.38506 4.22225 1.28772 4.19322C1.20661 4.17144 1.09306 4.22225 1.02817 4.3166C0.882167 4.57062 0.914612 4.59239 1.2715 4.51256C1.57972 4.43998 1.59594 4.43999 1.43372 4.57062C1.32017 4.66497 1.14172 4.70126 0.963279 4.67949C0.768613 4.65772 0.671281 4.694 0.655059 4.80287C0.622614 4.92625 0.687502 4.94802 0.963279 4.90448C1.19039 4.87545 1.25528 4.88996 1.19039 4.94076C1.1255 4.98431 0.94706 5.0206 0.768616 5.0206C0.606394 5.0206 0.427946 5.0714 0.37928 5.13672C0.314391 5.2093 0.346837 5.23107 0.492837 5.19479C0.59017 5.16575 0.541502 5.2093 0.37928 5.29639C0.200836 5.38349 0.119727 5.47784 0.168393 5.50687C0.233282 5.52864 0.200839 5.59396 0.103506 5.65202C-0.0424939 5.71734 -0.0262717 5.74637 0.103506 5.74637C0.200839 5.74637 0.281951 5.71008 0.281951 5.67379C0.281951 5.51412 0.573948 5.61573 0.655059 5.80443C0.719948 5.9641 0.833502 6.0149 1.1255 6.00764C1.51483 6.00039 2.05017 5.81895 1.95283 5.7246C1.92039 5.69557 2.01772 5.67379 2.17994 5.67379C2.34216 5.67379 2.56927 5.60847 2.66661 5.52864C2.84505 5.40526 2.82883 5.398 2.5855 5.43429C2.40705 5.46332 2.47194 5.41251 2.76394 5.27462C3.00727 5.16575 3.20194 5.04237 3.20194 5.01334C3.20194 4.97705 3.3155 4.94802 3.44528 4.94802C3.57505 4.94802 3.68861 4.91174 3.68861 4.86093C3.68861 4.81013 3.86705 4.694 4.07794 4.59239C4.30505 4.48353 4.49971 4.36015 4.53216 4.30208C4.61327 4.13516 5.13238 3.93194 5.47305 3.93194C5.65149 3.93194 5.79749 3.90292 5.79749 3.87389C5.79749 3.8376 5.97594 3.77228 6.20305 3.72873C6.72216 3.61987 6.81949 3.61986 6.68971 3.71421C6.59238 3.77953 6.91682 3.81582 7.38726 3.79404C7.4846 3.78679 7.58193 3.80857 7.58193 3.8376C7.58193 3.87389 7.37104 3.90291 7.09527 3.89565C6.83571 3.89565 6.6086 3.87388 6.6086 3.84485C6.6086 3.75776 6.15438 3.77954 6.0246 3.87389C5.94349 3.92469 5.97594 3.93194 6.12194 3.89565C6.28416 3.85211 6.3166 3.87389 6.25171 3.98275C6.18682 4.09162 6.23549 4.1279 6.43016 4.11338C6.57616 4.10613 6.78704 4.15694 6.9006 4.23677C7.01415 4.30935 7.1926 4.34563 7.28993 4.32386C7.40348 4.29483 7.41971 4.30935 7.35482 4.35289C7.28993 4.39644 7.38727 4.47628 7.58193 4.52708C7.76038 4.57788 7.90638 4.67223 7.90638 4.74481C7.90638 4.81013 8.03615 4.91174 8.2146 4.96254C8.37682 5.01335 8.52282 5.08592 8.53904 5.12946C8.53904 5.16575 8.66881 5.26011 8.81481 5.33268C8.94459 5.41252 9.0257 5.4851 8.99326 5.50687C8.94459 5.52139 9.09059 5.61573 9.3177 5.71734C9.54481 5.81894 9.67459 5.94233 9.64215 6.00039C9.59348 6.05119 9.65837 6.11651 9.78814 6.13829C9.91792 6.16006 10.0153 6.23264 10.0153 6.2907C10.0153 6.35602 10.0964 6.38505 10.1775 6.36327C10.2748 6.3415 10.3397 6.36328 10.3397 6.41408C10.3397 6.4794 10.3884 6.4794 10.5019 6.39956C10.6317 6.31247 10.6641 6.32699 10.6641 6.45763C10.6641 6.56649 10.7777 6.64633 10.9886 6.6681C11.167 6.68988 11.2644 6.73342 11.2157 6.7697C11.1346 6.83502 11.5564 6.89309 12.4161 6.93664C12.7892 6.95115 12.9352 6.92938 12.9352 6.84955C12.9352 6.76971 12.8055 6.75519 12.3675 6.78422C11.605 6.84229 11.6537 6.78422 12.4324 6.68987C12.7893 6.64632 13.2272 6.55924 13.4219 6.48666C13.7464 6.37054 13.7626 6.34876 13.5193 6.26166C13.2921 6.17457 13.2597 6.18183 13.2597 6.31247C13.2597 6.39231 13.1461 6.47214 13.0326 6.49392C12.8541 6.52295 12.8217 6.50118 12.8704 6.41408C12.9515 6.30522 12.9352 6.30521 12.7406 6.40682C12.5297 6.52294 12.043 6.51569 12.2052 6.39956C12.2539 6.36327 12.1079 6.34876 11.8646 6.36327C11.605 6.37053 11.4915 6.34876 11.5239 6.29795C11.5726 6.24715 11.459 6.21086 11.2968 6.21086C10.9237 6.21086 10.9075 6.23989 11.2806 6.4286C11.4915 6.54472 11.4915 6.55924 11.2968 6.48666C11.1508 6.44311 10.9886 6.42134 10.9399 6.45037C10.875 6.47215 10.8264 6.4286 10.8264 6.34151C10.8264 6.16732 11.1021 6.06571 11.5401 6.102C11.7673 6.11651 11.8159 6.09474 11.7348 6.00039C11.6537 5.89878 11.7024 5.88427 11.9781 5.9133C12.1728 5.93507 12.4973 5.92781 12.7081 5.89152C12.9515 5.84798 13.0975 5.84798 13.0975 5.89152C13.0975 5.93507 13.0001 5.9641 12.8704 5.9641C12.4161 5.9641 12.481 6.07296 12.9515 6.08022C13.1948 6.08748 13.3733 6.05845 13.3246 6.02942C13.2759 5.99313 13.3246 5.9641 13.4219 5.9641C13.5355 5.9641 13.649 6.02942 13.6977 6.10925C13.795 6.28344 13.8924 6.2907 14.3304 6.14554C14.525 6.08748 14.7197 6.06571 14.7846 6.08749C14.8332 6.10926 14.8819 6.09474 14.8819 6.0512C14.8819 6.00039 14.963 5.9641 15.0441 5.9641C15.1415 5.9641 15.1252 6.04394 14.9792 6.16732C14.817 6.30522 14.6061 6.37054 14.2979 6.38505C13.8437 6.39957 13.3246 6.54472 13.7139 6.54472C13.8761 6.54472 13.8761 6.58101 13.7301 6.70439C13.6004 6.81568 13.649 6.82535 13.8761 6.73342C14.0708 6.66084 14.1844 6.56649 14.1357 6.53746C14.087 6.50117 14.1681 6.47214 14.3141 6.47214C14.4764 6.47214 14.525 6.50118 14.4439 6.55924C14.379 6.61004 14.6061 6.53021 14.9468 6.3778C15.3037 6.23264 15.6444 6.10925 15.7255 6.10925C15.8066 6.10925 15.9363 6.02942 16.0175 5.92781C16.0986 5.8262 16.2608 5.75363 16.3743 5.76089C16.4879 5.7754 16.5852 5.74637 16.5852 5.71008C16.6501 5.5359 16.8772 5.38348 17.1206 5.38348C17.2503 5.38348 17.3315 5.36897 17.2828 5.3472C17.2017 5.31091 18.4995 4.69401 18.7428 4.6432C19.0023 4.59965 19.8621 4.17871 19.7972 4.12791C19.7648 4.09887 19.927 4.04081 20.1866 3.99726C20.4299 3.96097 20.9328 3.8013 21.2897 3.64889C22.1819 3.26423 22.5874 3.2352 23.1714 3.49648C23.431 3.6126 23.6419 3.74324 23.6419 3.78679C23.6419 3.83033 23.7068 3.85211 23.7879 3.82308C23.869 3.8013 23.9663 3.85937 23.9988 3.94646C24.0312 4.04081 24.1448 4.11338 24.2583 4.11338C24.3719 4.11338 24.599 4.20774 24.7774 4.33112C25.1343 4.57062 25.1992 4.694 24.9397 4.62142C24.6314 4.53433 24.7774 4.79561 25.1019 4.89722C25.2803 4.95528 25.3777 5.0206 25.3128 5.04238C25.1992 5.10044 26.059 5.67379 26.2537 5.67379C26.3348 5.67379 26.3997 5.72459 26.3997 5.78991C26.3997 5.94958 26.9999 6.27618 27.1297 6.18183C27.1783 6.14554 27.3243 6.10925 27.4216 6.10925C27.5676 6.10925 27.5676 6.12377 27.4216 6.16732C27.2919 6.20361 27.2919 6.25441 27.4703 6.35602C27.6001 6.43585 27.6974 6.45762 27.6974 6.40682C27.6974 6.35601 27.7785 6.3415 27.8597 6.36327C27.957 6.3923 28.0056 6.45763 27.9894 6.52295C27.9083 6.69713 28.4437 6.81326 28.833 6.71165C29.0925 6.63181 29.125 6.63907 29.0439 6.74068C28.979 6.81326 29.0114 6.84229 29.1088 6.81326C29.2061 6.78423 29.3683 6.81325 29.4819 6.87131C29.6279 6.95115 29.7414 6.95841 29.8874 6.9076C30.001 6.86406 30.1632 6.83502 30.2281 6.84228C30.3092 6.84954 30.5039 6.84954 30.6661 6.84228C30.9419 6.83502 30.9419 6.82051 30.7148 6.72616C30.3579 6.56649 30.6985 6.32698 31.2663 6.33424C31.6394 6.33424 31.6394 6.3415 31.3474 6.39956C31.0716 6.45037 31.0716 6.46488 31.315 6.46488C31.461 6.47214 31.6394 6.4794 31.7043 6.48666C31.753 6.50118 31.8179 6.45037 31.8503 6.38505C31.8665 6.31247 31.7367 6.24715 31.4772 6.21812C31.1041 6.18183 31.0879 6.16731 31.315 6.00764C31.5583 5.84798 31.5421 5.84072 31.169 5.87701C30.8608 5.89878 30.7959 5.88427 30.877 5.79718C31.0068 5.63025 31.6719 5.76089 31.6881 5.95684C31.7205 6.21812 31.8665 6.2036 31.9801 5.93507C32.045 5.80443 32.2072 5.64476 32.3694 5.59396C32.6127 5.50687 32.629 5.50686 32.4505 5.60847C32.2072 5.74637 32.045 6.27618 32.2559 6.21812C32.337 6.18909 32.4019 6.12377 32.4019 6.06571C32.4019 6.00765 32.5154 5.94233 32.6452 5.92056C32.775 5.89152 32.8885 5.83346 32.8885 5.78266C32.8885 5.73185 33.0345 5.6738 33.213 5.65202C33.4239 5.63025 33.5699 5.52864 33.6348 5.39074C33.6996 5.2601 33.7808 5.17301 33.8132 5.18753C33.8456 5.2093 34.2187 5.07866 34.6405 4.90448C35.0947 4.71578 35.4354 4.62142 35.5003 4.66497C35.6301 4.76658 35.7761 4.65772 35.7274 4.49079C35.6787 4.38193 35.841 4.33112 36.1816 4.36015C36.2627 4.36741 36.279 4.33837 36.2303 4.30208C36.1005 4.20773 36.571 4.05532 36.7981 4.12064C36.9441 4.15693 36.9603 4.13516 36.8954 4.05533C36.7656 3.90292 37.0901 3.80856 37.2847 3.9392C37.3983 4.01903 37.4307 4.01904 37.4307 3.94646C37.4307 3.89566 37.593 3.83033 37.8038 3.79404C38.323 3.70695 39.5396 4.00452 39.5396 4.22225C39.5396 4.2658 39.6045 4.28757 39.6694 4.26579C39.7343 4.25128 39.8154 4.29483 39.8154 4.37466C39.8316 4.44724 39.9614 4.56336 40.0912 4.62868C40.2372 4.68674 40.3507 4.77383 40.3507 4.81012C40.3507 4.91899 40.9023 5.16575 41.1618 5.16575C41.3241 5.16575 41.3403 5.18753 41.2267 5.22382C41.097 5.26011 41.1943 5.33994 41.5025 5.46332C41.7621 5.57218 41.9729 5.6375 41.9729 5.60847C41.9729 5.5867 42.0541 5.61573 42.1352 5.67379C42.2649 5.76814 42.2974 5.76089 42.2974 5.65202C42.2974 5.5867 42.3947 5.52864 42.5083 5.52864C42.6381 5.52864 42.6218 5.49961 42.4596 5.45606C42.2812 5.40526 42.2649 5.38348 42.4272 5.38348C42.5569 5.38348 42.6867 5.4488 42.7354 5.52864C42.7841 5.60847 42.8976 5.67379 42.9787 5.67379C43.0598 5.67379 43.0761 5.6375 43.0274 5.60121C42.9625 5.55767 43.1085 5.52864 43.3356 5.52864C43.5627 5.52864 43.7736 5.55767 43.7736 5.60121C43.7898 5.6375 43.8061 5.71734 43.8223 5.76089C43.8547 5.85524 44.2441 5.84798 44.4063 5.76089C44.4549 5.73186 44.6172 5.70283 44.7956 5.68831C44.9578 5.6738 45.2498 5.59396 45.4445 5.51413C45.6229 5.42703 45.6878 5.38349 45.5905 5.41252C45.4769 5.44155 45.3796 5.42703 45.3796 5.38348C45.3796 5.32542 45.5256 5.31091 45.7527 5.33994C46.0123 5.36897 46.1907 5.33268 46.3529 5.23833C46.4665 5.16575 46.6449 5.12221 46.726 5.14398C46.8072 5.16576 47.0829 5.07866 47.3263 4.95528C47.5858 4.8319 47.894 4.73029 48.0238 4.73029C48.1536 4.73029 48.3807 4.66497 48.5429 4.58514C48.7052 4.5053 48.9972 4.43998 49.1918 4.43998C49.4027 4.43998 49.5974 4.38918 49.6623 4.33112C49.7109 4.27305 49.8245 4.22225 49.9218 4.22225C50.0191 4.22225 50.0678 4.25128 50.0192 4.28032C49.9867 4.30935 50.1652 4.34563 50.4247 4.35289C50.7167 4.36015 50.8951 4.33112 50.8951 4.28032C50.9114 4.22225 50.9925 4.23677 51.1223 4.30935C51.2358 4.38193 51.398 4.43998 51.4629 4.43998C51.6576 4.43998 53.1825 4.95528 53.8314 5.23833C54.8209 5.67379 55.7618 5.97861 56.0051 5.93507C56.1349 5.91329 56.2809 5.92781 56.3296 5.97136C56.3945 6.00764 56.508 6.02216 56.5891 6.00039C56.6703 5.97136 56.7351 6.00765 56.7351 6.06571C56.7351 6.12377 56.8 6.18909 56.8811 6.21086C57.1245 6.28344 57.5462 6.17458 57.5462 6.0512C57.5462 5.95685 57.5949 5.9641 57.7896 6.08022C57.9194 6.1528 58.0329 6.18183 58.0329 6.14554C58.0329 6.102 58.0816 6.10925 58.1627 6.1528C58.3249 6.26166 59.7525 6.102 59.7038 5.98588C59.6713 5.93507 59.7687 5.91329 59.9471 5.93507C60.1418 5.9641 60.1094 5.93507 59.8336 5.8262C59.4118 5.65202 59.4605 5.6375 60.0445 5.75362C60.3689 5.8262 60.5311 5.81169 60.9529 5.67379C61.3422 5.55041 61.4233 5.49235 61.2449 5.4488C61.1313 5.41252 60.9042 5.40525 60.7582 5.42703C60.596 5.4488 60.4662 5.43429 60.4662 5.398C60.4662 5.28914 60.8394 5.25285 61.1314 5.33268C61.3909 5.40526 62.4129 5.2601 62.4129 5.1585C62.4129 5.12947 62.5427 5.09318 62.7049 5.07866C63.0456 5.03512 63.1267 4.80287 62.786 4.80287C62.6724 4.80287 62.5751 4.76658 62.5751 4.72303C62.5751 4.68675 62.64 4.66497 62.7211 4.68675C62.8022 4.70852 62.8996 4.65771 62.9482 4.57788C63.0023 4.48111 62.932 4.47143 62.7373 4.54885C62.4129 4.67949 62.1696 4.97706 62.4453 4.89722C62.5589 4.87545 62.5751 4.88996 62.5102 4.93351C62.4454 4.98431 62.202 5.01334 61.9587 5.01334C61.6829 5.00608 61.618 4.99157 61.8127 4.9698C61.9911 4.94802 62.0885 4.86819 62.0885 4.72303C62.0885 4.60691 62.1371 4.51981 62.2182 4.51981C62.5264 4.54159 62.7536 4.5053 62.6725 4.44724C62.6076 4.41095 62.7049 4.38918 62.8509 4.40369C63.0131 4.41821 63.2402 4.43273 63.3538 4.43273C63.5971 4.43998 63.6133 4.67223 63.3538 4.78836C63.2402 4.83916 63.224 4.87544 63.2889 4.87544C63.5322 4.87544 64.0513 4.56336 63.9702 4.46901C63.9216 4.40369 64.0351 4.38918 64.3758 4.40369C64.6516 4.42547 64.8138 4.40369 64.7651 4.3674C64.7002 4.32386 64.7976 4.29483 64.976 4.29483C65.1382 4.29483 65.414 4.23677 65.5924 4.16419C65.7709 4.09162 65.998 4.04081 66.1115 4.06258C66.2089 4.0771 66.6793 4.05532 67.1498 4.01178C67.8635 3.9392 68.0096 3.94646 68.1231 4.04081C68.2042 4.09887 68.3502 4.14967 68.4638 4.14967C68.5773 4.14967 68.7395 4.20774 68.8207 4.28032C69.1127 4.51982 69.94 5.0206 70.5402 5.31091C70.8647 5.46332 71.108 5.60848 71.0755 5.62299C70.9944 5.65928 72.0651 6.03668 72.2273 6.03668C72.276 6.03668 72.4706 6.102 72.6653 6.18183C72.9249 6.2907 73.0709 6.30521 73.2331 6.24715C73.3953 6.18183 73.444 6.18909 73.444 6.27619C73.444 6.40682 73.882 6.49391 74.028 6.39231C74.0929 6.3415 74.1902 6.34876 74.3362 6.39956C74.4984 6.45762 74.6444 6.45762 74.8878 6.40682C75.0662 6.36327 75.3582 6.32699 75.5366 6.32699C75.7151 6.32699 75.9584 6.27618 76.1044 6.21812C76.2342 6.16006 76.4451 6.10925 76.5586 6.10925C76.7209 6.10925 76.7046 6.08748 76.5262 6.03668C76.3315 5.97862 76.3477 5.9641 76.656 5.9641C76.8669 5.9641 77.0129 5.92782 76.9804 5.86976C76.948 5.82621 76.9804 5.78266 77.0453 5.78266C77.2724 5.78266 77.8077 5.50687 77.7104 5.43429C77.6455 5.39075 77.7429 5.37623 77.9375 5.398C78.3431 5.44881 79.3813 5.00608 79.1866 4.86819C79.1217 4.81738 79.138 4.80287 79.2515 4.8319C79.3488 4.85367 79.5273 4.8319 79.6409 4.77383C79.7706 4.72303 80.0951 4.62142 80.3871 4.5561C80.6791 4.49078 80.9062 4.41096 80.9062 4.38193C80.9062 4.35289 81.1495 4.33112 81.4577 4.33112C81.766 4.33112 81.9768 4.35289 81.9444 4.37466C81.8471 4.44724 82.3013 4.5924 82.4148 4.53434C82.4797 4.51256 82.5284 4.52708 82.5284 4.57788C82.5284 4.62868 82.6906 4.73029 82.9015 4.81012C83.1286 4.88996 83.1773 4.94076 83.0313 4.94802C82.7555 4.94802 83.1935 5.26736 83.7775 5.49235C83.9884 5.57218 84.1506 5.68106 84.1506 5.7246C84.1506 5.84072 84.7671 5.99314 85.2862 6.01491C85.5133 6.02217 85.7079 6.06571 85.7404 6.10925C85.7728 6.14554 85.8864 6.16006 85.9837 6.13103C86.0811 6.102 86.1135 6.13103 86.0486 6.20361C85.9837 6.28344 86.0811 6.32699 86.4055 6.36327C87.0382 6.42134 87.7357 6.33425 88.1899 6.13103C88.4008 6.04394 88.6442 5.9641 88.7253 5.9641C88.8064 5.9641 88.8226 5.92781 88.7739 5.89152C88.7253 5.84798 88.5955 5.81895 88.5144 5.81895C88.4171 5.81895 88.3846 5.84798 88.4495 5.88427C88.5468 5.9641 87.9142 6.14554 87.7682 6.08022C87.7033 6.05845 87.5573 6.08023 87.4275 6.12378C87.1517 6.22538 86.7462 6.26166 86.7462 6.18909C86.7462 6.1528 86.9408 6.06571 87.168 5.99313C87.3951 5.92056 87.687 5.81895 87.8006 5.76815C87.9142 5.71734 88.0602 5.70283 88.1413 5.73186C88.2224 5.76089 88.1737 5.71734 88.0439 5.64476C87.9142 5.56492 87.8817 5.52138 87.9953 5.55041C88.0926 5.57945 88.2873 5.55767 88.4171 5.49961C88.5468 5.44154 88.6928 5.40525 88.7415 5.42703C88.7902 5.45606 88.9848 5.42703 89.1633 5.36897C89.3579 5.31091 89.4553 5.23833 89.3904 5.21656C89.3417 5.18753 89.3742 5.16575 89.4715 5.16575C89.5688 5.16575 89.6337 5.23107 89.6175 5.31091C89.6013 5.398 89.5039 5.44881 89.3417 5.43429C89.1957 5.42703 89.1146 5.46332 89.147 5.54316C89.1957 5.68831 88.9199 5.71734 88.8064 5.57945C88.7415 5.51413 88.6766 5.52138 88.5468 5.60121C88.4171 5.68105 88.4657 5.73186 88.7415 5.79718C89.0497 5.86976 89.1795 5.85524 89.6175 5.70282C89.8933 5.60847 90.2015 5.52864 90.2826 5.52864C90.3637 5.52864 90.5259 5.47783 90.6395 5.41977C90.753 5.35445 90.7693 5.31091 90.6719 5.31091C90.5908 5.31091 90.461 5.25285 90.3962 5.18027C90.315 5.08592 90.3475 5.07867 90.4935 5.14398C90.5908 5.18753 90.7855 5.2093 90.8991 5.18753C91.0288 5.16576 91.1586 5.20204 91.2235 5.26011C91.2884 5.3472 91.4182 5.35445 91.7913 5.31091C92.0508 5.27462 92.2617 5.26736 92.2617 5.29639C92.2617 5.32543 92.505 5.33994 92.7808 5.33994C93.089 5.33268 93.2999 5.28913 93.2837 5.24559C93.2513 5.20204 93.3162 5.16575 93.4135 5.16575C93.5108 5.16575 93.5433 5.23107 93.4784 5.31091C93.381 5.45606 93.5108 5.49235 94.0137 5.46332C94.1273 5.45606 94.1921 5.49235 94.1759 5.54316C94.1435 5.5867 94.2084 5.6375 94.2895 5.6375C94.7924 5.66653 95.3277 5.76814 95.2628 5.8262C95.2142 5.85523 95.3277 5.86975 95.5062 5.85523C95.717 5.84072 95.8306 5.86249 95.8306 5.93507C95.8306 5.99313 95.8955 6.02942 95.9766 6.00764C96.0577 5.97861 96.155 6.00039 96.1875 6.04393C96.2199 6.08748 96.447 6.12378 96.6904 6.12378C96.9337 6.12378 97.2095 6.17457 97.3068 6.22538C97.4041 6.28344 97.6312 6.32699 97.7935 6.32699C97.9719 6.32699 98.1017 6.34876 98.1017 6.3778C98.1017 6.41408 98.2801 6.47215 98.5073 6.52295C98.7344 6.5665 98.8804 6.57375 98.8317 6.54472C98.783 6.50843 98.8317 6.47214 98.9453 6.45763C99.0426 6.44311 99.075 6.38505 99.0101 6.33424C98.9128 6.27618 98.8317 6.26892 98.6695 6.32699C98.5235 6.37779 98.4099 6.37053 98.2639 6.2907C98.0855 6.19635 98.1504 6.18183 98.6695 6.18183C99.1886 6.18183 99.2535 6.16732 99.0588 6.06571C98.9128 5.98588 98.8155 5.97862 98.783 6.03668C98.7344 6.08748 98.6046 6.07297 98.3775 5.98588C98.0855 5.86975 98.053 5.86976 98.1504 5.97862C98.2152 6.06571 98.1828 6.08748 98.0043 6.05845C97.5339 5.97862 97.7935 5.85524 98.3775 5.88427C98.4748 5.89152 98.6046 5.86249 98.6695 5.81895C98.7181 5.78266 98.8479 5.74637 98.929 5.74637C99.0264 5.74637 99.0588 5.7754 98.9939 5.81169C98.9453 5.85524 99.0426 5.87701 99.221 5.86976C99.4373 5.86492 99.4427 5.81895 99.2373 5.73186C98.8317 5.55767 98.3612 5.55767 98.491 5.7246C98.5721 5.83347 98.5397 5.8262 98.345 5.71008C98.1828 5.62299 98.1504 5.55767 98.2639 5.54316C98.345 5.52864 98.4261 5.45606 98.4261 5.38348C98.4261 5.31091 98.5073 5.22381 98.5884 5.20204C98.7019 5.17301 98.7344 5.21656 98.6532 5.33994C98.5559 5.51412 98.5884 5.52864 99.075 5.52864C99.367 5.52864 99.5455 5.55767 99.4806 5.60121C99.4157 5.64476 99.5941 5.67379 99.9024 5.67379C100.389 5.67379 100.405 5.68105 100.129 5.76815C99.9024 5.84798 99.8861 5.88427 100.048 5.92781C100.194 5.9641 100.227 5.95684 100.146 5.89878C100.065 5.84798 100.211 5.80443 100.535 5.76815C100.827 5.74637 101.087 5.68105 101.135 5.63025C101.184 5.57219 101.346 5.52864 101.492 5.52864C101.687 5.52864 101.703 5.54315 101.541 5.59396C101.362 5.63751 101.379 5.66654 101.606 5.70282C101.963 5.76089 102.238 5.64476 102.092 5.49235C102.027 5.41251 101.898 5.38348 101.703 5.41977C101.492 5.45606 101.476 5.44155 101.622 5.37623C101.768 5.31091 101.93 5.31817 102.336 5.41252C102.985 5.55767 102.968 5.55767 102.968 5.37623C102.968 5.28188 103.033 5.24559 103.179 5.28187C103.277 5.3109 103.26 5.28914 103.131 5.23107C103.001 5.17301 102.806 5.07866 102.693 5.0206C102.514 4.92625 102.498 4.92625 102.579 5.03512C102.644 5.12947 102.595 5.14398 102.336 5.11495C102.141 5.09318 101.995 5.04237 101.995 5.00609C101.995 4.9698 102.06 4.95528 102.141 4.98431C102.222 5.00608 102.336 4.99157 102.401 4.95528C102.449 4.91173 102.611 4.90448 102.757 4.92625C102.903 4.95528 102.985 4.94077 102.92 4.90448C102.871 4.86093 102.952 4.78835 103.114 4.73755C103.406 4.6432 103.406 4.29483 103.114 4.29483C103.033 4.29483 103.017 4.25129 103.066 4.20048C103.114 4.14242 102.952 4.04081 102.725 3.96097C102.498 3.8884 102.319 3.76502 102.319 3.69244C102.319 3.56906 102.303 3.56906 102.06 3.67067C101.833 3.77227 101.768 3.76501 101.379 3.60535C101.135 3.50374 100.892 3.4239 100.843 3.4239C100.632 3.4239 99.8537 3.04651 99.8213 2.93038C99.7888 2.85055 99.4968 2.77071 98.9777 2.70539C98.5397 2.65458 98.0044 2.54572 97.7935 2.47314C97.3717 2.32073 97.0473 2.2917 97.2257 2.41508C97.2906 2.47314 97.2095 2.4804 96.9499 2.44411C96.739 2.41508 96.4957 2.38605 96.3984 2.37879C96.3173 2.37879 96.1388 2.32799 96.0253 2.27719C95.7333 2.16107 95.4737 2.16832 95.5386 2.2917C95.571 2.34976 95.5224 2.40057 95.425 2.39331C95.3439 2.39331 95.279 2.36428 95.2953 2.33525C95.3115 2.30622 95.2304 2.25541 95.1006 2.23364C94.9708 2.21186 94.8573 2.23364 94.8573 2.27719C94.8573 2.32799 94.7924 2.32799 94.6626 2.28445C94.4841 2.22638 93.4135 2.21187 93.2837 2.26267C93.2026 2.2917 92.9106 2.31347 92.5699 2.32799C92.3266 2.33525 92.2617 2.37153 92.3266 2.44411C92.3915 2.5312 92.3104 2.54572 91.9211 2.51669C91.5155 2.4804 91.4019 2.50217 91.337 2.62555C91.2884 2.70539 91.1748 2.77071 91.0937 2.77071C91.0126 2.77071 90.9802 2.74168 91.0288 2.70539C91.0775 2.67636 90.9315 2.66185 90.7206 2.68362C90.5097 2.69814 90.3475 2.74894 90.3637 2.79974C90.3799 2.84329 90.2826 2.87957 90.1528 2.87957C90.023 2.87957 89.8122 2.90861 89.7148 2.93764C89.585 2.97393 89.5039 2.95941 89.5039 2.91586C89.5039 2.87232 89.4391 2.85054 89.3579 2.87957C89.2606 2.90135 89.147 2.87231 89.0659 2.81425C89.001 2.75619 88.8713 2.70539 88.7739 2.70539C88.6928 2.69813 88.6117 2.6691 88.6117 2.62555C88.6117 2.58927 88.4008 2.45863 88.1575 2.33525C87.8979 2.21187 87.6708 2.07397 87.6546 2.02317C87.5897 1.8127 87.0706 1.63851 87.0706 1.82721C87.0706 1.8635 87.1842 1.89978 87.3302 1.89978C87.4599 1.89978 87.5248 1.93607 87.4762 1.97962C87.3464 2.06671 86.7462 1.85624 86.7948 1.74012C86.8111 1.70383 86.6813 1.63125 86.5028 1.58771C86.3244 1.5369 86.1459 1.48609 86.0973 1.46432C86.0486 1.44255 85.8053 1.41352 85.5457 1.40626C85.27 1.39901 85.0266 1.36271 84.9617 1.32642C84.9131 1.28288 84.6373 1.26111 84.3615 1.26111C83.9722 1.26837 83.8748 1.2974 83.9397 1.38449C84.0208 1.4861 84.0046 1.4861 83.7451 1.38449C83.518 1.28288 83.3557 1.27563 82.9502 1.33369C82.6744 1.36998 82.0093 1.45707 81.474 1.52964C80.9224 1.60222 80.5169 1.68931 80.5331 1.74012C80.5655 1.79092 80.4682 1.82721 80.3384 1.82721C80.2086 1.82721 80.0951 1.87801 80.0951 1.94333C80.0951 2.00139 80.0302 2.03768 79.9653 2.01591C79.8031 1.97236 79.1217 2.23364 79.1217 2.32799C79.1217 2.36428 78.9271 2.41508 78.6837 2.43686C78.4566 2.46589 78.116 2.56749 77.9537 2.6691C77.7753 2.76345 77.5482 2.84329 77.4184 2.84329C77.3049 2.84329 77.1264 2.89409 76.9966 2.95941C76.8182 3.06102 76.7858 3.06102 76.6397 2.9449C76.51 2.85055 76.4613 2.84328 76.3478 2.92312C76.2342 3.00295 76.2018 3.00296 76.2018 2.90861C76.2018 2.84329 76.0557 2.73442 75.8773 2.66184C75.6989 2.58927 75.5529 2.48766 75.5529 2.4296C75.5529 2.37154 75.488 2.34251 75.4069 2.36428C75.3258 2.38605 75.1311 2.32073 74.9851 2.21912C74.7904 2.08849 74.7742 2.04494 74.9202 2.08123C75.05 2.11026 74.9851 2.06671 74.7742 1.99414C74.5146 1.89979 74.4335 1.81269 74.4984 1.71834C74.5795 1.62399 74.5633 1.60222 74.466 1.66028C74.2713 1.78367 73.6873 1.60222 73.6873 1.42078C73.6873 1.33368 73.5089 1.2611 73.2006 1.21756C72.9411 1.18127 72.4706 1.10144 72.1624 1.04338C71.8704 0.985318 71.5298 0.934507 71.4324 0.927249C71.3351 0.919991 71.1729 0.898224 71.0918 0.869193C70.9944 0.840162 70.3455 0.832901 69.6318 0.847416C68.3178 0.869189 66.7118 1.06515 66.4847 1.23208C66.3224 1.35546 65.2356 1.60948 65.1058 1.55868C65.0571 1.52964 65.0084 1.55142 65.0084 1.60222C65.0084 1.66028 64.8787 1.67479 64.6516 1.65302C64.4407 1.63125 64.3758 1.63125 64.4893 1.65302C64.6353 1.68205 64.5542 1.74011 64.1973 1.83446C63.9216 1.9143 63.6296 1.95784 63.5647 1.94333C63.4349 1.90704 62.6238 2.24815 62.7049 2.30621C62.8347 2.41508 62.6887 2.4804 62.348 2.43686C62.0885 2.40783 61.9425 2.4296 61.8776 2.50943C61.618 2.81426 59.9633 2.91586 59.4929 2.65459C59.3793 2.60378 59.2334 2.57475 59.1522 2.59652C59.0711 2.61829 59.0062 2.59652 59.0062 2.55298C59.0062 2.50943 58.8278 2.40057 58.6169 2.31348C58.26 2.16107 58.1951 2.11752 58.1951 1.98688C58.1951 1.95785 58.1302 1.97962 58.0491 2.03768C57.9356 2.11752 57.8382 2.11751 57.53 2.01591C57.3191 1.95059 57.2218 1.89978 57.3191 1.89978C57.4002 1.89978 57.5787 1.94334 57.6922 1.98688C57.8545 2.05946 57.8545 2.04494 57.6922 1.9143C57.5625 1.82721 57.3516 1.76189 57.2056 1.76915C57.0596 1.78367 56.946 1.76189 56.9298 1.73286C56.9136 1.624 56.3458 1.47158 55.9727 1.46432C55.778 1.46432 55.5671 1.42803 55.5023 1.38449C55.4374 1.34094 55.1778 1.32642 54.8534 1.35546C54.3991 1.39174 54.318 1.37723 54.3991 1.28288C54.4803 1.18853 54.3829 1.16675 53.7989 1.18127C52.7607 1.19578 51.2196 1.33369 51.3169 1.40626C51.3656 1.4353 51.1223 1.46432 50.7816 1.46432C50.376 1.46432 50.2463 1.4861 50.376 1.52964C50.5545 1.58045 50.5545 1.59496 50.3598 1.63125C50.23 1.65303 50.0354 1.63125 49.9218 1.58771C49.7596 1.52239 49.7434 1.52239 49.8245 1.58771C49.8894 1.63851 49.8569 1.68205 49.7758 1.68205C49.6785 1.68205 49.5974 1.65302 49.5974 1.60948C49.5974 1.57319 49.4838 1.55868 49.3378 1.58771C49.1432 1.61674 49.1432 1.64576 49.2892 1.68205C49.4189 1.7256 49.3865 1.76189 49.1432 1.81995C48.8998 1.87801 48.7863 1.87802 48.7376 1.80544C48.6727 1.75463 48.6403 1.76189 48.6403 1.83446C48.6241 1.90704 48.3483 2.00865 47.9914 2.07397C47.6345 2.13203 47.2127 2.24816 47.0505 2.32799C46.6612 2.50943 45.8663 2.50943 45.8663 2.32799C45.8663 2.25541 45.7203 2.15381 45.5418 2.103C45.3634 2.0522 45.2174 1.97236 45.2174 1.92882C45.2174 1.87801 44.8929 1.73286 44.4874 1.60222C44.0981 1.46432 43.7574 1.2974 43.7574 1.23208C43.7574 1.08692 42.9949 0.890966 42.3623 0.869193C42.1352 0.854677 41.8918 0.811131 41.8594 0.760327C41.8107 0.709523 41.7134 0.680489 41.6485 0.702262C41.5674 0.724035 41.4701 0.709518 41.4214 0.673229C41.3727 0.644199 41.0321 0.636943 40.6427 0.665973C40.2696 0.702262 39.8641 0.709523 39.7505 0.68775C39.637 0.665977 39.5396 0.687748 39.5396 0.731295C39.5396 0.774841 39.491 0.803873 39.4261 0.796616C39.0854 0.753069 38.2418 0.890962 38.2418 0.99257C38.2418 1.05063 38.1607 1.10144 38.0634 1.10144C37.9823 1.10144 37.9498 1.13772 37.9985 1.17401C38.0634 1.22482 37.9661 1.23933 37.6903 1.20305C37.4307 1.17401 37.2685 1.18853 37.2685 1.23208C37.2685 1.27562 37.1063 1.33368 36.9116 1.36271C36.5385 1.42077 36.425 1.42804 36.0194 1.44981C35.9058 1.45707 35.8085 1.50061 35.8085 1.54415C35.8085 1.60222 35.9059 1.59496 36.1005 1.52964C36.2627 1.47158 36.2465 1.50061 36.0356 1.60222C35.8572 1.68931 35.5652 1.76915 35.4192 1.78366C35.257 1.79092 35.0785 1.84172 35.0136 1.89253C34.9487 1.94333 34.819 1.97236 34.7379 1.96511C34.3972 1.93607 34.3161 1.97962 34.527 2.09575C34.6405 2.16832 34.673 2.20461 34.6081 2.17558C34.527 2.14655 34.3647 2.17558 34.235 2.24816C34.0836 2.32557 34.0349 2.32316 34.089 2.2409C34.1376 2.16107 34.1214 2.12477 34.0241 2.1538C33.9267 2.17558 33.8619 2.26267 33.8619 2.34977C33.8619 2.44412 33.7808 2.48041 33.6348 2.45863C33.4725 2.4296 33.4239 2.45137 33.4888 2.52394C33.5374 2.58926 33.4725 2.62555 33.2779 2.62555C33.0345 2.62555 33.0183 2.64007 33.1968 2.69088C33.4239 2.7562 33.3103 2.91586 33.0345 2.91586C32.9372 2.91586 32.921 2.87232 32.9859 2.82152C33.0832 2.76346 33.0345 2.76345 32.8399 2.83603C32.6452 2.90861 32.6127 2.96667 32.7263 3.06827C32.8561 3.17714 32.8399 3.19166 32.6614 3.16263C32.5316 3.14085 32.3532 3.1844 32.2396 3.27875C32.1423 3.35858 31.9963 3.40939 31.9152 3.38761C31.8341 3.36584 31.7368 3.38036 31.6719 3.4239C31.4934 3.55454 31.2663 3.4239 31.2663 3.19892C31.2663 3.06102 31.1852 2.98844 31.023 2.98844C30.877 2.98844 30.7796 2.92312 30.7796 2.83603C30.7796 2.6691 30.293 2.26267 30.0983 2.26267C30.0334 2.26267 29.9685 2.22638 29.9685 2.17558C29.9685 2.13203 29.7739 1.97962 29.5468 1.84898C29.2385 1.66754 29.0763 1.61673 28.9465 1.6748C28.8492 1.71834 28.7032 1.75463 28.6221 1.75463C28.541 1.75463 28.6059 1.70383 28.7357 1.63851C29.0439 1.50061 28.9303 1.38448 28.541 1.43529C28.3139 1.47158 28.2977 1.46432 28.5085 1.399C28.7194 1.32642 28.7194 1.31191 28.5085 1.24659C28.3788 1.2103 28.3301 1.17401 28.395 1.17401C28.4761 1.17401 28.3788 1.07241 28.1841 0.949026C27.9408 0.803872 27.7137 0.738556 27.4703 0.753071C27.2919 0.760329 27.0323 0.745806 26.9188 0.709518C26.8052 0.680487 26.6592 0.665977 26.6268 0.68775C26.5781 0.709523 26.2861 0.680491 25.9779 0.622429C25.6534 0.564367 25.2479 0.535333 24.9883 0.564364C24.6963 0.600652 24.599 0.593395 24.6801 0.528075C24.745 0.484529 24.6963 0.448242 24.5503 0.448242C24.4043 0.448242 24.2908 0.484529 24.2908 0.528075ZM43.2707 1.11596C43.2707 1.1595 43.1734 1.15224 43.0274 1.10144C42.8976 1.05063 42.7841 0.99983 42.7841 0.985314C42.7841 0.970799 42.8976 0.978053 43.0274 0.999826C43.1572 1.02886 43.2707 1.07967 43.2707 1.11596ZM19.8946 1.87075C19.7972 1.92881 19.6512 1.95785 19.6026 1.92882C19.5539 1.89979 19.6026 1.8635 19.7161 1.84898C19.8134 1.82721 19.8621 1.77641 19.8135 1.74012C19.7486 1.68931 19.781 1.68205 19.8946 1.71109C20.0406 1.75463 20.0406 1.79092 19.8946 1.87075ZM33.9105 2.66184C33.8619 2.72716 33.7807 2.76345 33.7483 2.74168C33.6996 2.7199 33.7159 2.67636 33.7807 2.63281C33.9267 2.51669 34.0241 2.53846 33.9105 2.66184ZM50.668 3.32229C50.668 3.38761 50.7492 3.46019 50.8789 3.48197C51.0412 3.50374 51.0736 3.48196 51.0087 3.39487C50.9438 3.32229 50.96 3.28601 51.0574 3.31504C51.1547 3.33681 51.2196 3.40939 51.2196 3.46019C51.2196 3.51825 51.3169 3.54729 51.4305 3.52551C51.6738 3.48922 52.3552 3.7505 52.3389 3.88114C52.3389 3.94646 52.3065 3.94646 52.2416 3.87389C52.2091 3.83034 52.0631 3.78679 51.9334 3.78679C51.8036 3.78679 51.6576 3.74325 51.6089 3.69244C51.5116 3.57632 51.0249 3.57632 50.7005 3.69244C50.5869 3.72873 50.376 3.79405 50.2463 3.82308C50.0354 3.87388 50.0354 3.86663 50.2138 3.77228C50.3923 3.67067 50.3436 3.67067 49.7596 3.73599C49.4027 3.77953 49.1918 3.83759 49.2729 3.85936C49.354 3.88114 49.2729 3.9392 49.1107 3.99001C48.8349 4.06258 48.7863 4.06258 48.7863 3.96097C48.7863 3.82308 48.2834 3.85211 48.1698 3.99726C48.1212 4.05532 48.1698 4.0771 48.2672 4.05533C48.5105 3.98275 48.6078 4.25128 48.3969 4.41095C48.1049 4.62868 47.7805 4.62143 47.8129 4.38918C47.8616 4.08436 47.8292 4.02629 47.6507 4.14967C47.5534 4.21499 47.4885 4.22225 47.4885 4.17145C47.4885 4.06258 48.186 3.85211 49.1107 3.67792C49.5163 3.60535 50.0192 3.46745 50.2463 3.3731C50.7167 3.17714 50.7005 3.17714 50.668 3.32229ZM67.312 3.32229C67.1011 3.38761 66.8902 3.41664 66.8416 3.39487C66.7767 3.3731 66.8253 3.35133 66.9389 3.35133C67.0524 3.35133 67.0849 3.31504 67.0362 3.27875C66.9875 3.2352 67.1011 3.20617 67.312 3.20617H67.6689L67.312 3.32229ZM68.4962 3.27875C68.4475 3.31504 68.6098 3.3731 68.8531 3.39487C69.2587 3.44567 69.2587 3.45293 68.9829 3.50374C68.5287 3.58357 68.3827 3.58357 68.4962 3.50374C68.5449 3.46745 68.5124 3.41664 68.4151 3.38761C68.2529 3.34407 68.334 3.20617 68.5124 3.20617C68.5611 3.20617 68.5449 3.2352 68.4962 3.27875ZM29.0763 3.4239C29.125 3.46019 29.0925 3.49648 29.0114 3.49648C28.9141 3.49648 28.833 3.46019 28.833 3.4239C28.833 3.38036 28.8654 3.35133 28.8979 3.35133C28.9465 3.35133 29.0276 3.38036 29.0763 3.4239ZM50.5058 4.01904C50.5545 4.04807 50.7167 4.04807 50.8627 4.0263C51.0574 3.99727 51.0411 4.01904 50.814 4.09887C50.4896 4.20774 50.0678 4.17145 49.8407 4.00452C49.7272 3.92468 50.3274 3.94646 50.5058 4.01904ZM64.7651 4.12791C64.9922 4.20774 65.0084 4.22951 64.83 4.20048C64.684 4.17871 64.4731 4.20048 64.3596 4.24403C64.1973 4.30935 64.1324 4.30935 64.0838 4.23677C64.0351 4.19322 63.9378 4.16419 63.8567 4.19322C63.7756 4.21499 63.7107 4.19322 63.7107 4.14967C63.7107 4.10613 63.8891 4.09161 64.1649 4.12064C64.5056 4.14967 64.5542 4.14241 64.3596 4.08435C64.2298 4.04081 64.1973 4.00452 64.2785 4.00452C64.3758 4.01178 64.5867 4.06259 64.7651 4.12791ZM49.5487 4.15693C49.4027 4.20048 49.3054 4.25854 49.354 4.30208C49.4189 4.33837 49.3054 4.3674 49.1269 4.3674C48.7214 4.3674 48.6727 4.17145 49.0783 4.12791C49.6298 4.06259 49.8569 4.07709 49.5487 4.15693ZM93.235 4.25128C93.235 4.2658 93.1215 4.30209 92.9755 4.32386C92.8457 4.34563 92.7808 4.33837 92.8295 4.29483C92.9268 4.22225 93.235 4.19322 93.235 4.25128ZM47.3912 4.62142C46.9694 4.75932 46.8883 4.68675 47.2614 4.5053C47.4398 4.41821 47.5858 4.38918 47.6183 4.43998C47.6507 4.48353 47.5534 4.56336 47.3912 4.62142ZM94.4517 4.43998C94.5166 4.48353 94.5004 4.51256 94.4193 4.5053C94.0948 4.48353 94.0137 4.51982 94.2084 4.62142C94.3544 4.70126 94.3544 4.73029 94.2246 4.73029C94.1273 4.73029 93.9975 4.67949 93.9488 4.62142C93.8839 4.56336 93.7866 4.53433 93.7055 4.5561C93.6244 4.57788 93.5595 4.57788 93.5595 4.54885C93.5595 4.51982 93.9326 4.42546 94.3219 4.37466C94.3382 4.3674 94.403 4.40369 94.4517 4.43998ZM92.4726 4.56337C92.4402 4.61417 92.5699 4.67223 92.7484 4.694C92.9268 4.72303 93.0728 4.77384 93.0728 4.81739C93.0728 4.86093 92.9755 4.86093 92.8295 4.80287C92.6348 4.73029 92.5862 4.73029 92.5862 4.8319C92.5862 4.89722 92.4726 4.94802 92.3428 4.94802C92.213 4.94802 92.0995 4.91173 92.0995 4.87544C92.0995 4.8319 92.1806 4.80287 92.2779 4.80287C92.359 4.80287 92.3915 4.76658 92.3266 4.72303C92.2617 4.66497 92.1806 4.67223 92.0833 4.73755C91.9697 4.81738 91.8886 4.81739 91.6615 4.70852C91.4019 4.59966 91.4019 4.57062 91.6128 4.51256C91.9373 4.41821 92.5213 4.4545 92.4726 4.56337ZM42.1352 4.66497C42.1352 4.70852 42.0703 4.71577 41.9729 4.694C41.8918 4.67223 41.8107 4.61417 41.8107 4.57788C41.8107 4.53433 41.8918 4.52707 41.9729 4.54885C42.0703 4.57062 42.1352 4.62868 42.1352 4.66497ZM91.045 4.65771C90.8828 4.73755 90.6882 4.80287 90.6233 4.80287C90.3799 4.80287 90.6557 4.5924 90.9315 4.56337C91.0937 4.54159 91.2397 4.52707 91.2722 4.51981C91.3046 4.51981 91.2073 4.57788 91.045 4.65771ZM95.8306 4.76658C95.9117 4.81012 95.8144 4.83916 95.6035 4.83916C95.2953 4.83916 95.279 4.81739 95.425 4.67949C95.5224 4.58514 95.6197 4.55611 95.6521 4.60691C95.6846 4.65772 95.7657 4.72303 95.8306 4.76658ZM90.2339 4.80287C90.1853 4.83916 90.0393 4.87544 89.9419 4.87544C89.8284 4.87544 89.8446 4.84641 89.9906 4.80287C90.2988 4.71577 90.3637 4.71577 90.2339 4.80287ZM94.0299 4.8319C94.1922 4.91899 94.1759 4.9335 93.9488 4.91899C93.7866 4.90447 93.6244 4.86093 93.5919 4.81739C93.5108 4.69401 93.8028 4.70852 94.0299 4.8319ZM43.2707 4.87544C43.2707 4.91173 43.2383 4.94802 43.2058 4.94802C43.1572 4.94802 43.0761 4.91173 43.0274 4.87544C42.9787 4.8319 43.0112 4.80287 43.0923 4.80287C43.1896 4.80287 43.2707 4.8319 43.2707 4.87544ZM45.0552 4.87544C45.0552 4.91173 45.0227 4.94802 44.9903 4.94802C44.9416 4.94802 44.8605 4.91173 44.8118 4.87544C44.7632 4.8319 44.7956 4.80287 44.8767 4.80287C44.9741 4.80287 45.0552 4.8319 45.0552 4.87544ZM91.8237 4.92625C91.8075 4.97706 92.0346 4.99882 92.4077 4.99157C92.7646 4.99157 93.0079 5.00609 92.9593 5.03512C92.9268 5.07141 92.5699 5.09318 92.1644 5.09318C91.6615 5.09318 91.4668 5.06415 91.5479 5.01334C91.5966 4.9698 91.5479 4.90448 91.4344 4.86093C91.2559 4.81013 91.2884 4.80287 91.5317 4.82464C91.7102 4.83916 91.8399 4.88271 91.8237 4.92625ZM44.3252 5.0206C44.3738 5.05689 44.3414 5.09318 44.2603 5.09318C44.1629 5.09318 44.0818 5.05689 44.0818 5.0206C44.0818 4.97705 44.1143 4.94802 44.1467 4.94802C44.1954 4.94802 44.2765 4.97705 44.3252 5.0206ZM45.7041 5.09318C45.7041 5.18027 45.5905 5.23833 45.4445 5.23833C45.2336 5.23833 45.2174 5.21656 45.3634 5.14398C45.4607 5.08592 45.4932 5.0206 45.4283 4.99883C45.3796 4.9698 45.4121 4.94802 45.5094 4.94802C45.6229 4.94802 45.7041 5.01334 45.7041 5.09318ZM101.8 5.12946C101.752 5.15124 101.654 5.11495 101.606 5.04238C101.508 4.94077 101.525 4.93351 101.687 4.99883C101.8 5.04963 101.849 5.10769 101.8 5.12946ZM42.8652 5.09318C42.8165 5.12946 42.6705 5.16575 42.5732 5.16575C42.4596 5.16575 42.4758 5.13672 42.6218 5.09318C42.9301 5.00608 42.9949 5.00608 42.8652 5.09318ZM96.4146 5.32543C96.3173 5.35446 96.1875 5.33994 96.1388 5.29639C96.0739 5.25285 95.8793 5.23833 95.6846 5.26011C95.4899 5.28188 95.3115 5.27462 95.279 5.24559C95.2304 5.21655 95.3601 5.18753 95.5548 5.18753C95.7495 5.18027 95.9279 5.13672 95.9604 5.09318C96.009 5.04237 96.1388 5.06415 96.3173 5.14398C96.4957 5.23108 96.5281 5.28914 96.4146 5.32543ZM88.6928 5.2093C88.6928 5.26736 88.6279 5.29639 88.5306 5.27462C88.4495 5.25284 88.3684 5.28914 88.3522 5.36172C88.3522 5.47784 88.3359 5.47783 88.2224 5.3472C88.1088 5.21656 88.2224 5.15124 88.6604 5.10043C88.6766 5.09317 88.6928 5.14398 88.6928 5.2093ZM94.5328 5.16575C94.5328 5.20204 94.5004 5.23833 94.4679 5.23833C94.4193 5.23833 94.3382 5.20204 94.2895 5.16575C94.2408 5.12221 94.2733 5.09318 94.3544 5.09318C94.4517 5.09318 94.5328 5.12221 94.5328 5.16575ZM61.6018 5.23833C61.6018 5.27462 61.5369 5.31091 61.4396 5.31091C61.3585 5.31091 61.2773 5.27462 61.2773 5.23833C61.2773 5.19478 61.3585 5.16575 61.4396 5.16575C61.5369 5.16575 61.6018 5.19478 61.6018 5.23833ZM92.8619 5.2093C92.8133 5.23107 92.6673 5.23833 92.5537 5.21656C92.4239 5.19479 92.4726 5.17301 92.651 5.17301C92.8295 5.16575 92.9268 5.18752 92.8619 5.2093ZM99.5617 5.23833C99.5617 5.27462 99.4481 5.28913 99.3184 5.26736C99.1886 5.23833 99.075 5.2093 99.075 5.19479C99.075 5.18027 99.1886 5.16575 99.3184 5.16575C99.4481 5.16575 99.5617 5.19478 99.5617 5.23833ZM100.211 5.27462C100.097 5.33268 99.9348 5.38348 99.8375 5.38348C99.7401 5.38348 99.805 5.33268 99.9835 5.27462C100.389 5.13672 100.47 5.13672 100.211 5.27462ZM102.806 5.31091C102.806 5.43429 102.774 5.44881 102.579 5.36897C102.417 5.30365 102.401 5.26011 102.547 5.22382C102.806 5.14398 102.806 5.15124 102.806 5.31091ZM59.3793 5.28914C59.2658 5.30365 59.0711 5.30365 58.9738 5.28914C58.8602 5.26737 58.9414 5.25285 59.1685 5.25285C59.3956 5.25285 59.4767 5.26737 59.3793 5.28914ZM16.2283 5.53589C16.1148 5.64476 15.8877 5.75363 15.7255 5.7754C15.5632 5.79959 15.5686 5.78024 15.7417 5.71734C15.9201 5.65202 15.9688 5.59396 15.8715 5.56493C15.6606 5.51412 15.9688 5.33268 16.2608 5.33268C16.3906 5.33268 16.3906 5.398 16.2283 5.53589ZM45.0227 5.43429C44.9741 5.5867 44.7307 5.68105 44.5361 5.63025C44.3252 5.57219 44.3901 5.45607 44.6172 5.47058C44.7145 5.4851 44.7956 5.44881 44.7794 5.398C44.7469 5.35446 44.8118 5.31091 44.8929 5.31091C44.9903 5.31091 45.0552 5.36897 45.0227 5.43429ZM76.1206 5.38348C76.072 5.41977 75.926 5.43429 75.7962 5.40526C75.4555 5.35446 75.488 5.31091 75.8935 5.31091C76.072 5.31091 76.1855 5.33994 76.1206 5.38348ZM77.3211 5.53589C77.1913 5.57218 76.948 5.59396 76.7695 5.59396L76.4451 5.5867L76.7695 5.55041C76.948 5.52864 77.1589 5.46332 77.24 5.398C77.3535 5.30365 77.4184 5.30365 77.4671 5.37623C77.4995 5.42703 77.4346 5.49961 77.3211 5.53589ZM97.7773 5.41977C97.9557 5.51412 97.9395 5.52138 97.7124 5.48509C97.5664 5.46332 97.4528 5.41252 97.4528 5.37623C97.4528 5.28188 97.5501 5.29639 97.7773 5.41977ZM59.9796 5.49235C59.9796 5.55767 59.8336 5.60122 59.6227 5.59396C59.3469 5.5867 59.3145 5.57945 59.5416 5.55041C59.6876 5.5359 59.8173 5.48509 59.8173 5.4488C59.8173 5.41252 59.8498 5.38348 59.8985 5.38348C59.9471 5.38348 59.9796 5.43429 59.9796 5.49235ZM10.9561 5.68831C10.8426 5.71734 10.6804 5.71008 10.5668 5.67379C10.4695 5.63025 10.3559 5.61573 10.3073 5.6375C10.2748 5.65928 10.2261 5.63024 10.2261 5.57218C10.2261 5.49961 10.3235 5.49235 10.6804 5.55767C10.9886 5.60122 11.0697 5.65202 10.9561 5.68831ZM32.0774 5.52138C32.0774 5.56493 32.0125 5.61573 31.9152 5.6375C31.8341 5.65928 31.753 5.63024 31.753 5.57218C31.753 5.50686 31.8341 5.45606 31.9152 5.45606C32.0125 5.45606 32.0774 5.48509 32.0774 5.52138ZM57.6598 5.56493C57.6598 5.62299 57.5949 5.65202 57.5138 5.63025C57.4327 5.60847 57.4165 5.55767 57.4651 5.52138C57.6111 5.42703 57.6598 5.44155 57.6598 5.56493ZM75.5204 5.55767C75.4069 5.61573 75.2771 5.64476 75.2446 5.6375C75.1635 5.59396 75.4069 5.45606 75.5691 5.45606C75.6502 5.45606 75.634 5.49961 75.5204 5.55767ZM74.2551 5.60121C74.2551 5.6375 74.2226 5.67379 74.1902 5.67379C74.1415 5.67379 74.0604 5.6375 74.0118 5.60121C73.9631 5.55767 73.9955 5.52864 74.0767 5.52864C74.174 5.52864 74.2551 5.55767 74.2551 5.60121ZM75.9909 5.94233C75.8124 6.02217 75.7151 6.03668 75.7151 5.97862C75.7151 5.92782 75.7962 5.89152 75.8935 5.89152C75.9909 5.89152 76.0233 5.84072 75.9584 5.76089C75.8773 5.65928 75.8935 5.65202 76.0558 5.73186C76.2342 5.80443 76.218 5.84072 75.9909 5.94233ZM96.9175 5.71734C96.8688 5.73911 96.7228 5.74637 96.6093 5.7246C96.4795 5.70283 96.5281 5.68105 96.7066 5.68105C96.885 5.67379 96.9824 5.69556 96.9175 5.71734ZM73.8495 5.81895C73.8982 5.85523 73.8658 5.89152 73.7846 5.89152C73.6873 5.89152 73.6062 5.85523 73.6062 5.81895C73.6062 5.7754 73.6386 5.74637 73.6711 5.74637C73.7198 5.74637 73.8009 5.7754 73.8495 5.81895ZM76.6884 5.81895C76.6884 5.85523 76.656 5.89152 76.6235 5.89152C76.5749 5.89152 76.4937 5.85523 76.4451 5.81895C76.3964 5.7754 76.4289 5.74637 76.51 5.74637C76.6073 5.74637 76.6884 5.7754 76.6884 5.81895ZM57.384 5.89152C57.384 5.92781 57.3029 5.9641 57.2056 5.9641C57.1245 5.9641 57.092 5.92781 57.1407 5.89152C57.1894 5.84798 57.2705 5.81895 57.3191 5.81895C57.3516 5.81895 57.384 5.84798 57.384 5.89152ZM58.5845 5.88427C58.7305 5.98588 58.0654 6.02942 57.8869 5.93507C57.7734 5.87701 57.8382 5.84798 58.114 5.83347C58.3249 5.82621 58.5358 5.84798 58.5845 5.88427ZM10.5668 6.1528C10.6804 6.2907 10.5993 6.28344 10.2586 6.10925C9.99904 5.98587 9.99903 5.9641 10.2099 6.00039C10.3559 6.02942 10.5181 6.09474 10.5668 6.1528ZM29.0276 6.46488C28.7356 6.70439 28.5085 6.75519 28.5085 6.58826C28.5085 6.5302 28.6221 6.47214 28.7519 6.44311C29.125 6.37779 29.0439 6.18183 28.6383 6.18183C28.4112 6.18183 28.395 6.14796 28.5896 6.08022C28.8654 5.99313 28.9303 5.99313 29.1088 6.10925C29.2872 6.21812 29.271 6.28344 29.0276 6.46488ZM29.8874 6.17458C29.9361 6.21086 29.9036 6.26167 29.8063 6.2907C29.7252 6.31247 29.6441 6.28344 29.6441 6.22538C29.6441 6.09474 29.7414 6.07297 29.8874 6.17458ZM28.6708 6.32699C28.6708 6.36327 28.5897 6.39956 28.4923 6.39956C28.4112 6.39956 28.3788 6.36327 28.4274 6.32699C28.4761 6.28344 28.5572 6.25441 28.6059 6.25441C28.6383 6.25441 28.6708 6.28344 28.6708 6.32699ZM29.855 6.68987C29.6603 6.77696 29.5305 6.79148 29.4494 6.73342C29.2385 6.59552 29.3034 6.55924 29.7252 6.55924C30.147 6.55924 30.1308 6.56649 29.855 6.68987Z" fill="#669ACA"/>
<path fill-rule="evenodd" clip-rule="evenodd" d="M50.1812 7.53755C50.1325 7.57383 50.1974 7.61738 50.3272 7.64641C50.5705 7.68996 50.7976 7.5956 50.6192 7.51577C50.4732 7.45045 50.2785 7.45771 50.1812 7.53755Z" fill="#DC7D00"/>
<path fill-rule="evenodd" clip-rule="evenodd" d="M5.24579 8.1616C5.31068 8.21966 5.35935 8.27047 5.39179 8.27047C5.42424 8.27047 5.4729 8.21966 5.53779 8.1616C5.58646 8.09628 5.53779 8.05273 5.39179 8.05273C5.24579 8.05273 5.19712 8.09628 5.24579 8.1616Z" fill="#DC7D00"/>
<path fill-rule="evenodd" clip-rule="evenodd" d="M4.9056 8.27034C4.95411 8.30651 5.03496 8.34268 5.08347 8.34268C5.11581 8.34268 5.14815 8.30651 5.14815 8.27034C5.14815 8.22694 5.0673 8.198 4.97028 8.198C4.88943 8.198 4.8571 8.22694 4.9056 8.27034Z" fill="#DC7D00"/>
<path fill-rule="evenodd" clip-rule="evenodd" d="M24.291 8.34261C24.291 8.37878 24.3719 8.41495 24.4689 8.41495C24.5497 8.41495 24.5821 8.37878 24.5336 8.34261C24.4851 8.2992 24.4042 8.27026 24.3557 8.27026C24.3234 8.27026 24.291 8.2992 24.291 8.34261Z" fill="#DC7D00"/>
<path fill-rule="evenodd" clip-rule="evenodd" d="M43.3677 9.70748C43.3191 9.74377 43.3839 9.7728 43.5137 9.7728C43.6435 9.7728 43.7084 9.74377 43.6597 9.70748C43.6111 9.67845 43.5462 9.64941 43.5137 9.64941C43.4813 9.64941 43.4164 9.67845 43.3677 9.70748Z" fill="#DC7D00"/>
<path fill-rule="evenodd" clip-rule="evenodd" d="M0.331055 9.97587C0.331055 10.0337 0.395733 10.0627 0.476582 10.041C0.557432 10.0193 0.573604 9.96864 0.525095 9.93247C0.379566 9.83842 0.331055 9.85289 0.331055 9.97587Z" fill="#DC7D00"/>
<path fill-rule="evenodd" clip-rule="evenodd" d="M1.09277 10.1573C1.09277 10.1935 1.17362 10.2296 1.27064 10.2296C1.35149 10.2296 1.38383 10.1935 1.33532 10.1573C1.28681 10.1139 1.20596 10.085 1.15745 10.085C1.12511 10.085 1.09277 10.1139 1.09277 10.1573Z" fill="#DC7D00"/>
<path fill-rule="evenodd" clip-rule="evenodd" d="M0.606445 10.2738C0.606445 10.3319 0.687556 10.3609 0.768667 10.3392C0.866 10.3174 0.930889 10.2666 0.930889 10.223C0.930889 10.1867 0.866 10.1577 0.768667 10.1577C0.687556 10.1577 0.606445 10.2085 0.606445 10.2738Z" fill="#DC7D00"/>
<path fill-rule="evenodd" clip-rule="evenodd" d="M85.124 10.2302C85.124 10.3245 85.5782 10.4116 85.7405 10.3463C85.7891 10.3173 85.7405 10.2665 85.6107 10.2302C85.2862 10.1358 85.124 10.1431 85.124 10.2302Z" fill="#DC7D00"/>
<path fill-rule="evenodd" clip-rule="evenodd" d="M99.2853 10.4042C99.3664 10.5203 99.6746 10.5348 99.7719 10.4187C99.8368 10.3461 99.7719 10.3171 99.5448 10.3243C99.3826 10.3316 99.2528 10.3679 99.2853 10.4042Z" fill="#DC7D00"/>
<path fill-rule="evenodd" clip-rule="evenodd" d="M13.0977 10.8034C13.0977 10.8397 13.1788 10.8977 13.2599 10.9195C13.3572 10.9413 13.4221 10.934 13.4221 10.8905C13.4221 10.8542 13.3572 10.7961 13.2599 10.7743C13.1788 10.7526 13.0977 10.7598 13.0977 10.8034Z" fill="#DC7D00"/>
</svg>
