<svg width="126" height="126" viewBox="0 0 126 126" fill="none" xmlns="http://www.w3.org/2000/svg">
<path d="M115.203 94.2567H31.4191C28.6415 94.2567 25.9776 93.1533 24.0136 91.1892C22.0495 89.2252 20.9461 86.5613 20.9461 83.7837V36.6553C20.9461 33.8777 19.8427 31.2139 17.8787 29.2498C15.9146 27.2858 13.2507 26.1824 10.4731 26.1824" stroke="black" stroke-width="4" stroke-linecap="round" stroke-linejoin="round"/>
<path d="M89.0203 73.3107V20.9459C89.0203 18.1683 87.9169 15.5044 85.9529 13.5404C83.9888 11.5763 81.325 10.4729 78.5474 10.4729H73.3109C70.5333 10.4729 67.8694 11.5763 65.9054 13.5404C63.9413 15.5044 62.8379 18.1683 62.8379 20.9459V73.3107" stroke="black" stroke-width="4" stroke-linecap="round" stroke-linejoin="round"/>
<path d="M104.73 31.4189H47.1286C44.2365 31.4189 41.8921 33.7634 41.8921 36.6554V68.0743C41.8921 70.9664 44.2365 73.3108 47.1286 73.3108H104.73C107.622 73.3108 109.966 70.9664 109.966 68.0743V36.6554C109.966 33.7634 107.622 31.4189 104.73 31.4189Z" stroke="black" stroke-width="4" stroke-linecap="round" stroke-linejoin="round"/>
<path d="M94.2567 115.203C100.041 115.203 104.73 110.514 104.73 104.73C104.73 98.9457 100.041 94.2568 94.2567 94.2568C88.4726 94.2568 83.7837 98.9457 83.7837 104.73C83.7837 110.514 88.4726 115.203 94.2567 115.203Z" stroke="black" stroke-width="4" stroke-linecap="round" stroke-linejoin="round"/>
<path d="M47.1282 115.203C52.9123 115.203 57.6012 110.514 57.6012 104.73C57.6012 98.9457 52.9123 94.2568 47.1282 94.2568C41.3442 94.2568 36.6553 98.9457 36.6553 104.73C36.6553 110.514 41.3442 115.203 47.1282 115.203Z" stroke="black" stroke-width="4" stroke-linecap="round" stroke-linejoin="round"/>
</svg>
