<svg width="306" height="63" viewBox="0 0 306 63" fill="none" xmlns="http://www.w3.org/2000/svg">
<path d="M50.672 17.856C50.672 21.4827 49.7333 24.8107 47.856 27.84C45.9787 30.8693 43.248 33.344 39.664 35.264C36.08 37.184 31.8133 38.3147 26.864 38.656L24.112 54.08C23.0453 60.0107 20.144 62.976 15.408 62.976C12.8053 62.976 10.3947 62.208 8.176 60.672C6 59.136 4.25067 56.7893 2.928 53.632C1.60533 50.4747 0.944 46.592 0.944 41.984C0.944 33.3227 2.33067 25.984 5.104 19.968C7.92 13.9093 11.6747 9.38666 16.368 6.4C21.104 3.37067 26.3093 1.856 31.984 1.856C35.9947 1.856 39.3867 2.56 42.16 3.968C44.976 5.376 47.088 7.296 48.496 9.728C49.9467 12.1173 50.672 14.8267 50.672 17.856ZM28.016 32.064C36.7627 30.9547 41.136 26.4107 41.136 18.432C41.136 15.616 40.1973 13.3333 38.32 11.584C36.4853 9.792 33.6267 8.896 29.744 8.896C25.3493 8.896 21.5093 10.2827 18.224 13.056C14.9813 15.8293 12.464 19.6907 10.672 24.64C8.92267 29.5467 8.048 35.1573 8.048 41.472C8.048 44.1173 8.304 46.464 8.816 48.512C9.37067 50.56 10.0533 52.16 10.864 53.312C11.7173 54.4213 12.528 54.976 13.296 54.976C14.3627 54.976 15.1733 53.504 15.728 50.56L17.84 38.464C16.176 38.208 15.4507 38.1013 15.664 38.144C14.384 37.9307 13.552 37.5467 13.168 36.992C12.784 36.3947 12.592 35.648 12.592 34.752C12.592 33.8133 12.848 33.0667 13.36 32.512C13.9147 31.9573 14.6613 31.68 15.6 31.68C16.0267 31.68 16.3467 31.7013 16.56 31.744C17.584 31.9147 18.3733 32.0213 18.928 32.064C19.4827 28.736 20.272 24.2773 21.296 18.688C21.552 17.2373 22.128 16.2133 23.024 15.616C23.9627 14.976 25.0507 14.656 26.288 14.656C27.696 14.656 28.6987 14.9333 29.296 15.488C29.936 16 30.256 16.832 30.256 17.984C30.256 18.6667 30.2133 19.2213 30.128 19.648L28.016 32.064ZM77.9285 41.728C78.4832 41.728 78.9098 41.984 79.2085 42.496C79.5498 43.008 79.7205 43.712 79.7205 44.608C79.7205 46.3147 79.3152 47.6373 78.5045 48.576C76.9258 50.496 74.6858 52.2667 71.7845 53.888C68.9258 55.5093 65.8538 56.32 62.5685 56.32C58.0885 56.32 54.6112 55.104 52.1365 52.672C49.6618 50.24 48.4245 46.912 48.4245 42.688C48.4245 39.744 49.0432 37.0133 50.2805 34.496C51.5178 31.936 53.2245 29.9093 55.4005 28.416C57.6192 26.9227 60.1152 26.176 62.8885 26.176C65.3632 26.176 67.3472 26.9227 68.8405 28.416C70.3338 29.8667 71.0805 31.8507 71.0805 34.368C71.0805 37.312 70.0138 39.8507 67.8805 41.984C65.7898 44.0747 62.2272 45.7387 57.1925 46.976C58.2592 48.9387 60.2858 49.92 63.2725 49.92C65.1925 49.92 67.3685 49.2587 69.8005 47.936C72.2752 46.5707 74.4085 44.8 76.2005 42.624C76.7125 42.0267 77.2885 41.728 77.9285 41.728ZM61.8005 32.448C60.2218 32.448 58.8778 33.3653 57.7685 35.2C56.7018 37.0347 56.1685 39.2533 56.1685 41.856V41.984C58.6858 41.3867 60.6698 40.4907 62.1205 39.296C63.5712 38.1013 64.2965 36.7147 64.2965 35.136C64.2965 34.3253 64.0618 33.6853 63.5925 33.216C63.1658 32.704 62.5685 32.448 61.8005 32.448ZM79.0535 56.32C77.4322 56.32 76.2802 55.4667 75.5975 53.76C74.9575 52.0533 74.6375 49.3227 74.6375 45.568C74.6375 40.0213 75.4268 34.752 77.0055 29.76C77.3895 28.5227 78.0082 27.6267 78.8615 27.072C79.7575 26.4747 80.9948 26.176 82.5735 26.176C83.4268 26.176 84.0242 26.2827 84.3655 26.496C84.7068 26.7093 84.8775 27.1147 84.8775 27.712C84.8775 28.3947 84.5575 29.9307 83.9175 32.32C83.4908 34.0267 83.1495 35.52 82.8935 36.8C82.6375 38.08 82.4242 39.6587 82.2535 41.536C83.6615 37.8667 85.2402 34.88 86.9895 32.576C88.7388 30.272 90.4455 28.6293 92.1095 27.648C93.8162 26.6667 95.3735 26.176 96.7815 26.176C99.5548 26.176 100.942 27.5627 100.942 30.336C100.942 30.8907 100.75 32.2347 100.366 34.368C100.024 36.0747 99.8535 37.1413 99.8535 37.568C99.8535 39.0613 100.387 39.808 101.454 39.808C102.648 39.808 104.184 38.8693 106.062 36.992C106.616 36.4373 107.192 36.16 107.79 36.16C108.344 36.16 108.771 36.416 109.069 36.928C109.411 37.3973 109.582 38.0373 109.582 38.848C109.582 40.4267 109.155 41.664 108.302 42.56C107.107 43.7973 105.699 44.864 104.078 45.76C102.499 46.6133 100.814 47.04 99.0215 47.04C96.7602 47.04 95.0322 46.464 93.8375 45.312C92.6855 44.16 92.1095 42.6027 92.1095 40.64C92.1095 40 92.1735 39.36 92.3015 38.72C92.3868 37.8667 92.4295 37.2907 92.4295 36.992C92.4295 36.3093 92.1948 35.968 91.7255 35.968C91.0855 35.968 90.2322 36.6933 89.1655 38.144C88.1415 39.552 87.1175 41.4293 86.0935 43.776C85.0695 46.1227 84.2375 48.5973 83.5975 51.2C83.1282 53.2053 82.5735 54.5707 81.9335 55.296C81.3362 55.9787 80.3762 56.32 79.0535 56.32ZM108.179 56.32C106.557 56.32 105.405 55.4667 104.723 53.76C104.083 52.0533 103.763 49.3227 103.763 45.568C103.763 40.0213 104.552 34.752 106.131 29.76C106.515 28.5227 107.133 27.6267 107.987 27.072C108.883 26.4747 110.12 26.176 111.699 26.176C112.552 26.176 113.149 26.2827 113.491 26.496C113.832 26.7093 114.003 27.1147 114.003 27.712C114.003 28.3947 113.683 29.9307 113.043 32.32C112.616 34.0267 112.275 35.52 112.019 36.8C111.763 38.0373 111.549 39.5947 111.379 41.472C112.531 38.144 113.896 35.328 115.475 33.024C117.096 30.72 118.739 29.0133 120.403 27.904C122.109 26.752 123.709 26.176 125.203 26.176C126.696 26.176 127.741 26.5173 128.339 27.2C128.979 27.8827 129.299 28.928 129.299 30.336C129.299 31.7013 128.893 34.176 128.083 37.76C127.741 39.296 127.507 40.448 127.379 41.216C129.512 35.968 131.88 32.1493 134.483 29.76C137.085 27.3707 139.517 26.176 141.779 26.176C144.552 26.176 145.939 27.5627 145.939 30.336C145.939 32 145.469 35.008 144.531 39.36C143.72 43.072 143.315 45.5253 143.315 46.72C143.315 48.4267 143.933 49.28 145.171 49.28C146.024 49.28 147.027 48.768 148.179 47.744C149.373 46.6773 150.952 44.9707 152.915 42.624C153.427 42.0267 154.003 41.728 154.643 41.728C155.197 41.728 155.624 41.984 155.923 42.496C156.264 43.008 156.435 43.712 156.435 44.608C156.435 46.3147 156.029 47.6373 155.219 48.576C153.384 50.8373 151.4 52.6933 149.267 54.144C147.176 55.5947 144.787 56.32 142.099 56.32C139.923 56.32 138.28 55.7013 137.171 54.464C136.061 53.184 135.507 51.3493 135.507 48.96C135.507 47.7653 135.805 45.632 136.403 42.56C136.957 39.872 137.235 38.016 137.235 36.992C137.235 36.3093 137 35.968 136.531 35.968C135.976 35.968 135.187 36.6933 134.163 38.144C133.139 39.552 132.115 41.4293 131.091 43.776C130.067 46.1227 129.235 48.5973 128.595 51.2C128.125 53.248 127.571 54.6133 126.931 55.296C126.333 55.9787 125.352 56.32 123.987 56.32C122.579 56.32 121.512 55.6587 120.787 54.336C120.104 52.9707 119.763 51.328 119.763 49.408C119.763 47.7867 119.976 45.44 120.403 42.368C120.744 39.6373 120.915 37.8453 120.915 36.992C120.915 36.3093 120.68 35.968 120.211 35.968C119.571 35.968 118.76 36.736 117.779 38.272C116.797 39.808 115.837 41.7707 114.899 44.16C114.003 46.5493 113.277 48.896 112.723 51.2C112.253 53.2053 111.699 54.5707 111.059 55.296C110.461 55.9787 109.501 56.32 108.179 56.32ZM159.132 56.32C156.486 56.32 154.374 55.36 152.796 53.44C151.217 51.52 150.428 49.0027 150.428 45.888C150.428 42.4747 151.217 39.2533 152.796 36.224C154.374 33.152 156.465 30.6987 159.068 28.864C161.713 26.9867 164.508 26.048 167.452 26.048C168.39 26.048 169.009 26.24 169.308 26.624C169.649 26.9653 169.926 27.6053 170.14 28.544C171.036 28.3733 171.974 28.288 172.956 28.288C175.046 28.288 176.092 29.0347 176.092 30.528C176.092 31.424 175.772 33.5573 175.132 36.928C174.15 41.8347 173.66 45.248 173.66 47.168C173.66 47.808 173.809 48.32 174.108 48.704C174.449 49.088 174.876 49.28 175.388 49.28C176.198 49.28 177.18 48.768 178.332 47.744C179.484 46.6773 181.041 44.9707 183.004 42.624C183.516 42.0267 184.092 41.728 184.732 41.728C185.286 41.728 185.713 41.984 186.012 42.496C186.353 43.008 186.524 43.712 186.524 44.608C186.524 46.3147 186.118 47.6373 185.308 48.576C183.558 50.752 181.702 52.5867 179.74 54.08C177.777 55.5733 175.878 56.32 174.044 56.32C172.636 56.32 171.334 55.8507 170.14 54.912C168.988 53.9307 168.113 52.608 167.516 50.944C165.297 54.528 162.502 56.32 159.132 56.32ZM161.436 49.856C162.374 49.856 163.27 49.3013 164.124 48.192C164.977 47.0827 165.596 45.6107 165.98 43.776L168.348 32C166.556 32.0427 164.892 32.7253 163.356 34.048C161.862 35.328 160.668 37.0347 159.772 39.168C158.876 41.3013 158.428 43.5627 158.428 45.952C158.428 47.2747 158.684 48.256 159.196 48.896C159.75 49.536 160.497 49.856 161.436 49.856ZM197.45 56.32C194.506 56.32 191.839 55.5947 189.45 54.144C187.103 52.6933 185.247 50.6027 183.882 47.872C182.517 45.0987 181.834 41.8347 181.834 38.08C181.834 31.5947 183.221 25.6 185.994 20.096C188.767 14.5493 192.863 10.112 198.282 6.784C203.701 3.41333 210.207 1.728 217.802 1.728C219.765 1.728 221.855 1.87733 224.074 2.176C226.335 2.47466 228.383 2.92266 230.218 3.52C231.413 3.86133 232.01 4.71466 232.01 6.08C232.01 7.18933 231.583 8.23467 230.73 9.216C229.919 10.1973 228.959 10.688 227.85 10.688C227.509 10.688 227.253 10.6667 227.082 10.624C224.863 10.112 222.965 9.74933 221.386 9.536C219.807 9.28 218.143 9.152 216.394 9.152C210.975 9.152 206.367 10.4747 202.57 13.12C198.773 15.7227 195.935 19.1787 194.058 23.488C192.181 27.7973 191.242 32.448 191.242 37.44C191.242 41.0667 191.946 43.8827 193.354 45.888C194.805 47.8507 196.682 48.832 198.986 48.832C201.589 48.832 203.871 47.7653 205.834 45.632C207.797 43.4987 209.589 40.0427 211.21 35.264C212.831 30.4853 214.431 24 216.01 15.808C216.266 14.6133 216.778 13.8027 217.546 13.376C218.314 12.9493 219.338 12.736 220.618 12.736C223.647 12.736 225.162 13.7173 225.162 15.68C225.162 16.0213 225.098 16.448 224.97 16.96C223.861 21.0987 222.837 25.6853 221.898 30.72C221.002 35.712 220.554 39.5093 220.554 42.112C220.554 44.416 220.895 46.1013 221.578 47.168C222.261 48.192 223.306 48.704 224.714 48.704C226.079 48.704 227.381 48.256 228.618 47.36C229.855 46.4213 231.413 44.8427 233.29 42.624C233.802 42.0267 234.378 41.728 235.018 41.728C235.573 41.728 235.999 41.984 236.298 42.496C236.639 43.008 236.81 43.712 236.81 44.608C236.81 46.272 236.405 47.5947 235.594 48.576C233.503 51.0933 231.455 53.0133 229.45 54.336C227.445 55.6587 224.991 56.32 222.09 56.32C219.103 56.32 216.693 55.4667 214.858 53.76C213.023 52.0107 211.871 49.5573 211.402 46.4C208.245 53.0133 203.594 56.32 197.45 56.32ZM248.275 56.32C245.8 56.32 243.005 56.1067 239.891 55.68C238.184 55.4667 237.011 55.0187 236.371 54.336C235.731 53.6533 235.453 52.544 235.539 51.008C235.837 46.784 236.541 41.5787 237.651 35.392C238.76 29.1627 240.104 23.168 241.683 17.408C241.981 16.3413 242.579 15.5947 243.475 15.168C244.371 14.7413 245.544 14.528 246.995 14.528C249.597 14.528 250.899 15.2533 250.899 16.704C250.899 17.3013 250.771 17.984 250.515 18.752C249.405 22.1653 248.296 26.752 247.187 32.512C246.077 38.2293 245.288 43.6907 244.819 48.896C246.099 49.024 247.549 49.088 249.171 49.088C256.637 49.088 262.205 46.8267 265.875 42.304C269.587 37.7813 271.443 31.744 271.443 24.192C271.443 19.1147 269.992 15.1893 267.091 12.416C264.189 9.64266 260.093 8.256 254.803 8.256C251.389 8.256 247.997 8.78933 244.627 9.856C241.299 10.9227 238.291 12.3307 235.603 14.08C235.048 14.464 234.451 14.656 233.811 14.656C233.085 14.656 232.509 14.3573 232.083 13.76C231.656 13.12 231.443 12.352 231.443 11.456C231.443 10.432 231.613 9.6 231.955 8.96C232.296 8.27733 232.872 7.65866 233.683 7.104C236.627 5.09866 240.083 3.584 244.051 2.56C248.019 1.49333 251.837 0.959999 255.507 0.959999C260.712 0.959999 265.213 1.87733 269.011 3.712C272.808 5.504 275.731 8.14933 277.779 11.648C279.827 15.1467 280.851 19.3707 280.851 24.32C280.851 30.7627 279.571 36.3947 277.011 41.216C274.451 45.9947 270.717 49.7067 265.811 52.352C260.904 54.9973 255.059 56.32 248.275 56.32ZM295.789 57.728C293.57 57.728 291.863 57.216 290.669 56.192C289.517 55.168 288.941 54.016 288.941 52.736C288.941 51.6267 289.346 50.6667 290.157 49.856C290.967 49.0453 292.162 48.64 293.741 48.64C294.295 48.64 294.935 48.704 295.661 48.832C296.429 48.9173 297.005 48.9813 297.389 49.024C297.346 47.9147 297.09 46.8693 296.621 45.888C296.194 44.9067 295.639 43.968 294.957 43.072C294.274 42.1333 293.634 41.3227 293.037 40.64C291.714 43.1573 290.391 45.248 289.069 46.912C287.789 48.576 286.381 50.1547 284.845 51.648C284.077 52.416 283.266 52.8 282.413 52.8C281.73 52.8 281.175 52.5653 280.748 52.096C280.322 51.584 280.108 50.9653 280.108 50.24C280.108 49.3867 280.407 48.5973 281.005 47.872L281.837 46.848C284.183 43.9467 285.954 41.5573 287.149 39.68C287.917 38.4427 288.685 36.9707 289.453 35.264C290.263 33.5573 291.309 31.232 292.589 28.288C293.399 26.4107 295.085 25.472 297.645 25.472C298.839 25.472 299.671 25.5787 300.141 25.792C300.61 26.0053 300.845 26.3467 300.845 26.816C300.845 27.072 300.759 27.4773 300.589 28.032C300.418 28.5867 300.183 29.1413 299.885 29.696C299.117 31.232 298.733 32.5333 298.733 33.6C298.733 34.24 298.946 34.944 299.373 35.712C299.842 36.48 300.546 37.44 301.485 38.592C302.85 40.384 303.874 41.92 304.557 43.2C305.282 44.4373 305.645 45.8027 305.645 47.296C305.645 49.088 305.218 50.7947 304.365 52.416C303.554 53.9947 302.402 55.2747 300.909 56.256C299.415 57.2373 297.709 57.728 295.789 57.728Z" fill="black"/>
</svg>
