<svg width="28" height="24" viewBox="0 0 28 24" fill="none" xmlns="http://www.w3.org/2000/svg">
<path d="M1.14073 3.01857C0.559646 1.81383 1.87346 0.664732 3.33334 1.09051C8.28262 2.53398 17.6908 5.62866 25.9507 10.3492C27.3498 11.1489 27.3498 12.8511 25.9507 13.6508C17.6908 18.3713 8.28262 21.466 3.33334 22.9095C1.87346 23.3353 0.559646 22.1861 1.14073 20.9814C2.389 18.3934 3.81575 15.91 4.52571 14.7077C4.81282 14.2216 5.31334 13.8526 5.91995 13.6677L11.3925 12L5.91995 10.3323C5.31334 10.1474 4.81282 9.7784 4.52571 9.29224C3.81575 8.08999 2.389 5.60657 1.14073 3.01857Z" stroke="white" stroke-width="1.3" stroke-linejoin="round"/>
</svg>
